M48
; DRILL file {KiCad (5.1.5)-3} date 2/19/2020 1:12:20 PM
; FORMAT={-:-/ absolute / inch / decimal}
; #@! TF.CreationDate,2020-02-19T13:12:20+05:30
; #@! TF.GenerationSoftware,Kicad,Pcbnew,(5.1.5)-3
; #@! TF.FileFunction,Plated,1,2,PTH
FMAT,2
INCH
T1C0.0150
T2C0.0236
T3C0.0300
T4C0.0315
T5C0.0335
T6C0.0394
T7C0.0433
%
G90
G05
T1
X6.695Y-2.9575
X6.7025Y-3.3375
X6.7175Y-3.6675
X6.72Y-3.575
X6.7475Y-3.1675
X6.75Y-2.89
X6.7525Y-2.823
X6.755Y-2.383
X6.7775Y-3.455
X6.7875Y-3.575
X6.855Y-3.5925
X6.89Y-3.6875
X6.8925Y-2.7125
X6.9025Y-2.6125
X7.0Y-2.975
X7.005Y-2.422
X7.115Y-3.3725
X7.1225Y-3.4355
X7.135Y-2.7325
X7.135Y-3.7875
X7.1375Y-2.9825
X7.15Y-2.5525
X7.165Y-2.9175
X7.215Y-3.4075
X7.315Y-3.315
X7.3625Y-3.26
X7.5725Y-3.9975
X7.6261Y-3.4332
X7.63Y-3.51
X7.675Y-2.82
X7.69Y-3.5475
X7.705Y-3.3875
X7.775Y-3.6025
X7.7775Y-3.4475
X7.8325Y-3.7725
X7.835Y-3.6075
X7.8575Y-2.5225
X7.8725Y-2.805
X7.875Y-3.91
X7.885Y-2.615
X7.9775Y-3.075
X8.0025Y-2.9775
X8.0525Y-2.8125
X8.0775Y-2.6525
X8.1125Y-2.7825
X8.1525Y-3.395
X8.18Y-3.1425
X8.1975Y-2.775
X8.1975Y-3.4775
X8.22Y-3.6875
X8.285Y-3.985
X8.325Y-3.185
X8.355Y-3.4925
X8.4225Y-3.8575
X8.4225Y-4.0925
X8.445Y-2.96
T3
X7.48Y-3.8837
T4
X7.48Y-2.9385
T5
X7.3741Y-2.5226
X7.5709Y-2.5226
T6
X6.6125Y-3.4125
X6.6125Y-3.5125
X6.6125Y-3.6125
X6.6125Y-3.7125
T7
X7.87Y-4.05
X7.87Y-4.2272
X8.1259Y-4.05
X8.1259Y-4.2272
T2
G00X7.3347Y-2.4301
M15
G01X7.3347Y-2.4025
M16
G05
G00X7.6103Y-2.4025
M15
G01X7.6103Y-2.4301
M16
G05
T0
M30
