G04 #@! TF.GenerationSoftware,KiCad,Pcbnew,(5.1.5)-3*
G04 #@! TF.CreationDate,2020-02-19T13:12:13+05:30*
G04 #@! TF.ProjectId,task_1,7461736b-5f31-42e6-9b69-6361645f7063,rev?*
G04 #@! TF.SameCoordinates,Original*
G04 #@! TF.FileFunction,Soldermask,Top*
G04 #@! TF.FilePolarity,Negative*
%FSLAX46Y46*%
G04 Gerber Fmt 4.6, Leading zero omitted, Abs format (unit mm)*
G04 Created by KiCad (PCBNEW (5.1.5)-3) date 2020-02-19 13:12:13*
%MOMM*%
%LPD*%
G04 APERTURE LIST*
%ADD10C,0.100000*%
G04 APERTURE END LIST*
D10*
G36*
X168841052Y-107839124D02*
G01*
X168886737Y-107852982D01*
X168928833Y-107875483D01*
X168965734Y-107905766D01*
X168996017Y-107942667D01*
X169018518Y-107984763D01*
X169032376Y-108030448D01*
X169037300Y-108080442D01*
X169037300Y-109089558D01*
X169032376Y-109139552D01*
X169018518Y-109185237D01*
X168996017Y-109227333D01*
X168965734Y-109264234D01*
X168928833Y-109294517D01*
X168886737Y-109317018D01*
X168841052Y-109330876D01*
X168791058Y-109335800D01*
X168206942Y-109335800D01*
X168156948Y-109330876D01*
X168111263Y-109317018D01*
X168069167Y-109294517D01*
X168032266Y-109264234D01*
X168001983Y-109227333D01*
X167979482Y-109185237D01*
X167965624Y-109139552D01*
X167960700Y-109089558D01*
X167960700Y-108080442D01*
X167965624Y-108030448D01*
X167979482Y-107984763D01*
X168001983Y-107942667D01*
X168032266Y-107905766D01*
X168069167Y-107875483D01*
X168111263Y-107852982D01*
X168156948Y-107839124D01*
X168206942Y-107834200D01*
X168791058Y-107834200D01*
X168841052Y-107839124D01*
G37*
G36*
X166966052Y-107839124D02*
G01*
X167011737Y-107852982D01*
X167053833Y-107875483D01*
X167090734Y-107905766D01*
X167121017Y-107942667D01*
X167143518Y-107984763D01*
X167157376Y-108030448D01*
X167162300Y-108080442D01*
X167162300Y-109089558D01*
X167157376Y-109139552D01*
X167143518Y-109185237D01*
X167121017Y-109227333D01*
X167090734Y-109264234D01*
X167053833Y-109294517D01*
X167011737Y-109317018D01*
X166966052Y-109330876D01*
X166916058Y-109335800D01*
X166331942Y-109335800D01*
X166281948Y-109330876D01*
X166236263Y-109317018D01*
X166194167Y-109294517D01*
X166157266Y-109264234D01*
X166126983Y-109227333D01*
X166104482Y-109185237D01*
X166090624Y-109139552D01*
X166085700Y-109089558D01*
X166085700Y-108080442D01*
X166090624Y-108030448D01*
X166104482Y-107984763D01*
X166126983Y-107942667D01*
X166157266Y-107905766D01*
X166194167Y-107875483D01*
X166236263Y-107852982D01*
X166281948Y-107839124D01*
X166331942Y-107834200D01*
X166916058Y-107834200D01*
X166966052Y-107839124D01*
G37*
G36*
X212368552Y-107204124D02*
G01*
X212414237Y-107217982D01*
X212456333Y-107240483D01*
X212493234Y-107270766D01*
X212523517Y-107307667D01*
X212546018Y-107349763D01*
X212559876Y-107395448D01*
X212564800Y-107445442D01*
X212564800Y-108454558D01*
X212559876Y-108504552D01*
X212546018Y-108550237D01*
X212523517Y-108592333D01*
X212493234Y-108629234D01*
X212456333Y-108659517D01*
X212414237Y-108682018D01*
X212368552Y-108695876D01*
X212318558Y-108700800D01*
X211734442Y-108700800D01*
X211684448Y-108695876D01*
X211638763Y-108682018D01*
X211596667Y-108659517D01*
X211559766Y-108629234D01*
X211529483Y-108592333D01*
X211506982Y-108550237D01*
X211493124Y-108504552D01*
X211488200Y-108454558D01*
X211488200Y-107445442D01*
X211493124Y-107395448D01*
X211506982Y-107349763D01*
X211529483Y-107307667D01*
X211559766Y-107270766D01*
X211596667Y-107240483D01*
X211638763Y-107217982D01*
X211684448Y-107204124D01*
X211734442Y-107199200D01*
X212318558Y-107199200D01*
X212368552Y-107204124D01*
G37*
G36*
X214243552Y-107204124D02*
G01*
X214289237Y-107217982D01*
X214331333Y-107240483D01*
X214368234Y-107270766D01*
X214398517Y-107307667D01*
X214421018Y-107349763D01*
X214434876Y-107395448D01*
X214439800Y-107445442D01*
X214439800Y-108454558D01*
X214434876Y-108504552D01*
X214421018Y-108550237D01*
X214398517Y-108592333D01*
X214368234Y-108629234D01*
X214331333Y-108659517D01*
X214289237Y-108682018D01*
X214243552Y-108695876D01*
X214193558Y-108700800D01*
X213609442Y-108700800D01*
X213559448Y-108695876D01*
X213513763Y-108682018D01*
X213471667Y-108659517D01*
X213434766Y-108629234D01*
X213404483Y-108592333D01*
X213381982Y-108550237D01*
X213368124Y-108504552D01*
X213363200Y-108454558D01*
X213363200Y-107445442D01*
X213368124Y-107395448D01*
X213381982Y-107349763D01*
X213404483Y-107307667D01*
X213434766Y-107270766D01*
X213471667Y-107240483D01*
X213513763Y-107217982D01*
X213559448Y-107204124D01*
X213609442Y-107199200D01*
X214193558Y-107199200D01*
X214243552Y-107204124D01*
G37*
G36*
X189669052Y-106950124D02*
G01*
X189714737Y-106963982D01*
X189756833Y-106986483D01*
X189793734Y-107016766D01*
X189824017Y-107053667D01*
X189846518Y-107095763D01*
X189860376Y-107141448D01*
X189865300Y-107191442D01*
X189865300Y-108200558D01*
X189860376Y-108250552D01*
X189846518Y-108296237D01*
X189824017Y-108338333D01*
X189793734Y-108375234D01*
X189756833Y-108405517D01*
X189714737Y-108428018D01*
X189669052Y-108441876D01*
X189619058Y-108446800D01*
X189034942Y-108446800D01*
X188984948Y-108441876D01*
X188939263Y-108428018D01*
X188897167Y-108405517D01*
X188860266Y-108375234D01*
X188829983Y-108338333D01*
X188807482Y-108296237D01*
X188793624Y-108250552D01*
X188788700Y-108200558D01*
X188788700Y-107191442D01*
X188793624Y-107141448D01*
X188807482Y-107095763D01*
X188829983Y-107053667D01*
X188860266Y-107016766D01*
X188897167Y-106986483D01*
X188939263Y-106963982D01*
X188984948Y-106950124D01*
X189034942Y-106945200D01*
X189619058Y-106945200D01*
X189669052Y-106950124D01*
G37*
G36*
X187794052Y-106950124D02*
G01*
X187839737Y-106963982D01*
X187881833Y-106986483D01*
X187918734Y-107016766D01*
X187949017Y-107053667D01*
X187971518Y-107095763D01*
X187985376Y-107141448D01*
X187990300Y-107191442D01*
X187990300Y-108200558D01*
X187985376Y-108250552D01*
X187971518Y-108296237D01*
X187949017Y-108338333D01*
X187918734Y-108375234D01*
X187881833Y-108405517D01*
X187839737Y-108428018D01*
X187794052Y-108441876D01*
X187744058Y-108446800D01*
X187159942Y-108446800D01*
X187109948Y-108441876D01*
X187064263Y-108428018D01*
X187022167Y-108405517D01*
X186985266Y-108375234D01*
X186954983Y-108338333D01*
X186932482Y-108296237D01*
X186918624Y-108250552D01*
X186913700Y-108200558D01*
X186913700Y-107191442D01*
X186918624Y-107141448D01*
X186932482Y-107095763D01*
X186954983Y-107053667D01*
X186985266Y-107016766D01*
X187022167Y-106986483D01*
X187064263Y-106963982D01*
X187109948Y-106950124D01*
X187159942Y-106945200D01*
X187744058Y-106945200D01*
X187794052Y-106950124D01*
G37*
G36*
X206704508Y-106359582D02*
G01*
X206895741Y-106438793D01*
X207067847Y-106553791D01*
X207214209Y-106700153D01*
X207329207Y-106872259D01*
X207408418Y-107063492D01*
X207448800Y-107266505D01*
X207448800Y-107473495D01*
X207408418Y-107676508D01*
X207329207Y-107867741D01*
X207214209Y-108039847D01*
X207067847Y-108186209D01*
X206895741Y-108301207D01*
X206704508Y-108380418D01*
X206501495Y-108420800D01*
X206294505Y-108420800D01*
X206091492Y-108380418D01*
X205900259Y-108301207D01*
X205728153Y-108186209D01*
X205581791Y-108039847D01*
X205466793Y-107867741D01*
X205387582Y-107676508D01*
X205347200Y-107473495D01*
X205347200Y-107266505D01*
X205387582Y-107063492D01*
X205466793Y-106872259D01*
X205581791Y-106700153D01*
X205728153Y-106553791D01*
X205900259Y-106438793D01*
X206091492Y-106359582D01*
X206294505Y-106319200D01*
X206501495Y-106319200D01*
X206704508Y-106359582D01*
G37*
G36*
X200204508Y-106359582D02*
G01*
X200395741Y-106438793D01*
X200567847Y-106553791D01*
X200714209Y-106700153D01*
X200829207Y-106872259D01*
X200908418Y-107063492D01*
X200948800Y-107266505D01*
X200948800Y-107473495D01*
X200908418Y-107676508D01*
X200829207Y-107867741D01*
X200714209Y-108039847D01*
X200567847Y-108186209D01*
X200395741Y-108301207D01*
X200204508Y-108380418D01*
X200001495Y-108420800D01*
X199794505Y-108420800D01*
X199591492Y-108380418D01*
X199400259Y-108301207D01*
X199228153Y-108186209D01*
X199081791Y-108039847D01*
X198966793Y-107867741D01*
X198887582Y-107676508D01*
X198847200Y-107473495D01*
X198847200Y-107266505D01*
X198887582Y-107063492D01*
X198966793Y-106872259D01*
X199081791Y-106700153D01*
X199228153Y-106553791D01*
X199400259Y-106438793D01*
X199591492Y-106359582D01*
X199794505Y-106319200D01*
X200001495Y-106319200D01*
X200204508Y-106359582D01*
G37*
G36*
X187802174Y-103301143D02*
G01*
X187843167Y-103313578D01*
X187880948Y-103333773D01*
X187914056Y-103360944D01*
X187941227Y-103394052D01*
X187961422Y-103431833D01*
X187973857Y-103472826D01*
X187978300Y-103517941D01*
X187978300Y-104127059D01*
X187973857Y-104172174D01*
X187961422Y-104213167D01*
X187941227Y-104250948D01*
X187914056Y-104284056D01*
X187880948Y-104311227D01*
X187843167Y-104331422D01*
X187802174Y-104343857D01*
X187757059Y-104348300D01*
X187222941Y-104348300D01*
X187177826Y-104343857D01*
X187136833Y-104331422D01*
X187099052Y-104311227D01*
X187065944Y-104284056D01*
X187038773Y-104250948D01*
X187018578Y-104213167D01*
X187006143Y-104172174D01*
X187001700Y-104127059D01*
X187001700Y-103517941D01*
X187006143Y-103472826D01*
X187018578Y-103431833D01*
X187038773Y-103394052D01*
X187065944Y-103360944D01*
X187099052Y-103333773D01*
X187136833Y-103313578D01*
X187177826Y-103301143D01*
X187222941Y-103296700D01*
X187757059Y-103296700D01*
X187802174Y-103301143D01*
G37*
G36*
X189377174Y-103301143D02*
G01*
X189418167Y-103313578D01*
X189455948Y-103333773D01*
X189489056Y-103360944D01*
X189516227Y-103394052D01*
X189536422Y-103431833D01*
X189548857Y-103472826D01*
X189553300Y-103517941D01*
X189553300Y-104127059D01*
X189548857Y-104172174D01*
X189536422Y-104213167D01*
X189516227Y-104250948D01*
X189489056Y-104284056D01*
X189455948Y-104311227D01*
X189418167Y-104331422D01*
X189377174Y-104343857D01*
X189332059Y-104348300D01*
X188797941Y-104348300D01*
X188752826Y-104343857D01*
X188711833Y-104331422D01*
X188674052Y-104311227D01*
X188640944Y-104284056D01*
X188613773Y-104250948D01*
X188593578Y-104213167D01*
X188581143Y-104172174D01*
X188576700Y-104127059D01*
X188576700Y-103517941D01*
X188581143Y-103472826D01*
X188593578Y-103431833D01*
X188613773Y-103394052D01*
X188640944Y-103360944D01*
X188674052Y-103333773D01*
X188711833Y-103313578D01*
X188752826Y-103301143D01*
X188797941Y-103296700D01*
X189332059Y-103296700D01*
X189377174Y-103301143D01*
G37*
G36*
X200204508Y-101859582D02*
G01*
X200395741Y-101938793D01*
X200567847Y-102053791D01*
X200714209Y-102200153D01*
X200829207Y-102372259D01*
X200908418Y-102563492D01*
X200948800Y-102766505D01*
X200948800Y-102973495D01*
X200908418Y-103176508D01*
X200829207Y-103367741D01*
X200714209Y-103539847D01*
X200567847Y-103686209D01*
X200395741Y-103801207D01*
X200204508Y-103880418D01*
X200001495Y-103920800D01*
X199794505Y-103920800D01*
X199591492Y-103880418D01*
X199400259Y-103801207D01*
X199228153Y-103686209D01*
X199081791Y-103539847D01*
X198966793Y-103367741D01*
X198887582Y-103176508D01*
X198847200Y-102973495D01*
X198847200Y-102766505D01*
X198887582Y-102563492D01*
X198966793Y-102372259D01*
X199081791Y-102200153D01*
X199228153Y-102053791D01*
X199400259Y-101938793D01*
X199591492Y-101859582D01*
X199794505Y-101819200D01*
X200001495Y-101819200D01*
X200204508Y-101859582D01*
G37*
G36*
X206704508Y-101859582D02*
G01*
X206895741Y-101938793D01*
X207067847Y-102053791D01*
X207214209Y-102200153D01*
X207329207Y-102372259D01*
X207408418Y-102563492D01*
X207448800Y-102766505D01*
X207448800Y-102973495D01*
X207408418Y-103176508D01*
X207329207Y-103367741D01*
X207214209Y-103539847D01*
X207067847Y-103686209D01*
X206895741Y-103801207D01*
X206704508Y-103880418D01*
X206501495Y-103920800D01*
X206294505Y-103920800D01*
X206091492Y-103880418D01*
X205900259Y-103801207D01*
X205728153Y-103686209D01*
X205581791Y-103539847D01*
X205466793Y-103367741D01*
X205387582Y-103176508D01*
X205347200Y-102973495D01*
X205347200Y-102766505D01*
X205387582Y-102563492D01*
X205466793Y-102372259D01*
X205581791Y-102200153D01*
X205728153Y-102053791D01*
X205900259Y-101938793D01*
X206091492Y-101859582D01*
X206294505Y-101819200D01*
X206501495Y-101819200D01*
X206704508Y-101859582D01*
G37*
G36*
X186298000Y-101050000D02*
G01*
X185558000Y-101050000D01*
X185558000Y-99610000D01*
X186298000Y-99610000D01*
X186298000Y-101050000D01*
G37*
G36*
X214116674Y-99618143D02*
G01*
X214157667Y-99630578D01*
X214195448Y-99650773D01*
X214228556Y-99677944D01*
X214255727Y-99711052D01*
X214275922Y-99748833D01*
X214288357Y-99789826D01*
X214292800Y-99834941D01*
X214292800Y-100444059D01*
X214288357Y-100489174D01*
X214275922Y-100530167D01*
X214255727Y-100567948D01*
X214228556Y-100601056D01*
X214195448Y-100628227D01*
X214157667Y-100648422D01*
X214116674Y-100660857D01*
X214071559Y-100665300D01*
X213537441Y-100665300D01*
X213492326Y-100660857D01*
X213451333Y-100648422D01*
X213413552Y-100628227D01*
X213380444Y-100601056D01*
X213353273Y-100567948D01*
X213333078Y-100530167D01*
X213320643Y-100489174D01*
X213316200Y-100444059D01*
X213316200Y-99834941D01*
X213320643Y-99789826D01*
X213333078Y-99748833D01*
X213353273Y-99711052D01*
X213380444Y-99677944D01*
X213413552Y-99650773D01*
X213451333Y-99630578D01*
X213492326Y-99618143D01*
X213537441Y-99613700D01*
X214071559Y-99613700D01*
X214116674Y-99618143D01*
G37*
G36*
X212541674Y-99618143D02*
G01*
X212582667Y-99630578D01*
X212620448Y-99650773D01*
X212653556Y-99677944D01*
X212680727Y-99711052D01*
X212700922Y-99748833D01*
X212713357Y-99789826D01*
X212717800Y-99834941D01*
X212717800Y-100444059D01*
X212713357Y-100489174D01*
X212700922Y-100530167D01*
X212680727Y-100567948D01*
X212653556Y-100601056D01*
X212620448Y-100628227D01*
X212582667Y-100648422D01*
X212541674Y-100660857D01*
X212496559Y-100665300D01*
X211962441Y-100665300D01*
X211917326Y-100660857D01*
X211876333Y-100648422D01*
X211838552Y-100628227D01*
X211805444Y-100601056D01*
X211778273Y-100567948D01*
X211758078Y-100530167D01*
X211745643Y-100489174D01*
X211741200Y-100444059D01*
X211741200Y-99834941D01*
X211745643Y-99789826D01*
X211758078Y-99748833D01*
X211778273Y-99711052D01*
X211805444Y-99677944D01*
X211838552Y-99650773D01*
X211876333Y-99630578D01*
X211917326Y-99618143D01*
X211962441Y-99613700D01*
X212496559Y-99613700D01*
X212541674Y-99618143D01*
G37*
G36*
X169146174Y-99427643D02*
G01*
X169187167Y-99440078D01*
X169224948Y-99460273D01*
X169258056Y-99487444D01*
X169285227Y-99520552D01*
X169305422Y-99558333D01*
X169317857Y-99599326D01*
X169322300Y-99644441D01*
X169322300Y-100253559D01*
X169317857Y-100298674D01*
X169305422Y-100339667D01*
X169285227Y-100377448D01*
X169258056Y-100410556D01*
X169224948Y-100437727D01*
X169187167Y-100457922D01*
X169146174Y-100470357D01*
X169101059Y-100474800D01*
X168566941Y-100474800D01*
X168521826Y-100470357D01*
X168480833Y-100457922D01*
X168443052Y-100437727D01*
X168409944Y-100410556D01*
X168382773Y-100377448D01*
X168362578Y-100339667D01*
X168350143Y-100298674D01*
X168345700Y-100253559D01*
X168345700Y-99644441D01*
X168350143Y-99599326D01*
X168362578Y-99558333D01*
X168382773Y-99520552D01*
X168409944Y-99487444D01*
X168443052Y-99460273D01*
X168480833Y-99440078D01*
X168521826Y-99427643D01*
X168566941Y-99423200D01*
X169101059Y-99423200D01*
X169146174Y-99427643D01*
G37*
G36*
X167571174Y-99427643D02*
G01*
X167612167Y-99440078D01*
X167649948Y-99460273D01*
X167683056Y-99487444D01*
X167710227Y-99520552D01*
X167730422Y-99558333D01*
X167742857Y-99599326D01*
X167747300Y-99644441D01*
X167747300Y-100253559D01*
X167742857Y-100298674D01*
X167730422Y-100339667D01*
X167710227Y-100377448D01*
X167683056Y-100410556D01*
X167649948Y-100437727D01*
X167612167Y-100457922D01*
X167571174Y-100470357D01*
X167526059Y-100474800D01*
X166991941Y-100474800D01*
X166946826Y-100470357D01*
X166905833Y-100457922D01*
X166868052Y-100437727D01*
X166834944Y-100410556D01*
X166807773Y-100377448D01*
X166787578Y-100339667D01*
X166775143Y-100298674D01*
X166770700Y-100253559D01*
X166770700Y-99644441D01*
X166775143Y-99599326D01*
X166787578Y-99558333D01*
X166807773Y-99520552D01*
X166834944Y-99487444D01*
X166868052Y-99460273D01*
X166905833Y-99440078D01*
X166946826Y-99427643D01*
X166991941Y-99423200D01*
X167526059Y-99423200D01*
X167571174Y-99427643D01*
G37*
G36*
X190229086Y-97865435D02*
G01*
X190377003Y-97926704D01*
X190510134Y-98015660D01*
X190623340Y-98128866D01*
X190712296Y-98261997D01*
X190773565Y-98409914D01*
X190804800Y-98566946D01*
X190804800Y-98727054D01*
X190773565Y-98884086D01*
X190712296Y-99032003D01*
X190623340Y-99165134D01*
X190510134Y-99278340D01*
X190377003Y-99367296D01*
X190229086Y-99428565D01*
X190072054Y-99459800D01*
X189911946Y-99459800D01*
X189754914Y-99428565D01*
X189606997Y-99367296D01*
X189473866Y-99278340D01*
X189360660Y-99165134D01*
X189271704Y-99032003D01*
X189210435Y-98884086D01*
X189179200Y-98727054D01*
X189179200Y-98566946D01*
X189210435Y-98409914D01*
X189271704Y-98261997D01*
X189360660Y-98128866D01*
X189473866Y-98015660D01*
X189606997Y-97926704D01*
X189754914Y-97865435D01*
X189911946Y-97834200D01*
X190072054Y-97834200D01*
X190229086Y-97865435D01*
G37*
G36*
X185348000Y-98950000D02*
G01*
X184608000Y-98950000D01*
X184608000Y-97510000D01*
X185348000Y-97510000D01*
X185348000Y-98950000D01*
G37*
G36*
X187248000Y-98950000D02*
G01*
X186508000Y-98950000D01*
X186508000Y-97510000D01*
X187248000Y-97510000D01*
X187248000Y-98950000D01*
G37*
G36*
X172561674Y-96099643D02*
G01*
X172602667Y-96112078D01*
X172640448Y-96132273D01*
X172673556Y-96159444D01*
X172700727Y-96192552D01*
X172720922Y-96230333D01*
X172733357Y-96271326D01*
X172737800Y-96316441D01*
X172737800Y-96850559D01*
X172733357Y-96895674D01*
X172720922Y-96936667D01*
X172700727Y-96974448D01*
X172673556Y-97007556D01*
X172640448Y-97034727D01*
X172602667Y-97054922D01*
X172561674Y-97067357D01*
X172516559Y-97071800D01*
X171907441Y-97071800D01*
X171862326Y-97067357D01*
X171821333Y-97054922D01*
X171783552Y-97034727D01*
X171750444Y-97007556D01*
X171723273Y-96974448D01*
X171703078Y-96936667D01*
X171690643Y-96895674D01*
X171686200Y-96850559D01*
X171686200Y-96316441D01*
X171690643Y-96271326D01*
X171703078Y-96230333D01*
X171723273Y-96192552D01*
X171750444Y-96159444D01*
X171783552Y-96132273D01*
X171821333Y-96112078D01*
X171862326Y-96099643D01*
X171907441Y-96095200D01*
X172516559Y-96095200D01*
X172561674Y-96099643D01*
G37*
G36*
X187002174Y-94474643D02*
G01*
X187043167Y-94487078D01*
X187080948Y-94507273D01*
X187114056Y-94534444D01*
X187141227Y-94567552D01*
X187161422Y-94605333D01*
X187173857Y-94646326D01*
X187178300Y-94691441D01*
X187178300Y-95300559D01*
X187173857Y-95345674D01*
X187161422Y-95386667D01*
X187141227Y-95424448D01*
X187114056Y-95457556D01*
X187080948Y-95484727D01*
X187043167Y-95504922D01*
X187002174Y-95517357D01*
X186957059Y-95521800D01*
X186422941Y-95521800D01*
X186377826Y-95517357D01*
X186336833Y-95504922D01*
X186299052Y-95484727D01*
X186265944Y-95457556D01*
X186238773Y-95424448D01*
X186218578Y-95386667D01*
X186206143Y-95345674D01*
X186201700Y-95300559D01*
X186201700Y-94691441D01*
X186206143Y-94646326D01*
X186218578Y-94605333D01*
X186238773Y-94567552D01*
X186265944Y-94534444D01*
X186299052Y-94507273D01*
X186336833Y-94487078D01*
X186377826Y-94474643D01*
X186422941Y-94470200D01*
X186957059Y-94470200D01*
X187002174Y-94474643D01*
G37*
G36*
X185427174Y-94474643D02*
G01*
X185468167Y-94487078D01*
X185505948Y-94507273D01*
X185539056Y-94534444D01*
X185566227Y-94567552D01*
X185586422Y-94605333D01*
X185598857Y-94646326D01*
X185603300Y-94691441D01*
X185603300Y-95300559D01*
X185598857Y-95345674D01*
X185586422Y-95386667D01*
X185566227Y-95424448D01*
X185539056Y-95457556D01*
X185505948Y-95484727D01*
X185468167Y-95504922D01*
X185427174Y-95517357D01*
X185382059Y-95521800D01*
X184847941Y-95521800D01*
X184802826Y-95517357D01*
X184761833Y-95504922D01*
X184724052Y-95484727D01*
X184690944Y-95457556D01*
X184663773Y-95424448D01*
X184643578Y-95386667D01*
X184631143Y-95345674D01*
X184626700Y-95300559D01*
X184626700Y-94691441D01*
X184631143Y-94646326D01*
X184643578Y-94605333D01*
X184663773Y-94567552D01*
X184690944Y-94534444D01*
X184724052Y-94507273D01*
X184761833Y-94487078D01*
X184802826Y-94474643D01*
X184847941Y-94470200D01*
X185382059Y-94470200D01*
X185427174Y-94474643D01*
G37*
G36*
X172561674Y-94524643D02*
G01*
X172602667Y-94537078D01*
X172640448Y-94557273D01*
X172673556Y-94584444D01*
X172700727Y-94617552D01*
X172720922Y-94655333D01*
X172733357Y-94696326D01*
X172737800Y-94741441D01*
X172737800Y-95275559D01*
X172733357Y-95320674D01*
X172720922Y-95361667D01*
X172700727Y-95399448D01*
X172673556Y-95432556D01*
X172640448Y-95459727D01*
X172602667Y-95479922D01*
X172561674Y-95492357D01*
X172516559Y-95496800D01*
X171907441Y-95496800D01*
X171862326Y-95492357D01*
X171821333Y-95479922D01*
X171783552Y-95459727D01*
X171750444Y-95432556D01*
X171723273Y-95399448D01*
X171703078Y-95361667D01*
X171690643Y-95320674D01*
X171686200Y-95275559D01*
X171686200Y-94741441D01*
X171690643Y-94696326D01*
X171703078Y-94655333D01*
X171723273Y-94617552D01*
X171750444Y-94584444D01*
X171783552Y-94557273D01*
X171821333Y-94537078D01*
X171862326Y-94524643D01*
X171907441Y-94520200D01*
X172516559Y-94520200D01*
X172561674Y-94524643D01*
G37*
G36*
X168220254Y-93431317D02*
G01*
X168384189Y-93499221D01*
X168531727Y-93597803D01*
X168657197Y-93723273D01*
X168755779Y-93870811D01*
X168823683Y-94034746D01*
X168858300Y-94208779D01*
X168858300Y-94386221D01*
X168823683Y-94560254D01*
X168755779Y-94724189D01*
X168657197Y-94871727D01*
X168531727Y-94997197D01*
X168384189Y-95095779D01*
X168220254Y-95163683D01*
X168046221Y-95198300D01*
X167868779Y-95198300D01*
X167694746Y-95163683D01*
X167530811Y-95095779D01*
X167383273Y-94997197D01*
X167257803Y-94871727D01*
X167159221Y-94724189D01*
X167091317Y-94560254D01*
X167056700Y-94386221D01*
X167056700Y-94208779D01*
X167091317Y-94034746D01*
X167159221Y-93870811D01*
X167257803Y-93723273D01*
X167383273Y-93597803D01*
X167530811Y-93499221D01*
X167694746Y-93431317D01*
X167868779Y-93396700D01*
X168046221Y-93396700D01*
X168220254Y-93431317D01*
G37*
G36*
X180017052Y-92980124D02*
G01*
X180062737Y-92993982D01*
X180104833Y-93016483D01*
X180141734Y-93046766D01*
X180172017Y-93083667D01*
X180194518Y-93125763D01*
X180208376Y-93171448D01*
X180213300Y-93221442D01*
X180213300Y-94230558D01*
X180208376Y-94280552D01*
X180194518Y-94326237D01*
X180172017Y-94368333D01*
X180141734Y-94405234D01*
X180104833Y-94435517D01*
X180062737Y-94458018D01*
X180017052Y-94471876D01*
X179967058Y-94476800D01*
X179382942Y-94476800D01*
X179332948Y-94471876D01*
X179287263Y-94458018D01*
X179245167Y-94435517D01*
X179208266Y-94405234D01*
X179177983Y-94368333D01*
X179155482Y-94326237D01*
X179141624Y-94280552D01*
X179136700Y-94230558D01*
X179136700Y-93221442D01*
X179141624Y-93171448D01*
X179155482Y-93125763D01*
X179177983Y-93083667D01*
X179208266Y-93046766D01*
X179245167Y-93016483D01*
X179287263Y-92993982D01*
X179332948Y-92980124D01*
X179382942Y-92975200D01*
X179967058Y-92975200D01*
X180017052Y-92980124D01*
G37*
G36*
X178142052Y-92980124D02*
G01*
X178187737Y-92993982D01*
X178229833Y-93016483D01*
X178266734Y-93046766D01*
X178297017Y-93083667D01*
X178319518Y-93125763D01*
X178333376Y-93171448D01*
X178338300Y-93221442D01*
X178338300Y-94230558D01*
X178333376Y-94280552D01*
X178319518Y-94326237D01*
X178297017Y-94368333D01*
X178266734Y-94405234D01*
X178229833Y-94435517D01*
X178187737Y-94458018D01*
X178142052Y-94471876D01*
X178092058Y-94476800D01*
X177507942Y-94476800D01*
X177457948Y-94471876D01*
X177412263Y-94458018D01*
X177370167Y-94435517D01*
X177333266Y-94405234D01*
X177302983Y-94368333D01*
X177280482Y-94326237D01*
X177266624Y-94280552D01*
X177261700Y-94230558D01*
X177261700Y-93221442D01*
X177266624Y-93171448D01*
X177280482Y-93125763D01*
X177302983Y-93083667D01*
X177333266Y-93046766D01*
X177370167Y-93016483D01*
X177412263Y-92993982D01*
X177457948Y-92980124D01*
X177507942Y-92975200D01*
X178092058Y-92975200D01*
X178142052Y-92980124D01*
G37*
G36*
X197733674Y-93141143D02*
G01*
X197774667Y-93153578D01*
X197812448Y-93173773D01*
X197845556Y-93200944D01*
X197872727Y-93234052D01*
X197892922Y-93271833D01*
X197905357Y-93312826D01*
X197909800Y-93357941D01*
X197909800Y-93967059D01*
X197905357Y-94012174D01*
X197892922Y-94053167D01*
X197872727Y-94090948D01*
X197845556Y-94124056D01*
X197812448Y-94151227D01*
X197774667Y-94171422D01*
X197733674Y-94183857D01*
X197688559Y-94188300D01*
X197154441Y-94188300D01*
X197109326Y-94183857D01*
X197068333Y-94171422D01*
X197030552Y-94151227D01*
X196997444Y-94124056D01*
X196970273Y-94090948D01*
X196950078Y-94053167D01*
X196937643Y-94012174D01*
X196933200Y-93967059D01*
X196933200Y-93357941D01*
X196937643Y-93312826D01*
X196950078Y-93271833D01*
X196970273Y-93234052D01*
X196997444Y-93200944D01*
X197030552Y-93173773D01*
X197068333Y-93153578D01*
X197109326Y-93141143D01*
X197154441Y-93136700D01*
X197688559Y-93136700D01*
X197733674Y-93141143D01*
G37*
G36*
X199308674Y-93141143D02*
G01*
X199349667Y-93153578D01*
X199387448Y-93173773D01*
X199420556Y-93200944D01*
X199447727Y-93234052D01*
X199467922Y-93271833D01*
X199480357Y-93312826D01*
X199484800Y-93357941D01*
X199484800Y-93967059D01*
X199480357Y-94012174D01*
X199467922Y-94053167D01*
X199447727Y-94090948D01*
X199420556Y-94124056D01*
X199387448Y-94151227D01*
X199349667Y-94171422D01*
X199308674Y-94183857D01*
X199263559Y-94188300D01*
X198729441Y-94188300D01*
X198684326Y-94183857D01*
X198643333Y-94171422D01*
X198605552Y-94151227D01*
X198572444Y-94124056D01*
X198545273Y-94090948D01*
X198525078Y-94053167D01*
X198512643Y-94012174D01*
X198508200Y-93967059D01*
X198508200Y-93357941D01*
X198512643Y-93312826D01*
X198525078Y-93271833D01*
X198545273Y-93234052D01*
X198572444Y-93200944D01*
X198605552Y-93173773D01*
X198643333Y-93153578D01*
X198684326Y-93141143D01*
X198729441Y-93136700D01*
X199263559Y-93136700D01*
X199308674Y-93141143D01*
G37*
G36*
X168220254Y-90891317D02*
G01*
X168384189Y-90959221D01*
X168531727Y-91057803D01*
X168657197Y-91183273D01*
X168755779Y-91330811D01*
X168823683Y-91494746D01*
X168858300Y-91668779D01*
X168858300Y-91846221D01*
X168823683Y-92020254D01*
X168755779Y-92184189D01*
X168657197Y-92331727D01*
X168531727Y-92457197D01*
X168384189Y-92555779D01*
X168220254Y-92623683D01*
X168046221Y-92658300D01*
X167868779Y-92658300D01*
X167694746Y-92623683D01*
X167530811Y-92555779D01*
X167383273Y-92457197D01*
X167257803Y-92331727D01*
X167159221Y-92184189D01*
X167091317Y-92020254D01*
X167056700Y-91846221D01*
X167056700Y-91668779D01*
X167091317Y-91494746D01*
X167159221Y-91330811D01*
X167257803Y-91183273D01*
X167383273Y-91057803D01*
X167530811Y-90959221D01*
X167694746Y-90891317D01*
X167868779Y-90856700D01*
X168046221Y-90856700D01*
X168220254Y-90891317D01*
G37*
G36*
X186039800Y-92100800D02*
G01*
X184488200Y-92100800D01*
X184488200Y-85699200D01*
X186039800Y-85699200D01*
X186039800Y-92100800D01*
G37*
G36*
X191939800Y-92100800D02*
G01*
X190388200Y-92100800D01*
X190388200Y-85699200D01*
X191939800Y-85699200D01*
X191939800Y-92100800D01*
G37*
G36*
X201670674Y-89839143D02*
G01*
X201711667Y-89851578D01*
X201749448Y-89871773D01*
X201782556Y-89898944D01*
X201809727Y-89932052D01*
X201829922Y-89969833D01*
X201842357Y-90010826D01*
X201846800Y-90055941D01*
X201846800Y-90665059D01*
X201842357Y-90710174D01*
X201829922Y-90751167D01*
X201809727Y-90788948D01*
X201782556Y-90822056D01*
X201749448Y-90849227D01*
X201711667Y-90869422D01*
X201670674Y-90881857D01*
X201625559Y-90886300D01*
X201091441Y-90886300D01*
X201046326Y-90881857D01*
X201005333Y-90869422D01*
X200967552Y-90849227D01*
X200934444Y-90822056D01*
X200907273Y-90788948D01*
X200887078Y-90751167D01*
X200874643Y-90710174D01*
X200870200Y-90665059D01*
X200870200Y-90055941D01*
X200874643Y-90010826D01*
X200887078Y-89969833D01*
X200907273Y-89932052D01*
X200934444Y-89898944D01*
X200967552Y-89871773D01*
X201005333Y-89851578D01*
X201046326Y-89839143D01*
X201091441Y-89834700D01*
X201625559Y-89834700D01*
X201670674Y-89839143D01*
G37*
G36*
X203245674Y-89839143D02*
G01*
X203286667Y-89851578D01*
X203324448Y-89871773D01*
X203357556Y-89898944D01*
X203384727Y-89932052D01*
X203404922Y-89969833D01*
X203417357Y-90010826D01*
X203421800Y-90055941D01*
X203421800Y-90665059D01*
X203417357Y-90710174D01*
X203404922Y-90751167D01*
X203384727Y-90788948D01*
X203357556Y-90822056D01*
X203324448Y-90849227D01*
X203286667Y-90869422D01*
X203245674Y-90881857D01*
X203200559Y-90886300D01*
X202666441Y-90886300D01*
X202621326Y-90881857D01*
X202580333Y-90869422D01*
X202542552Y-90849227D01*
X202509444Y-90822056D01*
X202482273Y-90788948D01*
X202462078Y-90751167D01*
X202449643Y-90710174D01*
X202445200Y-90665059D01*
X202445200Y-90055941D01*
X202449643Y-90010826D01*
X202462078Y-89969833D01*
X202482273Y-89932052D01*
X202509444Y-89898944D01*
X202542552Y-89871773D01*
X202580333Y-89851578D01*
X202621326Y-89839143D01*
X202666441Y-89834700D01*
X203200559Y-89834700D01*
X203245674Y-89839143D01*
G37*
G36*
X178925174Y-89648643D02*
G01*
X178966167Y-89661078D01*
X179003948Y-89681273D01*
X179037056Y-89708444D01*
X179064227Y-89741552D01*
X179084422Y-89779333D01*
X179096857Y-89820326D01*
X179101300Y-89865441D01*
X179101300Y-90474559D01*
X179096857Y-90519674D01*
X179084422Y-90560667D01*
X179064227Y-90598448D01*
X179037056Y-90631556D01*
X179003948Y-90658727D01*
X178966167Y-90678922D01*
X178925174Y-90691357D01*
X178880059Y-90695800D01*
X178345941Y-90695800D01*
X178300826Y-90691357D01*
X178259833Y-90678922D01*
X178222052Y-90658727D01*
X178188944Y-90631556D01*
X178161773Y-90598448D01*
X178141578Y-90560667D01*
X178129143Y-90519674D01*
X178124700Y-90474559D01*
X178124700Y-89865441D01*
X178129143Y-89820326D01*
X178141578Y-89779333D01*
X178161773Y-89741552D01*
X178188944Y-89708444D01*
X178222052Y-89681273D01*
X178259833Y-89661078D01*
X178300826Y-89648643D01*
X178345941Y-89644200D01*
X178880059Y-89644200D01*
X178925174Y-89648643D01*
G37*
G36*
X177350174Y-89648643D02*
G01*
X177391167Y-89661078D01*
X177428948Y-89681273D01*
X177462056Y-89708444D01*
X177489227Y-89741552D01*
X177509422Y-89779333D01*
X177521857Y-89820326D01*
X177526300Y-89865441D01*
X177526300Y-90474559D01*
X177521857Y-90519674D01*
X177509422Y-90560667D01*
X177489227Y-90598448D01*
X177462056Y-90631556D01*
X177428948Y-90658727D01*
X177391167Y-90678922D01*
X177350174Y-90691357D01*
X177305059Y-90695800D01*
X176770941Y-90695800D01*
X176725826Y-90691357D01*
X176684833Y-90678922D01*
X176647052Y-90658727D01*
X176613944Y-90631556D01*
X176586773Y-90598448D01*
X176566578Y-90560667D01*
X176554143Y-90519674D01*
X176549700Y-90474559D01*
X176549700Y-89865441D01*
X176554143Y-89820326D01*
X176566578Y-89779333D01*
X176586773Y-89741552D01*
X176613944Y-89708444D01*
X176647052Y-89681273D01*
X176684833Y-89661078D01*
X176725826Y-89648643D01*
X176770941Y-89644200D01*
X177305059Y-89644200D01*
X177350174Y-89648643D01*
G37*
G36*
X168220254Y-88351317D02*
G01*
X168384189Y-88419221D01*
X168531727Y-88517803D01*
X168657197Y-88643273D01*
X168755779Y-88790811D01*
X168823683Y-88954746D01*
X168858300Y-89128779D01*
X168858300Y-89306221D01*
X168823683Y-89480254D01*
X168755779Y-89644189D01*
X168657197Y-89791727D01*
X168531727Y-89917197D01*
X168384189Y-90015779D01*
X168220254Y-90083683D01*
X168046221Y-90118300D01*
X167868779Y-90118300D01*
X167694746Y-90083683D01*
X167530811Y-90015779D01*
X167383273Y-89917197D01*
X167257803Y-89791727D01*
X167159221Y-89644189D01*
X167091317Y-89480254D01*
X167056700Y-89306221D01*
X167056700Y-89128779D01*
X167091317Y-88954746D01*
X167159221Y-88790811D01*
X167257803Y-88643273D01*
X167383273Y-88517803D01*
X167530811Y-88419221D01*
X167694746Y-88351317D01*
X167868779Y-88316700D01*
X168046221Y-88316700D01*
X168220254Y-88351317D01*
G37*
G36*
X168858300Y-87578300D02*
G01*
X167056700Y-87578300D01*
X167056700Y-85776700D01*
X168858300Y-85776700D01*
X168858300Y-87578300D01*
G37*
G36*
X214053052Y-85550624D02*
G01*
X214098737Y-85564482D01*
X214140833Y-85586983D01*
X214177734Y-85617266D01*
X214208017Y-85654167D01*
X214230518Y-85696263D01*
X214244376Y-85741948D01*
X214249300Y-85791942D01*
X214249300Y-86801058D01*
X214244376Y-86851052D01*
X214230518Y-86896737D01*
X214208017Y-86938833D01*
X214177734Y-86975734D01*
X214140833Y-87006017D01*
X214098737Y-87028518D01*
X214053052Y-87042376D01*
X214003058Y-87047300D01*
X213418942Y-87047300D01*
X213368948Y-87042376D01*
X213323263Y-87028518D01*
X213281167Y-87006017D01*
X213244266Y-86975734D01*
X213213983Y-86938833D01*
X213191482Y-86896737D01*
X213177624Y-86851052D01*
X213172700Y-86801058D01*
X213172700Y-85791942D01*
X213177624Y-85741948D01*
X213191482Y-85696263D01*
X213213983Y-85654167D01*
X213244266Y-85617266D01*
X213281167Y-85586983D01*
X213323263Y-85564482D01*
X213368948Y-85550624D01*
X213418942Y-85545700D01*
X214003058Y-85545700D01*
X214053052Y-85550624D01*
G37*
G36*
X212178052Y-85550624D02*
G01*
X212223737Y-85564482D01*
X212265833Y-85586983D01*
X212302734Y-85617266D01*
X212333017Y-85654167D01*
X212355518Y-85696263D01*
X212369376Y-85741948D01*
X212374300Y-85791942D01*
X212374300Y-86801058D01*
X212369376Y-86851052D01*
X212355518Y-86896737D01*
X212333017Y-86938833D01*
X212302734Y-86975734D01*
X212265833Y-87006017D01*
X212223737Y-87028518D01*
X212178052Y-87042376D01*
X212128058Y-87047300D01*
X211543942Y-87047300D01*
X211493948Y-87042376D01*
X211448263Y-87028518D01*
X211406167Y-87006017D01*
X211369266Y-86975734D01*
X211338983Y-86938833D01*
X211316482Y-86896737D01*
X211302624Y-86851052D01*
X211297700Y-86801058D01*
X211297700Y-85791942D01*
X211302624Y-85741948D01*
X211316482Y-85696263D01*
X211338983Y-85654167D01*
X211369266Y-85617266D01*
X211406167Y-85586983D01*
X211448263Y-85564482D01*
X211493948Y-85550624D01*
X211543942Y-85545700D01*
X212128058Y-85545700D01*
X212178052Y-85550624D01*
G37*
G36*
X179179174Y-85838643D02*
G01*
X179220167Y-85851078D01*
X179257948Y-85871273D01*
X179291056Y-85898444D01*
X179318227Y-85931552D01*
X179338422Y-85969333D01*
X179350857Y-86010326D01*
X179355300Y-86055441D01*
X179355300Y-86664559D01*
X179350857Y-86709674D01*
X179338422Y-86750667D01*
X179318227Y-86788448D01*
X179291056Y-86821556D01*
X179257948Y-86848727D01*
X179220167Y-86868922D01*
X179179174Y-86881357D01*
X179134059Y-86885800D01*
X178599941Y-86885800D01*
X178554826Y-86881357D01*
X178513833Y-86868922D01*
X178476052Y-86848727D01*
X178442944Y-86821556D01*
X178415773Y-86788448D01*
X178395578Y-86750667D01*
X178383143Y-86709674D01*
X178378700Y-86664559D01*
X178378700Y-86055441D01*
X178383143Y-86010326D01*
X178395578Y-85969333D01*
X178415773Y-85931552D01*
X178442944Y-85898444D01*
X178476052Y-85871273D01*
X178513833Y-85851078D01*
X178554826Y-85838643D01*
X178599941Y-85834200D01*
X179134059Y-85834200D01*
X179179174Y-85838643D01*
G37*
G36*
X177604174Y-85838643D02*
G01*
X177645167Y-85851078D01*
X177682948Y-85871273D01*
X177716056Y-85898444D01*
X177743227Y-85931552D01*
X177763422Y-85969333D01*
X177775857Y-86010326D01*
X177780300Y-86055441D01*
X177780300Y-86664559D01*
X177775857Y-86709674D01*
X177763422Y-86750667D01*
X177743227Y-86788448D01*
X177716056Y-86821556D01*
X177682948Y-86848727D01*
X177645167Y-86868922D01*
X177604174Y-86881357D01*
X177559059Y-86885800D01*
X177024941Y-86885800D01*
X176979826Y-86881357D01*
X176938833Y-86868922D01*
X176901052Y-86848727D01*
X176867944Y-86821556D01*
X176840773Y-86788448D01*
X176820578Y-86750667D01*
X176808143Y-86709674D01*
X176803700Y-86664559D01*
X176803700Y-86055441D01*
X176808143Y-86010326D01*
X176820578Y-85969333D01*
X176840773Y-85931552D01*
X176867944Y-85898444D01*
X176901052Y-85871273D01*
X176938833Y-85851078D01*
X176979826Y-85838643D01*
X177024941Y-85834200D01*
X177559059Y-85834200D01*
X177604174Y-85838643D01*
G37*
G36*
X200197674Y-83743143D02*
G01*
X200238667Y-83755578D01*
X200276448Y-83775773D01*
X200309556Y-83802944D01*
X200336727Y-83836052D01*
X200356922Y-83873833D01*
X200369357Y-83914826D01*
X200373800Y-83959941D01*
X200373800Y-84569059D01*
X200369357Y-84614174D01*
X200356922Y-84655167D01*
X200336727Y-84692948D01*
X200309556Y-84726056D01*
X200276448Y-84753227D01*
X200238667Y-84773422D01*
X200197674Y-84785857D01*
X200152559Y-84790300D01*
X199618441Y-84790300D01*
X199573326Y-84785857D01*
X199532333Y-84773422D01*
X199494552Y-84753227D01*
X199461444Y-84726056D01*
X199434273Y-84692948D01*
X199414078Y-84655167D01*
X199401643Y-84614174D01*
X199397200Y-84569059D01*
X199397200Y-83959941D01*
X199401643Y-83914826D01*
X199414078Y-83873833D01*
X199434273Y-83836052D01*
X199461444Y-83802944D01*
X199494552Y-83775773D01*
X199532333Y-83755578D01*
X199573326Y-83743143D01*
X199618441Y-83738700D01*
X200152559Y-83738700D01*
X200197674Y-83743143D01*
G37*
G36*
X198622674Y-83743143D02*
G01*
X198663667Y-83755578D01*
X198701448Y-83775773D01*
X198734556Y-83802944D01*
X198761727Y-83836052D01*
X198781922Y-83873833D01*
X198794357Y-83914826D01*
X198798800Y-83959941D01*
X198798800Y-84569059D01*
X198794357Y-84614174D01*
X198781922Y-84655167D01*
X198761727Y-84692948D01*
X198734556Y-84726056D01*
X198701448Y-84753227D01*
X198663667Y-84773422D01*
X198622674Y-84785857D01*
X198577559Y-84790300D01*
X198043441Y-84790300D01*
X197998326Y-84785857D01*
X197957333Y-84773422D01*
X197919552Y-84753227D01*
X197886444Y-84726056D01*
X197859273Y-84692948D01*
X197839078Y-84655167D01*
X197826643Y-84614174D01*
X197822200Y-84569059D01*
X197822200Y-83959941D01*
X197826643Y-83914826D01*
X197839078Y-83873833D01*
X197859273Y-83836052D01*
X197886444Y-83802944D01*
X197919552Y-83775773D01*
X197957333Y-83755578D01*
X197998326Y-83743143D01*
X198043441Y-83738700D01*
X198577559Y-83738700D01*
X198622674Y-83743143D01*
G37*
G36*
X178911674Y-83387143D02*
G01*
X178952667Y-83399578D01*
X178990448Y-83419773D01*
X179023556Y-83446944D01*
X179050727Y-83480052D01*
X179070922Y-83517833D01*
X179083357Y-83558826D01*
X179087800Y-83603941D01*
X179087800Y-84138059D01*
X179083357Y-84183174D01*
X179070922Y-84224167D01*
X179050727Y-84261948D01*
X179023556Y-84295056D01*
X178990448Y-84322227D01*
X178952667Y-84342422D01*
X178911674Y-84354857D01*
X178866559Y-84359300D01*
X178257441Y-84359300D01*
X178212326Y-84354857D01*
X178171333Y-84342422D01*
X178133552Y-84322227D01*
X178100444Y-84295056D01*
X178073273Y-84261948D01*
X178053078Y-84224167D01*
X178040643Y-84183174D01*
X178036200Y-84138059D01*
X178036200Y-83603941D01*
X178040643Y-83558826D01*
X178053078Y-83517833D01*
X178073273Y-83480052D01*
X178100444Y-83446944D01*
X178133552Y-83419773D01*
X178171333Y-83399578D01*
X178212326Y-83387143D01*
X178257441Y-83382700D01*
X178866559Y-83382700D01*
X178911674Y-83387143D01*
G37*
G36*
X212566674Y-83196643D02*
G01*
X212607667Y-83209078D01*
X212645448Y-83229273D01*
X212678556Y-83256444D01*
X212705727Y-83289552D01*
X212725922Y-83327333D01*
X212738357Y-83368326D01*
X212742800Y-83413441D01*
X212742800Y-83947559D01*
X212738357Y-83992674D01*
X212725922Y-84033667D01*
X212705727Y-84071448D01*
X212678556Y-84104556D01*
X212645448Y-84131727D01*
X212607667Y-84151922D01*
X212566674Y-84164357D01*
X212521559Y-84168800D01*
X211912441Y-84168800D01*
X211867326Y-84164357D01*
X211826333Y-84151922D01*
X211788552Y-84131727D01*
X211755444Y-84104556D01*
X211728273Y-84071448D01*
X211708078Y-84033667D01*
X211695643Y-83992674D01*
X211691200Y-83947559D01*
X211691200Y-83413441D01*
X211695643Y-83368326D01*
X211708078Y-83327333D01*
X211728273Y-83289552D01*
X211755444Y-83256444D01*
X211788552Y-83229273D01*
X211826333Y-83209078D01*
X211867326Y-83196643D01*
X211912441Y-83192200D01*
X212521559Y-83192200D01*
X212566674Y-83196643D01*
G37*
G36*
X178911674Y-81812143D02*
G01*
X178952667Y-81824578D01*
X178990448Y-81844773D01*
X179023556Y-81871944D01*
X179050727Y-81905052D01*
X179070922Y-81942833D01*
X179083357Y-81983826D01*
X179087800Y-82028941D01*
X179087800Y-82563059D01*
X179083357Y-82608174D01*
X179070922Y-82649167D01*
X179050727Y-82686948D01*
X179023556Y-82720056D01*
X178990448Y-82747227D01*
X178952667Y-82767422D01*
X178911674Y-82779857D01*
X178866559Y-82784300D01*
X178257441Y-82784300D01*
X178212326Y-82779857D01*
X178171333Y-82767422D01*
X178133552Y-82747227D01*
X178100444Y-82720056D01*
X178073273Y-82686948D01*
X178053078Y-82649167D01*
X178040643Y-82608174D01*
X178036200Y-82563059D01*
X178036200Y-82028941D01*
X178040643Y-81983826D01*
X178053078Y-81942833D01*
X178073273Y-81905052D01*
X178100444Y-81871944D01*
X178133552Y-81844773D01*
X178171333Y-81824578D01*
X178212326Y-81812143D01*
X178257441Y-81807700D01*
X178866559Y-81807700D01*
X178911674Y-81812143D01*
G37*
G36*
X212566674Y-81621643D02*
G01*
X212607667Y-81634078D01*
X212645448Y-81654273D01*
X212678556Y-81681444D01*
X212705727Y-81714552D01*
X212725922Y-81752333D01*
X212738357Y-81793326D01*
X212742800Y-81838441D01*
X212742800Y-82372559D01*
X212738357Y-82417674D01*
X212725922Y-82458667D01*
X212705727Y-82496448D01*
X212678556Y-82529556D01*
X212645448Y-82556727D01*
X212607667Y-82576922D01*
X212566674Y-82589357D01*
X212521559Y-82593800D01*
X211912441Y-82593800D01*
X211867326Y-82589357D01*
X211826333Y-82576922D01*
X211788552Y-82556727D01*
X211755444Y-82529556D01*
X211728273Y-82496448D01*
X211708078Y-82458667D01*
X211695643Y-82417674D01*
X211691200Y-82372559D01*
X211691200Y-81838441D01*
X211695643Y-81793326D01*
X211708078Y-81752333D01*
X211728273Y-81714552D01*
X211755444Y-81681444D01*
X211788552Y-81654273D01*
X211826333Y-81634078D01*
X211867326Y-81621643D01*
X211912441Y-81617200D01*
X212521559Y-81617200D01*
X212566674Y-81621643D01*
G37*
G36*
X198559174Y-81266643D02*
G01*
X198600167Y-81279078D01*
X198637948Y-81299273D01*
X198671056Y-81326444D01*
X198698227Y-81359552D01*
X198718422Y-81397333D01*
X198730857Y-81438326D01*
X198735300Y-81483441D01*
X198735300Y-82092559D01*
X198730857Y-82137674D01*
X198718422Y-82178667D01*
X198698227Y-82216448D01*
X198671056Y-82249556D01*
X198637948Y-82276727D01*
X198600167Y-82296922D01*
X198559174Y-82309357D01*
X198514059Y-82313800D01*
X197979941Y-82313800D01*
X197934826Y-82309357D01*
X197893833Y-82296922D01*
X197856052Y-82276727D01*
X197822944Y-82249556D01*
X197795773Y-82216448D01*
X197775578Y-82178667D01*
X197763143Y-82137674D01*
X197758700Y-82092559D01*
X197758700Y-81483441D01*
X197763143Y-81438326D01*
X197775578Y-81397333D01*
X197795773Y-81359552D01*
X197822944Y-81326444D01*
X197856052Y-81299273D01*
X197893833Y-81279078D01*
X197934826Y-81266643D01*
X197979941Y-81262200D01*
X198514059Y-81262200D01*
X198559174Y-81266643D01*
G37*
G36*
X200134174Y-81266643D02*
G01*
X200175167Y-81279078D01*
X200212948Y-81299273D01*
X200246056Y-81326444D01*
X200273227Y-81359552D01*
X200293422Y-81397333D01*
X200305857Y-81438326D01*
X200310300Y-81483441D01*
X200310300Y-82092559D01*
X200305857Y-82137674D01*
X200293422Y-82178667D01*
X200273227Y-82216448D01*
X200246056Y-82249556D01*
X200212948Y-82276727D01*
X200175167Y-82296922D01*
X200134174Y-82309357D01*
X200089059Y-82313800D01*
X199554941Y-82313800D01*
X199509826Y-82309357D01*
X199468833Y-82296922D01*
X199431052Y-82276727D01*
X199397944Y-82249556D01*
X199370773Y-82216448D01*
X199350578Y-82178667D01*
X199338143Y-82137674D01*
X199333700Y-82092559D01*
X199333700Y-81483441D01*
X199338143Y-81438326D01*
X199350578Y-81397333D01*
X199370773Y-81359552D01*
X199397944Y-81326444D01*
X199431052Y-81299273D01*
X199468833Y-81279078D01*
X199509826Y-81266643D01*
X199554941Y-81262200D01*
X200089059Y-81262200D01*
X200134174Y-81266643D01*
G37*
G36*
X168701674Y-80695143D02*
G01*
X168742667Y-80707578D01*
X168780448Y-80727773D01*
X168813556Y-80754944D01*
X168840727Y-80788052D01*
X168860922Y-80825833D01*
X168873357Y-80866826D01*
X168877800Y-80911941D01*
X168877800Y-81521059D01*
X168873357Y-81566174D01*
X168860922Y-81607167D01*
X168840727Y-81644948D01*
X168813556Y-81678056D01*
X168780448Y-81705227D01*
X168742667Y-81725422D01*
X168701674Y-81737857D01*
X168656559Y-81742300D01*
X168122441Y-81742300D01*
X168077326Y-81737857D01*
X168036333Y-81725422D01*
X167998552Y-81705227D01*
X167965444Y-81678056D01*
X167938273Y-81644948D01*
X167918078Y-81607167D01*
X167905643Y-81566174D01*
X167901200Y-81521059D01*
X167901200Y-80911941D01*
X167905643Y-80866826D01*
X167918078Y-80825833D01*
X167938273Y-80788052D01*
X167965444Y-80754944D01*
X167998552Y-80727773D01*
X168036333Y-80707578D01*
X168077326Y-80695143D01*
X168122441Y-80690700D01*
X168656559Y-80690700D01*
X168701674Y-80695143D01*
G37*
G36*
X167126674Y-80695143D02*
G01*
X167167667Y-80707578D01*
X167205448Y-80727773D01*
X167238556Y-80754944D01*
X167265727Y-80788052D01*
X167285922Y-80825833D01*
X167298357Y-80866826D01*
X167302800Y-80911941D01*
X167302800Y-81521059D01*
X167298357Y-81566174D01*
X167285922Y-81607167D01*
X167265727Y-81644948D01*
X167238556Y-81678056D01*
X167205448Y-81705227D01*
X167167667Y-81725422D01*
X167126674Y-81737857D01*
X167081559Y-81742300D01*
X166547441Y-81742300D01*
X166502326Y-81737857D01*
X166461333Y-81725422D01*
X166423552Y-81705227D01*
X166390444Y-81678056D01*
X166363273Y-81644948D01*
X166343078Y-81607167D01*
X166330643Y-81566174D01*
X166326200Y-81521059D01*
X166326200Y-80911941D01*
X166330643Y-80866826D01*
X166343078Y-80825833D01*
X166363273Y-80788052D01*
X166390444Y-80754944D01*
X166423552Y-80727773D01*
X166461333Y-80707578D01*
X166502326Y-80695143D01*
X166547441Y-80690700D01*
X167081559Y-80690700D01*
X167126674Y-80695143D01*
G37*
G36*
X173857300Y-79642300D02*
G01*
X173355700Y-79642300D01*
X173355700Y-78790700D01*
X173857300Y-78790700D01*
X173857300Y-79642300D01*
G37*
G36*
X172907300Y-79642300D02*
G01*
X172405700Y-79642300D01*
X172405700Y-78790700D01*
X172907300Y-78790700D01*
X172907300Y-79642300D01*
G37*
G36*
X171957300Y-79642300D02*
G01*
X171455700Y-79642300D01*
X171455700Y-78790700D01*
X171957300Y-78790700D01*
X171957300Y-79642300D01*
G37*
G36*
X182828800Y-78904300D02*
G01*
X181727200Y-78904300D01*
X181727200Y-78702700D01*
X182828800Y-78702700D01*
X182828800Y-78904300D01*
G37*
G36*
X177428800Y-78904300D02*
G01*
X176327200Y-78904300D01*
X176327200Y-78702700D01*
X177428800Y-78702700D01*
X177428800Y-78904300D01*
G37*
G36*
X182828800Y-78254300D02*
G01*
X181727200Y-78254300D01*
X181727200Y-78052700D01*
X182828800Y-78052700D01*
X182828800Y-78254300D01*
G37*
G36*
X177428800Y-78254300D02*
G01*
X176327200Y-78254300D01*
X176327200Y-78052700D01*
X177428800Y-78052700D01*
X177428800Y-78254300D01*
G37*
G36*
X182828800Y-77604300D02*
G01*
X181727200Y-77604300D01*
X181727200Y-77402700D01*
X182828800Y-77402700D01*
X182828800Y-77604300D01*
G37*
G36*
X177428800Y-77604300D02*
G01*
X176327200Y-77604300D01*
X176327200Y-77402700D01*
X177428800Y-77402700D01*
X177428800Y-77604300D01*
G37*
G36*
X172832300Y-77292300D02*
G01*
X172480700Y-77292300D01*
X172480700Y-76440700D01*
X172832300Y-76440700D01*
X172832300Y-77292300D01*
G37*
G36*
X171882300Y-77292300D02*
G01*
X171530700Y-77292300D01*
X171530700Y-76440700D01*
X171882300Y-76440700D01*
X171882300Y-77292300D01*
G37*
G36*
X173782300Y-77292300D02*
G01*
X173430700Y-77292300D01*
X173430700Y-76440700D01*
X173782300Y-76440700D01*
X173782300Y-77292300D01*
G37*
G36*
X182828800Y-76954300D02*
G01*
X181727200Y-76954300D01*
X181727200Y-76752700D01*
X182828800Y-76752700D01*
X182828800Y-76954300D01*
G37*
G36*
X177428800Y-76954300D02*
G01*
X176327200Y-76954300D01*
X176327200Y-76752700D01*
X177428800Y-76752700D01*
X177428800Y-76954300D01*
G37*
G36*
X190229086Y-73856335D02*
G01*
X190377003Y-73917604D01*
X190510134Y-74006560D01*
X190623340Y-74119766D01*
X190712296Y-74252897D01*
X190773565Y-74400814D01*
X190804800Y-74557846D01*
X190804800Y-74717954D01*
X190773565Y-74874986D01*
X190712296Y-75022903D01*
X190623340Y-75156034D01*
X190510134Y-75269240D01*
X190377003Y-75358196D01*
X190229086Y-75419465D01*
X190072054Y-75450700D01*
X189911946Y-75450700D01*
X189754914Y-75419465D01*
X189606997Y-75358196D01*
X189473866Y-75269240D01*
X189360660Y-75156034D01*
X189271704Y-75022903D01*
X189210435Y-74874986D01*
X189179200Y-74717954D01*
X189179200Y-74557846D01*
X189210435Y-74400814D01*
X189271704Y-74252897D01*
X189360660Y-74119766D01*
X189473866Y-74006560D01*
X189606997Y-73917604D01*
X189754914Y-73856335D01*
X189911946Y-73825100D01*
X190072054Y-73825100D01*
X190229086Y-73856335D01*
G37*
G36*
X179445674Y-73964143D02*
G01*
X179486667Y-73976578D01*
X179524448Y-73996773D01*
X179557556Y-74023944D01*
X179584727Y-74057052D01*
X179604922Y-74094833D01*
X179617357Y-74135826D01*
X179621800Y-74180941D01*
X179621800Y-74790059D01*
X179617357Y-74835174D01*
X179604922Y-74876167D01*
X179584727Y-74913948D01*
X179557556Y-74947056D01*
X179524448Y-74974227D01*
X179486667Y-74994422D01*
X179445674Y-75006857D01*
X179400559Y-75011300D01*
X178866441Y-75011300D01*
X178821326Y-75006857D01*
X178780333Y-74994422D01*
X178742552Y-74974227D01*
X178709444Y-74947056D01*
X178682273Y-74913948D01*
X178662078Y-74876167D01*
X178649643Y-74835174D01*
X178645200Y-74790059D01*
X178645200Y-74180941D01*
X178649643Y-74135826D01*
X178662078Y-74094833D01*
X178682273Y-74057052D01*
X178709444Y-74023944D01*
X178742552Y-73996773D01*
X178780333Y-73976578D01*
X178821326Y-73964143D01*
X178866441Y-73959700D01*
X179400559Y-73959700D01*
X179445674Y-73964143D01*
G37*
G36*
X181020674Y-73964143D02*
G01*
X181061667Y-73976578D01*
X181099448Y-73996773D01*
X181132556Y-74023944D01*
X181159727Y-74057052D01*
X181179922Y-74094833D01*
X181192357Y-74135826D01*
X181196800Y-74180941D01*
X181196800Y-74790059D01*
X181192357Y-74835174D01*
X181179922Y-74876167D01*
X181159727Y-74913948D01*
X181132556Y-74947056D01*
X181099448Y-74974227D01*
X181061667Y-74994422D01*
X181020674Y-75006857D01*
X180975559Y-75011300D01*
X180441441Y-75011300D01*
X180396326Y-75006857D01*
X180355333Y-74994422D01*
X180317552Y-74974227D01*
X180284444Y-74947056D01*
X180257273Y-74913948D01*
X180237078Y-74876167D01*
X180224643Y-74835174D01*
X180220200Y-74790059D01*
X180220200Y-74180941D01*
X180224643Y-74135826D01*
X180237078Y-74094833D01*
X180257273Y-74057052D01*
X180284444Y-74023944D01*
X180317552Y-73996773D01*
X180355333Y-73976578D01*
X180396326Y-73964143D01*
X180441441Y-73959700D01*
X180975559Y-73959700D01*
X181020674Y-73964143D01*
G37*
G36*
X198914174Y-73811143D02*
G01*
X198955167Y-73823578D01*
X198992948Y-73843773D01*
X199026056Y-73870944D01*
X199053227Y-73904052D01*
X199073422Y-73941833D01*
X199085857Y-73982826D01*
X199090300Y-74027941D01*
X199090300Y-74562059D01*
X199085857Y-74607174D01*
X199073422Y-74648167D01*
X199053227Y-74685948D01*
X199026056Y-74719056D01*
X198992948Y-74746227D01*
X198955167Y-74766422D01*
X198914174Y-74778857D01*
X198869059Y-74783300D01*
X198259941Y-74783300D01*
X198214826Y-74778857D01*
X198173833Y-74766422D01*
X198136052Y-74746227D01*
X198102944Y-74719056D01*
X198075773Y-74685948D01*
X198055578Y-74648167D01*
X198043143Y-74607174D01*
X198038700Y-74562059D01*
X198038700Y-74027941D01*
X198043143Y-73982826D01*
X198055578Y-73941833D01*
X198075773Y-73904052D01*
X198102944Y-73870944D01*
X198136052Y-73843773D01*
X198173833Y-73823578D01*
X198214826Y-73811143D01*
X198259941Y-73806700D01*
X198869059Y-73806700D01*
X198914174Y-73811143D01*
G37*
G36*
X207613674Y-73671643D02*
G01*
X207654667Y-73684078D01*
X207692448Y-73704273D01*
X207725556Y-73731444D01*
X207752727Y-73764552D01*
X207772922Y-73802333D01*
X207785357Y-73843326D01*
X207789800Y-73888441D01*
X207789800Y-74422559D01*
X207785357Y-74467674D01*
X207772922Y-74508667D01*
X207752727Y-74546448D01*
X207725556Y-74579556D01*
X207692448Y-74606727D01*
X207654667Y-74626922D01*
X207613674Y-74639357D01*
X207568559Y-74643800D01*
X206959441Y-74643800D01*
X206914326Y-74639357D01*
X206873333Y-74626922D01*
X206835552Y-74606727D01*
X206802444Y-74579556D01*
X206775273Y-74546448D01*
X206755078Y-74508667D01*
X206742643Y-74467674D01*
X206738200Y-74422559D01*
X206738200Y-73888441D01*
X206742643Y-73843326D01*
X206755078Y-73802333D01*
X206775273Y-73764552D01*
X206802444Y-73731444D01*
X206835552Y-73704273D01*
X206873333Y-73684078D01*
X206914326Y-73671643D01*
X206959441Y-73667200D01*
X207568559Y-73667200D01*
X207613674Y-73671643D01*
G37*
G36*
X202851174Y-73354143D02*
G01*
X202892167Y-73366578D01*
X202929948Y-73386773D01*
X202963056Y-73413944D01*
X202990227Y-73447052D01*
X203010422Y-73484833D01*
X203022857Y-73525826D01*
X203027300Y-73570941D01*
X203027300Y-74105059D01*
X203022857Y-74150174D01*
X203010422Y-74191167D01*
X202990227Y-74228948D01*
X202963056Y-74262056D01*
X202929948Y-74289227D01*
X202892167Y-74309422D01*
X202851174Y-74321857D01*
X202806059Y-74326300D01*
X202196941Y-74326300D01*
X202151826Y-74321857D01*
X202110833Y-74309422D01*
X202073052Y-74289227D01*
X202039944Y-74262056D01*
X202012773Y-74228948D01*
X201992578Y-74191167D01*
X201980143Y-74150174D01*
X201975700Y-74105059D01*
X201975700Y-73570941D01*
X201980143Y-73525826D01*
X201992578Y-73484833D01*
X202012773Y-73447052D01*
X202039944Y-73413944D01*
X202073052Y-73386773D01*
X202110833Y-73366578D01*
X202151826Y-73354143D01*
X202196941Y-73349700D01*
X202806059Y-73349700D01*
X202851174Y-73354143D01*
G37*
G36*
X198914174Y-72236143D02*
G01*
X198955167Y-72248578D01*
X198992948Y-72268773D01*
X199026056Y-72295944D01*
X199053227Y-72329052D01*
X199073422Y-72366833D01*
X199085857Y-72407826D01*
X199090300Y-72452941D01*
X199090300Y-72987059D01*
X199085857Y-73032174D01*
X199073422Y-73073167D01*
X199053227Y-73110948D01*
X199026056Y-73144056D01*
X198992948Y-73171227D01*
X198955167Y-73191422D01*
X198914174Y-73203857D01*
X198869059Y-73208300D01*
X198259941Y-73208300D01*
X198214826Y-73203857D01*
X198173833Y-73191422D01*
X198136052Y-73171227D01*
X198102944Y-73144056D01*
X198075773Y-73110948D01*
X198055578Y-73073167D01*
X198043143Y-73032174D01*
X198038700Y-72987059D01*
X198038700Y-72452941D01*
X198043143Y-72407826D01*
X198055578Y-72366833D01*
X198075773Y-72329052D01*
X198102944Y-72295944D01*
X198136052Y-72268773D01*
X198173833Y-72248578D01*
X198214826Y-72236143D01*
X198259941Y-72231700D01*
X198869059Y-72231700D01*
X198914174Y-72236143D01*
G37*
G36*
X207613674Y-72096643D02*
G01*
X207654667Y-72109078D01*
X207692448Y-72129273D01*
X207725556Y-72156444D01*
X207752727Y-72189552D01*
X207772922Y-72227333D01*
X207785357Y-72268326D01*
X207789800Y-72313441D01*
X207789800Y-72847559D01*
X207785357Y-72892674D01*
X207772922Y-72933667D01*
X207752727Y-72971448D01*
X207725556Y-73004556D01*
X207692448Y-73031727D01*
X207654667Y-73051922D01*
X207613674Y-73064357D01*
X207568559Y-73068800D01*
X206959441Y-73068800D01*
X206914326Y-73064357D01*
X206873333Y-73051922D01*
X206835552Y-73031727D01*
X206802444Y-73004556D01*
X206775273Y-72971448D01*
X206755078Y-72933667D01*
X206742643Y-72892674D01*
X206738200Y-72847559D01*
X206738200Y-72313441D01*
X206742643Y-72268326D01*
X206755078Y-72227333D01*
X206775273Y-72189552D01*
X206802444Y-72156444D01*
X206835552Y-72129273D01*
X206873333Y-72109078D01*
X206914326Y-72096643D01*
X206959441Y-72092200D01*
X207568559Y-72092200D01*
X207613674Y-72096643D01*
G37*
G36*
X175369174Y-71868643D02*
G01*
X175410167Y-71881078D01*
X175447948Y-71901273D01*
X175481056Y-71928444D01*
X175508227Y-71961552D01*
X175528422Y-71999333D01*
X175540857Y-72040326D01*
X175545300Y-72085441D01*
X175545300Y-72694559D01*
X175540857Y-72739674D01*
X175528422Y-72780667D01*
X175508227Y-72818448D01*
X175481056Y-72851556D01*
X175447948Y-72878727D01*
X175410167Y-72898922D01*
X175369174Y-72911357D01*
X175324059Y-72915800D01*
X174789941Y-72915800D01*
X174744826Y-72911357D01*
X174703833Y-72898922D01*
X174666052Y-72878727D01*
X174632944Y-72851556D01*
X174605773Y-72818448D01*
X174585578Y-72780667D01*
X174573143Y-72739674D01*
X174568700Y-72694559D01*
X174568700Y-72085441D01*
X174573143Y-72040326D01*
X174585578Y-71999333D01*
X174605773Y-71961552D01*
X174632944Y-71928444D01*
X174666052Y-71901273D01*
X174703833Y-71881078D01*
X174744826Y-71868643D01*
X174789941Y-71864200D01*
X175324059Y-71864200D01*
X175369174Y-71868643D01*
G37*
G36*
X170238174Y-71868643D02*
G01*
X170279167Y-71881078D01*
X170316948Y-71901273D01*
X170350056Y-71928444D01*
X170377227Y-71961552D01*
X170397422Y-71999333D01*
X170409857Y-72040326D01*
X170414300Y-72085441D01*
X170414300Y-72694559D01*
X170409857Y-72739674D01*
X170397422Y-72780667D01*
X170377227Y-72818448D01*
X170350056Y-72851556D01*
X170316948Y-72878727D01*
X170279167Y-72898922D01*
X170238174Y-72911357D01*
X170193059Y-72915800D01*
X169658941Y-72915800D01*
X169613826Y-72911357D01*
X169572833Y-72898922D01*
X169535052Y-72878727D01*
X169501944Y-72851556D01*
X169474773Y-72818448D01*
X169454578Y-72780667D01*
X169442143Y-72739674D01*
X169437700Y-72694559D01*
X169437700Y-72085441D01*
X169442143Y-72040326D01*
X169454578Y-71999333D01*
X169474773Y-71961552D01*
X169501944Y-71928444D01*
X169535052Y-71901273D01*
X169572833Y-71881078D01*
X169613826Y-71868643D01*
X169658941Y-71864200D01*
X170193059Y-71864200D01*
X170238174Y-71868643D01*
G37*
G36*
X173794174Y-71868643D02*
G01*
X173835167Y-71881078D01*
X173872948Y-71901273D01*
X173906056Y-71928444D01*
X173933227Y-71961552D01*
X173953422Y-71999333D01*
X173965857Y-72040326D01*
X173970300Y-72085441D01*
X173970300Y-72694559D01*
X173965857Y-72739674D01*
X173953422Y-72780667D01*
X173933227Y-72818448D01*
X173906056Y-72851556D01*
X173872948Y-72878727D01*
X173835167Y-72898922D01*
X173794174Y-72911357D01*
X173749059Y-72915800D01*
X173214941Y-72915800D01*
X173169826Y-72911357D01*
X173128833Y-72898922D01*
X173091052Y-72878727D01*
X173057944Y-72851556D01*
X173030773Y-72818448D01*
X173010578Y-72780667D01*
X172998143Y-72739674D01*
X172993700Y-72694559D01*
X172993700Y-72085441D01*
X172998143Y-72040326D01*
X173010578Y-71999333D01*
X173030773Y-71961552D01*
X173057944Y-71928444D01*
X173091052Y-71901273D01*
X173128833Y-71881078D01*
X173169826Y-71868643D01*
X173214941Y-71864200D01*
X173749059Y-71864200D01*
X173794174Y-71868643D01*
G37*
G36*
X168663174Y-71868643D02*
G01*
X168704167Y-71881078D01*
X168741948Y-71901273D01*
X168775056Y-71928444D01*
X168802227Y-71961552D01*
X168822422Y-71999333D01*
X168834857Y-72040326D01*
X168839300Y-72085441D01*
X168839300Y-72694559D01*
X168834857Y-72739674D01*
X168822422Y-72780667D01*
X168802227Y-72818448D01*
X168775056Y-72851556D01*
X168741948Y-72878727D01*
X168704167Y-72898922D01*
X168663174Y-72911357D01*
X168618059Y-72915800D01*
X168083941Y-72915800D01*
X168038826Y-72911357D01*
X167997833Y-72898922D01*
X167960052Y-72878727D01*
X167926944Y-72851556D01*
X167899773Y-72818448D01*
X167879578Y-72780667D01*
X167867143Y-72739674D01*
X167862700Y-72694559D01*
X167862700Y-72085441D01*
X167867143Y-72040326D01*
X167879578Y-71999333D01*
X167899773Y-71961552D01*
X167926944Y-71928444D01*
X167960052Y-71901273D01*
X167997833Y-71881078D01*
X168038826Y-71868643D01*
X168083941Y-71864200D01*
X168618059Y-71864200D01*
X168663174Y-71868643D01*
G37*
G36*
X202851174Y-71779143D02*
G01*
X202892167Y-71791578D01*
X202929948Y-71811773D01*
X202963056Y-71838944D01*
X202990227Y-71872052D01*
X203010422Y-71909833D01*
X203022857Y-71950826D01*
X203027300Y-71995941D01*
X203027300Y-72530059D01*
X203022857Y-72575174D01*
X203010422Y-72616167D01*
X202990227Y-72653948D01*
X202963056Y-72687056D01*
X202929948Y-72714227D01*
X202892167Y-72734422D01*
X202851174Y-72746857D01*
X202806059Y-72751300D01*
X202196941Y-72751300D01*
X202151826Y-72746857D01*
X202110833Y-72734422D01*
X202073052Y-72714227D01*
X202039944Y-72687056D01*
X202012773Y-72653948D01*
X201992578Y-72616167D01*
X201980143Y-72575174D01*
X201975700Y-72530059D01*
X201975700Y-71995941D01*
X201980143Y-71950826D01*
X201992578Y-71909833D01*
X202012773Y-71872052D01*
X202039944Y-71838944D01*
X202073052Y-71811773D01*
X202110833Y-71791578D01*
X202151826Y-71779143D01*
X202196941Y-71774700D01*
X202806059Y-71774700D01*
X202851174Y-71779143D01*
G37*
G36*
X178396052Y-69612124D02*
G01*
X178441737Y-69625982D01*
X178483833Y-69648483D01*
X178520734Y-69678766D01*
X178551017Y-69715667D01*
X178573518Y-69757763D01*
X178587376Y-69803448D01*
X178592300Y-69853442D01*
X178592300Y-70862558D01*
X178587376Y-70912552D01*
X178573518Y-70958237D01*
X178551017Y-71000333D01*
X178520734Y-71037234D01*
X178483833Y-71067517D01*
X178441737Y-71090018D01*
X178396052Y-71103876D01*
X178346058Y-71108800D01*
X177761942Y-71108800D01*
X177711948Y-71103876D01*
X177666263Y-71090018D01*
X177624167Y-71067517D01*
X177587266Y-71037234D01*
X177556983Y-71000333D01*
X177534482Y-70958237D01*
X177520624Y-70912552D01*
X177515700Y-70862558D01*
X177515700Y-69853442D01*
X177520624Y-69803448D01*
X177534482Y-69757763D01*
X177556983Y-69715667D01*
X177587266Y-69678766D01*
X177624167Y-69648483D01*
X177666263Y-69625982D01*
X177711948Y-69612124D01*
X177761942Y-69607200D01*
X178346058Y-69607200D01*
X178396052Y-69612124D01*
G37*
G36*
X180271052Y-69612124D02*
G01*
X180316737Y-69625982D01*
X180358833Y-69648483D01*
X180395734Y-69678766D01*
X180426017Y-69715667D01*
X180448518Y-69757763D01*
X180462376Y-69803448D01*
X180467300Y-69853442D01*
X180467300Y-70862558D01*
X180462376Y-70912552D01*
X180448518Y-70958237D01*
X180426017Y-71000333D01*
X180395734Y-71037234D01*
X180358833Y-71067517D01*
X180316737Y-71090018D01*
X180271052Y-71103876D01*
X180221058Y-71108800D01*
X179636942Y-71108800D01*
X179586948Y-71103876D01*
X179541263Y-71090018D01*
X179499167Y-71067517D01*
X179462266Y-71037234D01*
X179431983Y-71000333D01*
X179409482Y-70958237D01*
X179395624Y-70912552D01*
X179390700Y-70862558D01*
X179390700Y-69853442D01*
X179395624Y-69803448D01*
X179409482Y-69757763D01*
X179431983Y-69715667D01*
X179462266Y-69678766D01*
X179499167Y-69648483D01*
X179541263Y-69625982D01*
X179586948Y-69612124D01*
X179636942Y-69607200D01*
X180221058Y-69607200D01*
X180271052Y-69612124D01*
G37*
G36*
X187484174Y-69353643D02*
G01*
X187525167Y-69366078D01*
X187562948Y-69386273D01*
X187596056Y-69413444D01*
X187623227Y-69446552D01*
X187643422Y-69484333D01*
X187655857Y-69525326D01*
X187660300Y-69570441D01*
X187660300Y-70104559D01*
X187655857Y-70149674D01*
X187643422Y-70190667D01*
X187623227Y-70228448D01*
X187596056Y-70261556D01*
X187562948Y-70288727D01*
X187525167Y-70308922D01*
X187484174Y-70321357D01*
X187439059Y-70325800D01*
X186829941Y-70325800D01*
X186784826Y-70321357D01*
X186743833Y-70308922D01*
X186706052Y-70288727D01*
X186672944Y-70261556D01*
X186645773Y-70228448D01*
X186625578Y-70190667D01*
X186613143Y-70149674D01*
X186608700Y-70104559D01*
X186608700Y-69570441D01*
X186613143Y-69525326D01*
X186625578Y-69484333D01*
X186645773Y-69446552D01*
X186672944Y-69413444D01*
X186706052Y-69386273D01*
X186743833Y-69366078D01*
X186784826Y-69353643D01*
X186829941Y-69349200D01*
X187439059Y-69349200D01*
X187484174Y-69353643D01*
G37*
G36*
X195485174Y-69290143D02*
G01*
X195526167Y-69302578D01*
X195563948Y-69322773D01*
X195597056Y-69349944D01*
X195624227Y-69383052D01*
X195644422Y-69420833D01*
X195656857Y-69461826D01*
X195661300Y-69506941D01*
X195661300Y-70041059D01*
X195656857Y-70086174D01*
X195644422Y-70127167D01*
X195624227Y-70164948D01*
X195597056Y-70198056D01*
X195563948Y-70225227D01*
X195526167Y-70245422D01*
X195485174Y-70257857D01*
X195440059Y-70262300D01*
X194830941Y-70262300D01*
X194785826Y-70257857D01*
X194744833Y-70245422D01*
X194707052Y-70225227D01*
X194673944Y-70198056D01*
X194646773Y-70164948D01*
X194626578Y-70127167D01*
X194614143Y-70086174D01*
X194609700Y-70041059D01*
X194609700Y-69506941D01*
X194614143Y-69461826D01*
X194626578Y-69420833D01*
X194646773Y-69383052D01*
X194673944Y-69349944D01*
X194707052Y-69322773D01*
X194744833Y-69302578D01*
X194785826Y-69290143D01*
X194830941Y-69285700D01*
X195440059Y-69285700D01*
X195485174Y-69290143D01*
G37*
G36*
X191357674Y-69226643D02*
G01*
X191398667Y-69239078D01*
X191436448Y-69259273D01*
X191469556Y-69286444D01*
X191496727Y-69319552D01*
X191516922Y-69357333D01*
X191529357Y-69398326D01*
X191533800Y-69443441D01*
X191533800Y-69977559D01*
X191529357Y-70022674D01*
X191516922Y-70063667D01*
X191496727Y-70101448D01*
X191469556Y-70134556D01*
X191436448Y-70161727D01*
X191398667Y-70181922D01*
X191357674Y-70194357D01*
X191312559Y-70198800D01*
X190703441Y-70198800D01*
X190658326Y-70194357D01*
X190617333Y-70181922D01*
X190579552Y-70161727D01*
X190546444Y-70134556D01*
X190519273Y-70101448D01*
X190499078Y-70063667D01*
X190486643Y-70022674D01*
X190482200Y-69977559D01*
X190482200Y-69443441D01*
X190486643Y-69398326D01*
X190499078Y-69357333D01*
X190519273Y-69319552D01*
X190546444Y-69286444D01*
X190579552Y-69259273D01*
X190617333Y-69239078D01*
X190658326Y-69226643D01*
X190703441Y-69222200D01*
X191312559Y-69222200D01*
X191357674Y-69226643D01*
G37*
G36*
X202117800Y-68800300D02*
G01*
X201366200Y-68800300D01*
X201366200Y-67638700D01*
X202117800Y-67638700D01*
X202117800Y-68800300D01*
G37*
G36*
X203067800Y-68800300D02*
G01*
X202316200Y-68800300D01*
X202316200Y-67638700D01*
X203067800Y-67638700D01*
X203067800Y-68800300D01*
G37*
G36*
X204017800Y-68800300D02*
G01*
X203266200Y-68800300D01*
X203266200Y-67638700D01*
X204017800Y-67638700D01*
X204017800Y-68800300D01*
G37*
G36*
X187484174Y-67778643D02*
G01*
X187525167Y-67791078D01*
X187562948Y-67811273D01*
X187596056Y-67838444D01*
X187623227Y-67871552D01*
X187643422Y-67909333D01*
X187655857Y-67950326D01*
X187660300Y-67995441D01*
X187660300Y-68529559D01*
X187655857Y-68574674D01*
X187643422Y-68615667D01*
X187623227Y-68653448D01*
X187596056Y-68686556D01*
X187562948Y-68713727D01*
X187525167Y-68733922D01*
X187484174Y-68746357D01*
X187439059Y-68750800D01*
X186829941Y-68750800D01*
X186784826Y-68746357D01*
X186743833Y-68733922D01*
X186706052Y-68713727D01*
X186672944Y-68686556D01*
X186645773Y-68653448D01*
X186625578Y-68615667D01*
X186613143Y-68574674D01*
X186608700Y-68529559D01*
X186608700Y-67995441D01*
X186613143Y-67950326D01*
X186625578Y-67909333D01*
X186645773Y-67871552D01*
X186672944Y-67838444D01*
X186706052Y-67811273D01*
X186743833Y-67791078D01*
X186784826Y-67778643D01*
X186829941Y-67774200D01*
X187439059Y-67774200D01*
X187484174Y-67778643D01*
G37*
G36*
X170869552Y-67199124D02*
G01*
X170915237Y-67212982D01*
X170957333Y-67235483D01*
X170994234Y-67265766D01*
X171024517Y-67302667D01*
X171047018Y-67344763D01*
X171060876Y-67390448D01*
X171065800Y-67440442D01*
X171065800Y-68449558D01*
X171060876Y-68499552D01*
X171047018Y-68545237D01*
X171024517Y-68587333D01*
X170994234Y-68624234D01*
X170957333Y-68654517D01*
X170915237Y-68677018D01*
X170869552Y-68690876D01*
X170819558Y-68695800D01*
X170235442Y-68695800D01*
X170185448Y-68690876D01*
X170139763Y-68677018D01*
X170097667Y-68654517D01*
X170060766Y-68624234D01*
X170030483Y-68587333D01*
X170007982Y-68545237D01*
X169994124Y-68499552D01*
X169989200Y-68449558D01*
X169989200Y-67440442D01*
X169994124Y-67390448D01*
X170007982Y-67344763D01*
X170030483Y-67302667D01*
X170060766Y-67265766D01*
X170097667Y-67235483D01*
X170139763Y-67212982D01*
X170185448Y-67199124D01*
X170235442Y-67194200D01*
X170819558Y-67194200D01*
X170869552Y-67199124D01*
G37*
G36*
X172744552Y-67199124D02*
G01*
X172790237Y-67212982D01*
X172832333Y-67235483D01*
X172869234Y-67265766D01*
X172899517Y-67302667D01*
X172922018Y-67344763D01*
X172935876Y-67390448D01*
X172940800Y-67440442D01*
X172940800Y-68449558D01*
X172935876Y-68499552D01*
X172922018Y-68545237D01*
X172899517Y-68587333D01*
X172869234Y-68624234D01*
X172832333Y-68654517D01*
X172790237Y-68677018D01*
X172744552Y-68690876D01*
X172694558Y-68695800D01*
X172110442Y-68695800D01*
X172060448Y-68690876D01*
X172014763Y-68677018D01*
X171972667Y-68654517D01*
X171935766Y-68624234D01*
X171905483Y-68587333D01*
X171882982Y-68545237D01*
X171869124Y-68499552D01*
X171864200Y-68449558D01*
X171864200Y-67440442D01*
X171869124Y-67390448D01*
X171882982Y-67344763D01*
X171905483Y-67302667D01*
X171935766Y-67265766D01*
X171972667Y-67235483D01*
X172014763Y-67212982D01*
X172060448Y-67199124D01*
X172110442Y-67194200D01*
X172694558Y-67194200D01*
X172744552Y-67199124D01*
G37*
G36*
X195485174Y-67715143D02*
G01*
X195526167Y-67727578D01*
X195563948Y-67747773D01*
X195597056Y-67774944D01*
X195624227Y-67808052D01*
X195644422Y-67845833D01*
X195656857Y-67886826D01*
X195661300Y-67931941D01*
X195661300Y-68466059D01*
X195656857Y-68511174D01*
X195644422Y-68552167D01*
X195624227Y-68589948D01*
X195597056Y-68623056D01*
X195563948Y-68650227D01*
X195526167Y-68670422D01*
X195485174Y-68682857D01*
X195440059Y-68687300D01*
X194830941Y-68687300D01*
X194785826Y-68682857D01*
X194744833Y-68670422D01*
X194707052Y-68650227D01*
X194673944Y-68623056D01*
X194646773Y-68589948D01*
X194626578Y-68552167D01*
X194614143Y-68511174D01*
X194609700Y-68466059D01*
X194609700Y-67931941D01*
X194614143Y-67886826D01*
X194626578Y-67845833D01*
X194646773Y-67808052D01*
X194673944Y-67774944D01*
X194707052Y-67747773D01*
X194744833Y-67727578D01*
X194785826Y-67715143D01*
X194830941Y-67710700D01*
X195440059Y-67710700D01*
X195485174Y-67715143D01*
G37*
G36*
X191357674Y-67651643D02*
G01*
X191398667Y-67664078D01*
X191436448Y-67684273D01*
X191469556Y-67711444D01*
X191496727Y-67744552D01*
X191516922Y-67782333D01*
X191529357Y-67823326D01*
X191533800Y-67868441D01*
X191533800Y-68402559D01*
X191529357Y-68447674D01*
X191516922Y-68488667D01*
X191496727Y-68526448D01*
X191469556Y-68559556D01*
X191436448Y-68586727D01*
X191398667Y-68606922D01*
X191357674Y-68619357D01*
X191312559Y-68623800D01*
X190703441Y-68623800D01*
X190658326Y-68619357D01*
X190617333Y-68606922D01*
X190579552Y-68586727D01*
X190546444Y-68559556D01*
X190519273Y-68526448D01*
X190499078Y-68488667D01*
X190486643Y-68447674D01*
X190482200Y-68402559D01*
X190482200Y-67868441D01*
X190486643Y-67823326D01*
X190499078Y-67782333D01*
X190519273Y-67744552D01*
X190546444Y-67711444D01*
X190579552Y-67684273D01*
X190617333Y-67664078D01*
X190658326Y-67651643D01*
X190703441Y-67647200D01*
X191312559Y-67647200D01*
X191357674Y-67651643D01*
G37*
G36*
X180652174Y-66788643D02*
G01*
X180693167Y-66801078D01*
X180730948Y-66821273D01*
X180764056Y-66848444D01*
X180791227Y-66881552D01*
X180811422Y-66919333D01*
X180823857Y-66960326D01*
X180828300Y-67005441D01*
X180828300Y-67614559D01*
X180823857Y-67659674D01*
X180811422Y-67700667D01*
X180791227Y-67738448D01*
X180764056Y-67771556D01*
X180730948Y-67798727D01*
X180693167Y-67818922D01*
X180652174Y-67831357D01*
X180607059Y-67835800D01*
X180072941Y-67835800D01*
X180027826Y-67831357D01*
X179986833Y-67818922D01*
X179949052Y-67798727D01*
X179915944Y-67771556D01*
X179888773Y-67738448D01*
X179868578Y-67700667D01*
X179856143Y-67659674D01*
X179851700Y-67614559D01*
X179851700Y-67005441D01*
X179856143Y-66960326D01*
X179868578Y-66919333D01*
X179888773Y-66881552D01*
X179915944Y-66848444D01*
X179949052Y-66821273D01*
X179986833Y-66801078D01*
X180027826Y-66788643D01*
X180072941Y-66784200D01*
X180607059Y-66784200D01*
X180652174Y-66788643D01*
G37*
G36*
X179077174Y-66788643D02*
G01*
X179118167Y-66801078D01*
X179155948Y-66821273D01*
X179189056Y-66848444D01*
X179216227Y-66881552D01*
X179236422Y-66919333D01*
X179248857Y-66960326D01*
X179253300Y-67005441D01*
X179253300Y-67614559D01*
X179248857Y-67659674D01*
X179236422Y-67700667D01*
X179216227Y-67738448D01*
X179189056Y-67771556D01*
X179155948Y-67798727D01*
X179118167Y-67818922D01*
X179077174Y-67831357D01*
X179032059Y-67835800D01*
X178497941Y-67835800D01*
X178452826Y-67831357D01*
X178411833Y-67818922D01*
X178374052Y-67798727D01*
X178340944Y-67771556D01*
X178313773Y-67738448D01*
X178293578Y-67700667D01*
X178281143Y-67659674D01*
X178276700Y-67614559D01*
X178276700Y-67005441D01*
X178281143Y-66960326D01*
X178293578Y-66919333D01*
X178313773Y-66881552D01*
X178340944Y-66848444D01*
X178374052Y-66821273D01*
X178411833Y-66801078D01*
X178452826Y-66788643D01*
X178497941Y-66784200D01*
X179032059Y-66784200D01*
X179077174Y-66788643D01*
G37*
G36*
X204017800Y-66600300D02*
G01*
X203266200Y-66600300D01*
X203266200Y-65438700D01*
X204017800Y-65438700D01*
X204017800Y-66600300D01*
G37*
G36*
X202117800Y-66600300D02*
G01*
X201366200Y-66600300D01*
X201366200Y-65438700D01*
X202117800Y-65438700D01*
X202117800Y-66600300D01*
G37*
G36*
X214231174Y-64883643D02*
G01*
X214272167Y-64896078D01*
X214309948Y-64916273D01*
X214343056Y-64943444D01*
X214370227Y-64976552D01*
X214390422Y-65014333D01*
X214402857Y-65055326D01*
X214407300Y-65100441D01*
X214407300Y-65709559D01*
X214402857Y-65754674D01*
X214390422Y-65795667D01*
X214370227Y-65833448D01*
X214343056Y-65866556D01*
X214309948Y-65893727D01*
X214272167Y-65913922D01*
X214231174Y-65926357D01*
X214186059Y-65930800D01*
X213651941Y-65930800D01*
X213606826Y-65926357D01*
X213565833Y-65913922D01*
X213528052Y-65893727D01*
X213494944Y-65866556D01*
X213467773Y-65833448D01*
X213447578Y-65795667D01*
X213435143Y-65754674D01*
X213430700Y-65709559D01*
X213430700Y-65100441D01*
X213435143Y-65055326D01*
X213447578Y-65014333D01*
X213467773Y-64976552D01*
X213494944Y-64943444D01*
X213528052Y-64916273D01*
X213565833Y-64896078D01*
X213606826Y-64883643D01*
X213651941Y-64879200D01*
X214186059Y-64879200D01*
X214231174Y-64883643D01*
G37*
G36*
X212656174Y-64883643D02*
G01*
X212697167Y-64896078D01*
X212734948Y-64916273D01*
X212768056Y-64943444D01*
X212795227Y-64976552D01*
X212815422Y-65014333D01*
X212827857Y-65055326D01*
X212832300Y-65100441D01*
X212832300Y-65709559D01*
X212827857Y-65754674D01*
X212815422Y-65795667D01*
X212795227Y-65833448D01*
X212768056Y-65866556D01*
X212734948Y-65893727D01*
X212697167Y-65913922D01*
X212656174Y-65926357D01*
X212611059Y-65930800D01*
X212076941Y-65930800D01*
X212031826Y-65926357D01*
X211990833Y-65913922D01*
X211953052Y-65893727D01*
X211919944Y-65866556D01*
X211892773Y-65833448D01*
X211872578Y-65795667D01*
X211860143Y-65754674D01*
X211855700Y-65709559D01*
X211855700Y-65100441D01*
X211860143Y-65055326D01*
X211872578Y-65014333D01*
X211892773Y-64976552D01*
X211919944Y-64943444D01*
X211953052Y-64916273D01*
X211990833Y-64896078D01*
X212031826Y-64883643D01*
X212076941Y-64879200D01*
X212611059Y-64879200D01*
X212656174Y-64883643D01*
G37*
G36*
X178417174Y-64502643D02*
G01*
X178458167Y-64515078D01*
X178495948Y-64535273D01*
X178529056Y-64562444D01*
X178556227Y-64595552D01*
X178576422Y-64633333D01*
X178588857Y-64674326D01*
X178593300Y-64719441D01*
X178593300Y-65328559D01*
X178588857Y-65373674D01*
X178576422Y-65414667D01*
X178556227Y-65452448D01*
X178529056Y-65485556D01*
X178495948Y-65512727D01*
X178458167Y-65532922D01*
X178417174Y-65545357D01*
X178372059Y-65549800D01*
X177837941Y-65549800D01*
X177792826Y-65545357D01*
X177751833Y-65532922D01*
X177714052Y-65512727D01*
X177680944Y-65485556D01*
X177653773Y-65452448D01*
X177633578Y-65414667D01*
X177621143Y-65373674D01*
X177616700Y-65328559D01*
X177616700Y-64719441D01*
X177621143Y-64674326D01*
X177633578Y-64633333D01*
X177653773Y-64595552D01*
X177680944Y-64562444D01*
X177714052Y-64535273D01*
X177751833Y-64515078D01*
X177792826Y-64502643D01*
X177837941Y-64498200D01*
X178372059Y-64498200D01*
X178417174Y-64502643D01*
G37*
G36*
X176842174Y-64502643D02*
G01*
X176883167Y-64515078D01*
X176920948Y-64535273D01*
X176954056Y-64562444D01*
X176981227Y-64595552D01*
X177001422Y-64633333D01*
X177013857Y-64674326D01*
X177018300Y-64719441D01*
X177018300Y-65328559D01*
X177013857Y-65373674D01*
X177001422Y-65414667D01*
X176981227Y-65452448D01*
X176954056Y-65485556D01*
X176920948Y-65512727D01*
X176883167Y-65532922D01*
X176842174Y-65545357D01*
X176797059Y-65549800D01*
X176262941Y-65549800D01*
X176217826Y-65545357D01*
X176176833Y-65532922D01*
X176139052Y-65512727D01*
X176105944Y-65485556D01*
X176078773Y-65452448D01*
X176058578Y-65414667D01*
X176046143Y-65373674D01*
X176041700Y-65328559D01*
X176041700Y-64719441D01*
X176046143Y-64674326D01*
X176058578Y-64633333D01*
X176078773Y-64595552D01*
X176105944Y-64562444D01*
X176139052Y-64535273D01*
X176176833Y-64515078D01*
X176217826Y-64502643D01*
X176262941Y-64498200D01*
X176797059Y-64498200D01*
X176842174Y-64502643D01*
G37*
G36*
X187527793Y-63327513D02*
G01*
X187668979Y-63385994D01*
X187796045Y-63470897D01*
X187904103Y-63578955D01*
X187989006Y-63706021D01*
X188047487Y-63847207D01*
X188077300Y-63997090D01*
X188077300Y-64149910D01*
X188047487Y-64299793D01*
X187989006Y-64440979D01*
X187904103Y-64568045D01*
X187796045Y-64676103D01*
X187668979Y-64761006D01*
X187527793Y-64819487D01*
X187377910Y-64849300D01*
X187225090Y-64849300D01*
X187075207Y-64819487D01*
X186934021Y-64761006D01*
X186806955Y-64676103D01*
X186698897Y-64568045D01*
X186613994Y-64440979D01*
X186555513Y-64299793D01*
X186525700Y-64149910D01*
X186525700Y-63997090D01*
X186555513Y-63847207D01*
X186613994Y-63706021D01*
X186698897Y-63578955D01*
X186806955Y-63470897D01*
X186934021Y-63385994D01*
X187075207Y-63327513D01*
X187225090Y-63297700D01*
X187377910Y-63297700D01*
X187527793Y-63327513D01*
G37*
G36*
X192527793Y-63327513D02*
G01*
X192668979Y-63385994D01*
X192796045Y-63470897D01*
X192904103Y-63578955D01*
X192989006Y-63706021D01*
X193047487Y-63847207D01*
X193077300Y-63997090D01*
X193077300Y-64149910D01*
X193047487Y-64299793D01*
X192989006Y-64440979D01*
X192904103Y-64568045D01*
X192796045Y-64676103D01*
X192668979Y-64761006D01*
X192527793Y-64819487D01*
X192377910Y-64849300D01*
X192225090Y-64849300D01*
X192075207Y-64819487D01*
X191934021Y-64761006D01*
X191806955Y-64676103D01*
X191698897Y-64568045D01*
X191613994Y-64440979D01*
X191555513Y-64299793D01*
X191525700Y-64149910D01*
X191525700Y-63997090D01*
X191555513Y-63847207D01*
X191613994Y-63706021D01*
X191698897Y-63578955D01*
X191806955Y-63470897D01*
X191934021Y-63385994D01*
X192075207Y-63327513D01*
X192225090Y-63297700D01*
X192377910Y-63297700D01*
X192527793Y-63327513D01*
G37*
G36*
X191352300Y-64799300D02*
G01*
X190850700Y-64799300D01*
X190850700Y-63347700D01*
X191352300Y-63347700D01*
X191352300Y-64799300D01*
G37*
G36*
X188752300Y-64799300D02*
G01*
X188250700Y-64799300D01*
X188250700Y-63347700D01*
X188752300Y-63347700D01*
X188752300Y-64799300D01*
G37*
G36*
X189402300Y-64799300D02*
G01*
X188900700Y-64799300D01*
X188900700Y-63347700D01*
X189402300Y-63347700D01*
X189402300Y-64799300D01*
G37*
G36*
X190052300Y-64799300D02*
G01*
X189550700Y-64799300D01*
X189550700Y-63347700D01*
X190052300Y-63347700D01*
X190052300Y-64799300D01*
G37*
G36*
X190702300Y-64799300D02*
G01*
X190200700Y-64799300D01*
X190200700Y-63347700D01*
X190702300Y-63347700D01*
X190702300Y-64799300D01*
G37*
G36*
X175000300Y-64474300D02*
G01*
X174498700Y-64474300D01*
X174498700Y-63727700D01*
X175000300Y-63727700D01*
X175000300Y-64474300D01*
G37*
G36*
X173100300Y-64474300D02*
G01*
X172598700Y-64474300D01*
X172598700Y-63727700D01*
X173100300Y-63727700D01*
X173100300Y-64474300D01*
G37*
G36*
X174050300Y-64474300D02*
G01*
X173548700Y-64474300D01*
X173548700Y-63727700D01*
X174050300Y-63727700D01*
X174050300Y-64474300D01*
G37*
G36*
X170021674Y-63460643D02*
G01*
X170062667Y-63473078D01*
X170100448Y-63493273D01*
X170133556Y-63520444D01*
X170160727Y-63553552D01*
X170180922Y-63591333D01*
X170193357Y-63632326D01*
X170197800Y-63677441D01*
X170197800Y-64211559D01*
X170193357Y-64256674D01*
X170180922Y-64297667D01*
X170160727Y-64335448D01*
X170133556Y-64368556D01*
X170100448Y-64395727D01*
X170062667Y-64415922D01*
X170021674Y-64428357D01*
X169976559Y-64432800D01*
X169367441Y-64432800D01*
X169322326Y-64428357D01*
X169281333Y-64415922D01*
X169243552Y-64395727D01*
X169210444Y-64368556D01*
X169183273Y-64335448D01*
X169163078Y-64297667D01*
X169150643Y-64256674D01*
X169146200Y-64211559D01*
X169146200Y-63677441D01*
X169150643Y-63632326D01*
X169163078Y-63591333D01*
X169183273Y-63553552D01*
X169210444Y-63520444D01*
X169243552Y-63493273D01*
X169281333Y-63473078D01*
X169322326Y-63460643D01*
X169367441Y-63456200D01*
X169976559Y-63456200D01*
X170021674Y-63460643D01*
G37*
G36*
X182163674Y-62216643D02*
G01*
X182204667Y-62229078D01*
X182242448Y-62249273D01*
X182275556Y-62276444D01*
X182302727Y-62309552D01*
X182322922Y-62347333D01*
X182335357Y-62388326D01*
X182339800Y-62433441D01*
X182339800Y-63042559D01*
X182335357Y-63087674D01*
X182322922Y-63128667D01*
X182302727Y-63166448D01*
X182275556Y-63199556D01*
X182242448Y-63226727D01*
X182204667Y-63246922D01*
X182163674Y-63259357D01*
X182118559Y-63263800D01*
X181584441Y-63263800D01*
X181539326Y-63259357D01*
X181498333Y-63246922D01*
X181460552Y-63226727D01*
X181427444Y-63199556D01*
X181400273Y-63166448D01*
X181380078Y-63128667D01*
X181367643Y-63087674D01*
X181363200Y-63042559D01*
X181363200Y-62433441D01*
X181367643Y-62388326D01*
X181380078Y-62347333D01*
X181400273Y-62309552D01*
X181427444Y-62276444D01*
X181460552Y-62249273D01*
X181498333Y-62229078D01*
X181539326Y-62216643D01*
X181584441Y-62212200D01*
X182118559Y-62212200D01*
X182163674Y-62216643D01*
G37*
G36*
X180588674Y-62216643D02*
G01*
X180629667Y-62229078D01*
X180667448Y-62249273D01*
X180700556Y-62276444D01*
X180727727Y-62309552D01*
X180747922Y-62347333D01*
X180760357Y-62388326D01*
X180764800Y-62433441D01*
X180764800Y-63042559D01*
X180760357Y-63087674D01*
X180747922Y-63128667D01*
X180727727Y-63166448D01*
X180700556Y-63199556D01*
X180667448Y-63226727D01*
X180629667Y-63246922D01*
X180588674Y-63259357D01*
X180543559Y-63263800D01*
X180009441Y-63263800D01*
X179964326Y-63259357D01*
X179923333Y-63246922D01*
X179885552Y-63226727D01*
X179852444Y-63199556D01*
X179825273Y-63166448D01*
X179805078Y-63128667D01*
X179792643Y-63087674D01*
X179788200Y-63042559D01*
X179788200Y-62433441D01*
X179792643Y-62388326D01*
X179805078Y-62347333D01*
X179825273Y-62309552D01*
X179852444Y-62276444D01*
X179885552Y-62249273D01*
X179923333Y-62229078D01*
X179964326Y-62216643D01*
X180009441Y-62212200D01*
X180543559Y-62212200D01*
X180588674Y-62216643D01*
G37*
G36*
X170021674Y-61885643D02*
G01*
X170062667Y-61898078D01*
X170100448Y-61918273D01*
X170133556Y-61945444D01*
X170160727Y-61978552D01*
X170180922Y-62016333D01*
X170193357Y-62057326D01*
X170197800Y-62102441D01*
X170197800Y-62636559D01*
X170193357Y-62681674D01*
X170180922Y-62722667D01*
X170160727Y-62760448D01*
X170133556Y-62793556D01*
X170100448Y-62820727D01*
X170062667Y-62840922D01*
X170021674Y-62853357D01*
X169976559Y-62857800D01*
X169367441Y-62857800D01*
X169322326Y-62853357D01*
X169281333Y-62840922D01*
X169243552Y-62820727D01*
X169210444Y-62793556D01*
X169183273Y-62760448D01*
X169163078Y-62722667D01*
X169150643Y-62681674D01*
X169146200Y-62636559D01*
X169146200Y-62102441D01*
X169150643Y-62057326D01*
X169163078Y-62016333D01*
X169183273Y-61978552D01*
X169210444Y-61945444D01*
X169243552Y-61918273D01*
X169281333Y-61898078D01*
X169322326Y-61885643D01*
X169367441Y-61881200D01*
X169976559Y-61881200D01*
X170021674Y-61885643D01*
G37*
G36*
X214146552Y-61230124D02*
G01*
X214192237Y-61243982D01*
X214234333Y-61266483D01*
X214271234Y-61296766D01*
X214301517Y-61333667D01*
X214324018Y-61375763D01*
X214337876Y-61421448D01*
X214342800Y-61471442D01*
X214342800Y-62480558D01*
X214337876Y-62530552D01*
X214324018Y-62576237D01*
X214301517Y-62618333D01*
X214271234Y-62655234D01*
X214234333Y-62685517D01*
X214192237Y-62708018D01*
X214146552Y-62721876D01*
X214096558Y-62726800D01*
X213512442Y-62726800D01*
X213462448Y-62721876D01*
X213416763Y-62708018D01*
X213374667Y-62685517D01*
X213337766Y-62655234D01*
X213307483Y-62618333D01*
X213284982Y-62576237D01*
X213271124Y-62530552D01*
X213266200Y-62480558D01*
X213266200Y-61471442D01*
X213271124Y-61421448D01*
X213284982Y-61375763D01*
X213307483Y-61333667D01*
X213337766Y-61296766D01*
X213374667Y-61266483D01*
X213416763Y-61243982D01*
X213462448Y-61230124D01*
X213512442Y-61225200D01*
X214096558Y-61225200D01*
X214146552Y-61230124D01*
G37*
G36*
X212271552Y-61230124D02*
G01*
X212317237Y-61243982D01*
X212359333Y-61266483D01*
X212396234Y-61296766D01*
X212426517Y-61333667D01*
X212449018Y-61375763D01*
X212462876Y-61421448D01*
X212467800Y-61471442D01*
X212467800Y-62480558D01*
X212462876Y-62530552D01*
X212449018Y-62576237D01*
X212426517Y-62618333D01*
X212396234Y-62655234D01*
X212359333Y-62685517D01*
X212317237Y-62708018D01*
X212271552Y-62721876D01*
X212221558Y-62726800D01*
X211637442Y-62726800D01*
X211587448Y-62721876D01*
X211541763Y-62708018D01*
X211499667Y-62685517D01*
X211462766Y-62655234D01*
X211432483Y-62618333D01*
X211409982Y-62576237D01*
X211396124Y-62530552D01*
X211391200Y-62480558D01*
X211391200Y-61471442D01*
X211396124Y-61421448D01*
X211409982Y-61375763D01*
X211432483Y-61333667D01*
X211462766Y-61296766D01*
X211499667Y-61266483D01*
X211541763Y-61243982D01*
X211587448Y-61230124D01*
X211637442Y-61225200D01*
X212221558Y-61225200D01*
X212271552Y-61230124D01*
G37*
G36*
X186330981Y-60372455D02*
G01*
X186335960Y-60372700D01*
X187552300Y-60372700D01*
X187552300Y-62374300D01*
X186335960Y-62374300D01*
X186330981Y-62374545D01*
X186301500Y-62377449D01*
X186272019Y-62374545D01*
X186267040Y-62374300D01*
X186224477Y-62374300D01*
X186219341Y-62371555D01*
X186204881Y-62367933D01*
X186173925Y-62364884D01*
X186173922Y-62364883D01*
X186173921Y-62364883D01*
X186116067Y-62347333D01*
X186051246Y-62327670D01*
X185969003Y-62283710D01*
X185938186Y-62267238D01*
X185839089Y-62185911D01*
X185757762Y-62086813D01*
X185718388Y-62013150D01*
X185697330Y-61973753D01*
X185668843Y-61879842D01*
X185660117Y-61851078D01*
X185660117Y-61851077D01*
X185660116Y-61851074D01*
X185650700Y-61755468D01*
X185650700Y-60991531D01*
X185660116Y-60895925D01*
X185673360Y-60852266D01*
X185697331Y-60773245D01*
X185757763Y-60660186D01*
X185839090Y-60561089D01*
X185938187Y-60479762D01*
X186051247Y-60419330D01*
X186145158Y-60390843D01*
X186173922Y-60382117D01*
X186173923Y-60382117D01*
X186173926Y-60382116D01*
X186204879Y-60379068D01*
X186214647Y-60377126D01*
X186223847Y-60373315D01*
X186224767Y-60372700D01*
X186267040Y-60372700D01*
X186272019Y-60372455D01*
X186301500Y-60369551D01*
X186330981Y-60372455D01*
G37*
G36*
X193330981Y-60372455D02*
G01*
X193335960Y-60372700D01*
X193378522Y-60372700D01*
X193383659Y-60375446D01*
X193393189Y-60378337D01*
X193398121Y-60379068D01*
X193429074Y-60382116D01*
X193429077Y-60382117D01*
X193429078Y-60382117D01*
X193457842Y-60390843D01*
X193551753Y-60419330D01*
X193664813Y-60479762D01*
X193763911Y-60561089D01*
X193845238Y-60660186D01*
X193875453Y-60716715D01*
X193905670Y-60773246D01*
X193942884Y-60895925D01*
X193952300Y-60991531D01*
X193952300Y-61755469D01*
X193942884Y-61851075D01*
X193905670Y-61973754D01*
X193905669Y-61973755D01*
X193845238Y-62086814D01*
X193763911Y-62185911D01*
X193664814Y-62267238D01*
X193633997Y-62283710D01*
X193551754Y-62327670D01*
X193486933Y-62347333D01*
X193429079Y-62364883D01*
X193429078Y-62364883D01*
X193429075Y-62364884D01*
X193398119Y-62367933D01*
X193388352Y-62369876D01*
X193379152Y-62373687D01*
X193378234Y-62374300D01*
X193335960Y-62374300D01*
X193330981Y-62374545D01*
X193301500Y-62377449D01*
X193272019Y-62374545D01*
X193267040Y-62374300D01*
X192050700Y-62374300D01*
X192050700Y-60372700D01*
X193267040Y-60372700D01*
X193272019Y-60372455D01*
X193301500Y-60369551D01*
X193330981Y-60372455D01*
G37*
G36*
X189602300Y-62374300D02*
G01*
X188000700Y-62374300D01*
X188000700Y-60372700D01*
X189602300Y-60372700D01*
X189602300Y-62374300D01*
G37*
G36*
X191602300Y-62374300D02*
G01*
X190000700Y-62374300D01*
X190000700Y-60372700D01*
X191602300Y-60372700D01*
X191602300Y-62374300D01*
G37*
G36*
X166267552Y-60785624D02*
G01*
X166313237Y-60799482D01*
X166355333Y-60821983D01*
X166392234Y-60852266D01*
X166422517Y-60889167D01*
X166445018Y-60931263D01*
X166458876Y-60976948D01*
X166463800Y-61026942D01*
X166463800Y-62036058D01*
X166458876Y-62086052D01*
X166445018Y-62131737D01*
X166422517Y-62173833D01*
X166392234Y-62210734D01*
X166355333Y-62241017D01*
X166313237Y-62263518D01*
X166267552Y-62277376D01*
X166217558Y-62282300D01*
X165633442Y-62282300D01*
X165583448Y-62277376D01*
X165537763Y-62263518D01*
X165495667Y-62241017D01*
X165458766Y-62210734D01*
X165428483Y-62173833D01*
X165405982Y-62131737D01*
X165392124Y-62086052D01*
X165387200Y-62036058D01*
X165387200Y-61026942D01*
X165392124Y-60976948D01*
X165405982Y-60931263D01*
X165428483Y-60889167D01*
X165458766Y-60852266D01*
X165495667Y-60821983D01*
X165537763Y-60799482D01*
X165583448Y-60785624D01*
X165633442Y-60780700D01*
X166217558Y-60780700D01*
X166267552Y-60785624D01*
G37*
G36*
X168142552Y-60785624D02*
G01*
X168188237Y-60799482D01*
X168230333Y-60821983D01*
X168267234Y-60852266D01*
X168297517Y-60889167D01*
X168320018Y-60931263D01*
X168333876Y-60976948D01*
X168338800Y-61026942D01*
X168338800Y-62036058D01*
X168333876Y-62086052D01*
X168320018Y-62131737D01*
X168297517Y-62173833D01*
X168267234Y-62210734D01*
X168230333Y-62241017D01*
X168188237Y-62263518D01*
X168142552Y-62277376D01*
X168092558Y-62282300D01*
X167508442Y-62282300D01*
X167458448Y-62277376D01*
X167412763Y-62263518D01*
X167370667Y-62241017D01*
X167333766Y-62210734D01*
X167303483Y-62173833D01*
X167280982Y-62131737D01*
X167267124Y-62086052D01*
X167262200Y-62036058D01*
X167262200Y-61026942D01*
X167267124Y-60976948D01*
X167280982Y-60931263D01*
X167303483Y-60889167D01*
X167333766Y-60852266D01*
X167370667Y-60821983D01*
X167412763Y-60799482D01*
X167458448Y-60785624D01*
X167508442Y-60780700D01*
X168092558Y-60780700D01*
X168142552Y-60785624D01*
G37*
G36*
X175000300Y-62129300D02*
G01*
X174498700Y-62129300D01*
X174498700Y-61382700D01*
X175000300Y-61382700D01*
X175000300Y-62129300D01*
G37*
G36*
X173100300Y-62129300D02*
G01*
X172598700Y-62129300D01*
X172598700Y-61382700D01*
X173100300Y-61382700D01*
X173100300Y-62129300D01*
G37*
M02*
