M48
; DRILL file {KiCad (5.1.5)-3} date 2/12/2020 5:50:27 PM
; FORMAT={-:-/ absolute / inch / decimal}
; #@! TF.CreationDate,2020-02-12T17:50:27+05:30
; #@! TF.GenerationSoftware,Kicad,Pcbnew,(5.1.5)-3
; #@! TF.FileFunction,Plated,1,2,PTH
FMAT,2
INCH
T1C0.0276
T2C0.0354
T3C0.0394
T4C0.0472
T5C0.0551
%
G90
G05
T1
X4.75Y-3.65
X4.85Y-3.75
X4.95Y-3.65
T2
X3.5Y-3.45
X3.5Y-3.6469
X3.5984Y-3.5484
T3
X5.15Y-3.1
X5.2878Y-3.1
X3.65Y-3.0
X3.9492Y-3.0
T4
X4.25Y-2.95
X4.75Y-2.95
T5
X4.4372Y-3.2337
X4.8372Y-3.2337
T3
G00X4.1138Y-3.5106
M15
G01X4.1138Y-3.5894
M16
G05
G00X4.1925Y-3.735
M15
G01X4.2713Y-3.735
M16
G05
G00X4.35Y-3.5106
M15
G01X4.35Y-3.5894
M16
G05
T0
M30
