G04 #@! TF.GenerationSoftware,KiCad,Pcbnew,(5.1.5)-3*
G04 #@! TF.CreationDate,2020-02-12T17:51:35+05:30*
G04 #@! TF.ProjectId,copy_UT,636f7079-5f55-4542-9e6b-696361645f70,rev?*
G04 #@! TF.SameCoordinates,Original*
G04 #@! TF.FileFunction,Legend,Top*
G04 #@! TF.FilePolarity,Positive*
%FSLAX46Y46*%
G04 Gerber Fmt 4.6, Leading zero omitted, Abs format (unit mm)*
G04 Created by KiCad (PCBNEW (5.1.5)-3) date 2020-02-12 17:51:35*
%MOMM*%
%LPD*%
G04 APERTURE LIST*
%ADD10C,0.120000*%
%ADD11C,0.150000*%
G04 APERTURE END LIST*
D10*
X102610000Y-76200000D02*
G75*
G03X102610000Y-76200000I-6100000J0D01*
G01*
X137680000Y-78740000D02*
G75*
G03X137680000Y-78740000I-5120000J0D01*
G01*
X132560000Y-73660000D02*
X132560000Y-83820000D01*
X132600000Y-73660000D02*
X132600000Y-83820000D01*
X132640000Y-73660000D02*
X132640000Y-83820000D01*
X132680000Y-73661000D02*
X132680000Y-83819000D01*
X132720000Y-73662000D02*
X132720000Y-83818000D01*
X132760000Y-73663000D02*
X132760000Y-83817000D01*
X132800000Y-73665000D02*
X132800000Y-83815000D01*
X132840000Y-73667000D02*
X132840000Y-83813000D01*
X132880000Y-73670000D02*
X132880000Y-83810000D01*
X132920000Y-73672000D02*
X132920000Y-83808000D01*
X132960000Y-73675000D02*
X132960000Y-83805000D01*
X133000000Y-73678000D02*
X133000000Y-83802000D01*
X133040000Y-73682000D02*
X133040000Y-83798000D01*
X133080000Y-73686000D02*
X133080000Y-77499000D01*
X133080000Y-79981000D02*
X133080000Y-83794000D01*
X133120000Y-73690000D02*
X133120000Y-77499000D01*
X133120000Y-79981000D02*
X133120000Y-83790000D01*
X133160000Y-73695000D02*
X133160000Y-77499000D01*
X133160000Y-79981000D02*
X133160000Y-83785000D01*
X133200000Y-73700000D02*
X133200000Y-77499000D01*
X133200000Y-79981000D02*
X133200000Y-83780000D01*
X133240000Y-73705000D02*
X133240000Y-77499000D01*
X133240000Y-79981000D02*
X133240000Y-83775000D01*
X133281000Y-73710000D02*
X133281000Y-77499000D01*
X133281000Y-79981000D02*
X133281000Y-83770000D01*
X133321000Y-73716000D02*
X133321000Y-77499000D01*
X133321000Y-79981000D02*
X133321000Y-83764000D01*
X133361000Y-73722000D02*
X133361000Y-77499000D01*
X133361000Y-79981000D02*
X133361000Y-83758000D01*
X133401000Y-73729000D02*
X133401000Y-77499000D01*
X133401000Y-79981000D02*
X133401000Y-83751000D01*
X133441000Y-73736000D02*
X133441000Y-77499000D01*
X133441000Y-79981000D02*
X133441000Y-83744000D01*
X133481000Y-73743000D02*
X133481000Y-77499000D01*
X133481000Y-79981000D02*
X133481000Y-83737000D01*
X133521000Y-73750000D02*
X133521000Y-77499000D01*
X133521000Y-79981000D02*
X133521000Y-83730000D01*
X133561000Y-73758000D02*
X133561000Y-77499000D01*
X133561000Y-79981000D02*
X133561000Y-83722000D01*
X133601000Y-73766000D02*
X133601000Y-77499000D01*
X133601000Y-79981000D02*
X133601000Y-83714000D01*
X133641000Y-73775000D02*
X133641000Y-77499000D01*
X133641000Y-79981000D02*
X133641000Y-83705000D01*
X133681000Y-73784000D02*
X133681000Y-77499000D01*
X133681000Y-79981000D02*
X133681000Y-83696000D01*
X133721000Y-73793000D02*
X133721000Y-77499000D01*
X133721000Y-79981000D02*
X133721000Y-83687000D01*
X133761000Y-73802000D02*
X133761000Y-77499000D01*
X133761000Y-79981000D02*
X133761000Y-83678000D01*
X133801000Y-73812000D02*
X133801000Y-77499000D01*
X133801000Y-79981000D02*
X133801000Y-83668000D01*
X133841000Y-73822000D02*
X133841000Y-77499000D01*
X133841000Y-79981000D02*
X133841000Y-83658000D01*
X133881000Y-73833000D02*
X133881000Y-77499000D01*
X133881000Y-79981000D02*
X133881000Y-83647000D01*
X133921000Y-73843000D02*
X133921000Y-77499000D01*
X133921000Y-79981000D02*
X133921000Y-83637000D01*
X133961000Y-73855000D02*
X133961000Y-77499000D01*
X133961000Y-79981000D02*
X133961000Y-83625000D01*
X134001000Y-73866000D02*
X134001000Y-77499000D01*
X134001000Y-79981000D02*
X134001000Y-83614000D01*
X134041000Y-73878000D02*
X134041000Y-77499000D01*
X134041000Y-79981000D02*
X134041000Y-83602000D01*
X134081000Y-73890000D02*
X134081000Y-77499000D01*
X134081000Y-79981000D02*
X134081000Y-83590000D01*
X134121000Y-73903000D02*
X134121000Y-77499000D01*
X134121000Y-79981000D02*
X134121000Y-83577000D01*
X134161000Y-73916000D02*
X134161000Y-77499000D01*
X134161000Y-79981000D02*
X134161000Y-83564000D01*
X134201000Y-73929000D02*
X134201000Y-77499000D01*
X134201000Y-79981000D02*
X134201000Y-83551000D01*
X134241000Y-73943000D02*
X134241000Y-77499000D01*
X134241000Y-79981000D02*
X134241000Y-83537000D01*
X134281000Y-73957000D02*
X134281000Y-77499000D01*
X134281000Y-79981000D02*
X134281000Y-83523000D01*
X134321000Y-73972000D02*
X134321000Y-77499000D01*
X134321000Y-79981000D02*
X134321000Y-83508000D01*
X134361000Y-73986000D02*
X134361000Y-77499000D01*
X134361000Y-79981000D02*
X134361000Y-83494000D01*
X134401000Y-74002000D02*
X134401000Y-77499000D01*
X134401000Y-79981000D02*
X134401000Y-83478000D01*
X134441000Y-74017000D02*
X134441000Y-77499000D01*
X134441000Y-79981000D02*
X134441000Y-83463000D01*
X134481000Y-74033000D02*
X134481000Y-77499000D01*
X134481000Y-79981000D02*
X134481000Y-83447000D01*
X134521000Y-74050000D02*
X134521000Y-77499000D01*
X134521000Y-79981000D02*
X134521000Y-83430000D01*
X134561000Y-74066000D02*
X134561000Y-77499000D01*
X134561000Y-79981000D02*
X134561000Y-83414000D01*
X134601000Y-74083000D02*
X134601000Y-77499000D01*
X134601000Y-79981000D02*
X134601000Y-83397000D01*
X134641000Y-74101000D02*
X134641000Y-77499000D01*
X134641000Y-79981000D02*
X134641000Y-83379000D01*
X134681000Y-74119000D02*
X134681000Y-77499000D01*
X134681000Y-79981000D02*
X134681000Y-83361000D01*
X134721000Y-74137000D02*
X134721000Y-77499000D01*
X134721000Y-79981000D02*
X134721000Y-83343000D01*
X134761000Y-74156000D02*
X134761000Y-77499000D01*
X134761000Y-79981000D02*
X134761000Y-83324000D01*
X134801000Y-74176000D02*
X134801000Y-77499000D01*
X134801000Y-79981000D02*
X134801000Y-83304000D01*
X134841000Y-74195000D02*
X134841000Y-77499000D01*
X134841000Y-79981000D02*
X134841000Y-83285000D01*
X134881000Y-74215000D02*
X134881000Y-77499000D01*
X134881000Y-79981000D02*
X134881000Y-83265000D01*
X134921000Y-74236000D02*
X134921000Y-77499000D01*
X134921000Y-79981000D02*
X134921000Y-83244000D01*
X134961000Y-74257000D02*
X134961000Y-77499000D01*
X134961000Y-79981000D02*
X134961000Y-83223000D01*
X135001000Y-74278000D02*
X135001000Y-77499000D01*
X135001000Y-79981000D02*
X135001000Y-83202000D01*
X135041000Y-74300000D02*
X135041000Y-77499000D01*
X135041000Y-79981000D02*
X135041000Y-83180000D01*
X135081000Y-74323000D02*
X135081000Y-77499000D01*
X135081000Y-79981000D02*
X135081000Y-83157000D01*
X135121000Y-74345000D02*
X135121000Y-77499000D01*
X135121000Y-79981000D02*
X135121000Y-83135000D01*
X135161000Y-74369000D02*
X135161000Y-77499000D01*
X135161000Y-79981000D02*
X135161000Y-83111000D01*
X135201000Y-74393000D02*
X135201000Y-77499000D01*
X135201000Y-79981000D02*
X135201000Y-83087000D01*
X135241000Y-74417000D02*
X135241000Y-77499000D01*
X135241000Y-79981000D02*
X135241000Y-83063000D01*
X135281000Y-74442000D02*
X135281000Y-77499000D01*
X135281000Y-79981000D02*
X135281000Y-83038000D01*
X135321000Y-74467000D02*
X135321000Y-77499000D01*
X135321000Y-79981000D02*
X135321000Y-83013000D01*
X135361000Y-74493000D02*
X135361000Y-77499000D01*
X135361000Y-79981000D02*
X135361000Y-82987000D01*
X135401000Y-74519000D02*
X135401000Y-77499000D01*
X135401000Y-79981000D02*
X135401000Y-82961000D01*
X135441000Y-74546000D02*
X135441000Y-77499000D01*
X135441000Y-79981000D02*
X135441000Y-82934000D01*
X135481000Y-74574000D02*
X135481000Y-77499000D01*
X135481000Y-79981000D02*
X135481000Y-82906000D01*
X135521000Y-74602000D02*
X135521000Y-77499000D01*
X135521000Y-79981000D02*
X135521000Y-82878000D01*
X135561000Y-74630000D02*
X135561000Y-82850000D01*
X135601000Y-74660000D02*
X135601000Y-82820000D01*
X135641000Y-74690000D02*
X135641000Y-82790000D01*
X135681000Y-74720000D02*
X135681000Y-82760000D01*
X135721000Y-74751000D02*
X135721000Y-82729000D01*
X135761000Y-74783000D02*
X135761000Y-82697000D01*
X135801000Y-74815000D02*
X135801000Y-82665000D01*
X135841000Y-74848000D02*
X135841000Y-82632000D01*
X135881000Y-74882000D02*
X135881000Y-82598000D01*
X135921000Y-74916000D02*
X135921000Y-82564000D01*
X135961000Y-74951000D02*
X135961000Y-82529000D01*
X136001000Y-74987000D02*
X136001000Y-82493000D01*
X136041000Y-75024000D02*
X136041000Y-82456000D01*
X136081000Y-75061000D02*
X136081000Y-82419000D01*
X136121000Y-75100000D02*
X136121000Y-82380000D01*
X136161000Y-75139000D02*
X136161000Y-82341000D01*
X136201000Y-75179000D02*
X136201000Y-82301000D01*
X136241000Y-75220000D02*
X136241000Y-82260000D01*
X136281000Y-75262000D02*
X136281000Y-82218000D01*
X136321000Y-75304000D02*
X136321000Y-82176000D01*
X136361000Y-75348000D02*
X136361000Y-82132000D01*
X136401000Y-75393000D02*
X136401000Y-82087000D01*
X136441000Y-75439000D02*
X136441000Y-82041000D01*
X136481000Y-75486000D02*
X136481000Y-81994000D01*
X136521000Y-75534000D02*
X136521000Y-81946000D01*
X136561000Y-75584000D02*
X136561000Y-81896000D01*
X136601000Y-75634000D02*
X136601000Y-81846000D01*
X136641000Y-75686000D02*
X136641000Y-81794000D01*
X136681000Y-75740000D02*
X136681000Y-81740000D01*
X136721000Y-75795000D02*
X136721000Y-81685000D01*
X136761000Y-75851000D02*
X136761000Y-81629000D01*
X136801000Y-75910000D02*
X136801000Y-81570000D01*
X136841000Y-75970000D02*
X136841000Y-81510000D01*
X136881000Y-76031000D02*
X136881000Y-81449000D01*
X136921000Y-76095000D02*
X136921000Y-81385000D01*
X136961000Y-76161000D02*
X136961000Y-81319000D01*
X137001000Y-76230000D02*
X137001000Y-81250000D01*
X137041000Y-76301000D02*
X137041000Y-81179000D01*
X137081000Y-76375000D02*
X137081000Y-81105000D01*
X137121000Y-76451000D02*
X137121000Y-81029000D01*
X137161000Y-76531000D02*
X137161000Y-80949000D01*
X137201000Y-76615000D02*
X137201000Y-80865000D01*
X137241000Y-76703000D02*
X137241000Y-80777000D01*
X137281000Y-76796000D02*
X137281000Y-80684000D01*
X137321000Y-76894000D02*
X137321000Y-80586000D01*
X137361000Y-76998000D02*
X137361000Y-80482000D01*
X137401000Y-77110000D02*
X137401000Y-80370000D01*
X137441000Y-77230000D02*
X137441000Y-80250000D01*
X137481000Y-77362000D02*
X137481000Y-80118000D01*
X137521000Y-77510000D02*
X137521000Y-79970000D01*
X137561000Y-77678000D02*
X137561000Y-79802000D01*
X137601000Y-77878000D02*
X137601000Y-79602000D01*
X137641000Y-78141000D02*
X137641000Y-79339000D01*
X127080354Y-75865000D02*
X128080354Y-75865000D01*
X127580354Y-75365000D02*
X127580354Y-76365000D01*
X113215001Y-80495001D02*
X113215001Y-80165001D01*
X113215001Y-80165001D02*
X122355001Y-80165001D01*
X122355001Y-80165001D02*
X122355001Y-80495001D01*
X113215001Y-83775001D02*
X113215001Y-84105001D01*
X113215001Y-84105001D02*
X122355001Y-84105001D01*
X122355001Y-84105001D02*
X122355001Y-83775001D01*
X114670001Y-80165001D02*
X114670001Y-84105001D01*
X114790001Y-80165001D02*
X114790001Y-84105001D01*
X114550001Y-80165001D02*
X114550001Y-84105001D01*
X111590000Y-86420000D02*
X111590000Y-85370000D01*
X110540000Y-85370000D02*
X111590000Y-85370000D01*
X105490000Y-94770000D02*
X96690000Y-94770000D01*
X96690000Y-94770000D02*
X96690000Y-85570000D01*
X111390000Y-92070000D02*
X111390000Y-94770000D01*
X111390000Y-94770000D02*
X109490000Y-94770000D01*
X96690000Y-85570000D02*
X111390000Y-85570000D01*
X111390000Y-85570000D02*
X111390000Y-88170000D01*
X119415326Y-89712629D02*
G75*
G03X120192916Y-88935098I3774674J-2997371D01*
G01*
X118524144Y-88821961D02*
X119415098Y-89712916D01*
X119301961Y-88044144D02*
X118524144Y-88821961D01*
X120192916Y-88935098D02*
X119301961Y-88044144D01*
X109230000Y-73490000D02*
X109230000Y-73010000D01*
X109230000Y-73010000D02*
X119370000Y-73010000D01*
X119370000Y-73010000D02*
X119370000Y-73490000D01*
X109230000Y-76370000D02*
X109230000Y-76850000D01*
X109230000Y-76850000D02*
X119370000Y-76850000D01*
X119370000Y-76850000D02*
X119370000Y-76370000D01*
X89825000Y-86860000D02*
X92520000Y-86860000D01*
X89825000Y-93400000D02*
X92520000Y-93400000D01*
X92520000Y-86860000D02*
X92520000Y-93400000D01*
X88779000Y-88696000D02*
X88779000Y-91565000D01*
X88779000Y-89010000D02*
X92520000Y-89010000D01*
X88779000Y-91250000D02*
X92520000Y-91250000D01*
X88779000Y-89010000D02*
X88779000Y-91250000D01*
X92520000Y-89010000D02*
X92520000Y-91250000D01*
D11*
X92154476Y-66492380D02*
X92154476Y-65492380D01*
X92487809Y-66206666D01*
X92821142Y-65492380D01*
X92821142Y-66492380D01*
X93821142Y-66492380D02*
X93249714Y-66492380D01*
X93535428Y-66492380D02*
X93535428Y-65492380D01*
X93440190Y-65635238D01*
X93344952Y-65730476D01*
X93249714Y-65778095D01*
X134064476Y-92772380D02*
X134064476Y-91772380D01*
X134397809Y-92486666D01*
X134731142Y-91772380D01*
X134731142Y-92772380D01*
X135112095Y-91772380D02*
X135731142Y-91772380D01*
X135397809Y-92153333D01*
X135540666Y-92153333D01*
X135635904Y-92200952D01*
X135683523Y-92248571D01*
X135731142Y-92343809D01*
X135731142Y-92581904D01*
X135683523Y-92677142D01*
X135635904Y-92724761D01*
X135540666Y-92772380D01*
X135254952Y-92772380D01*
X135159714Y-92724761D01*
X135112095Y-92677142D01*
X129492476Y-67762380D02*
X129492476Y-66762380D01*
X129825809Y-67476666D01*
X130159142Y-66762380D01*
X130159142Y-67762380D01*
X130587714Y-66857619D02*
X130635333Y-66810000D01*
X130730571Y-66762380D01*
X130968666Y-66762380D01*
X131063904Y-66810000D01*
X131111523Y-66857619D01*
X131159142Y-66952857D01*
X131159142Y-67048095D01*
X131111523Y-67190952D01*
X130540095Y-67762380D01*
X131159142Y-67762380D01*
X95629047Y-68928571D02*
X95771904Y-68976190D01*
X95819523Y-69023809D01*
X95867142Y-69119047D01*
X95867142Y-69261904D01*
X95819523Y-69357142D01*
X95771904Y-69404761D01*
X95676666Y-69452380D01*
X95295714Y-69452380D01*
X95295714Y-68452380D01*
X95629047Y-68452380D01*
X95724285Y-68500000D01*
X95771904Y-68547619D01*
X95819523Y-68642857D01*
X95819523Y-68738095D01*
X95771904Y-68833333D01*
X95724285Y-68880952D01*
X95629047Y-68928571D01*
X95295714Y-68928571D01*
X96200476Y-68452380D02*
X96867142Y-68452380D01*
X96200476Y-69452380D01*
X96867142Y-69452380D01*
X97771904Y-69452380D02*
X97200476Y-69452380D01*
X97486190Y-69452380D02*
X97486190Y-68452380D01*
X97390952Y-68595238D01*
X97295714Y-68690476D01*
X97200476Y-68738095D01*
X92319047Y-73731428D02*
X93080952Y-73731428D01*
X92700000Y-74112380D02*
X92700000Y-73350476D01*
X132393333Y-72847142D02*
X132345714Y-72894761D01*
X132202857Y-72942380D01*
X132107619Y-72942380D01*
X131964761Y-72894761D01*
X131869523Y-72799523D01*
X131821904Y-72704285D01*
X131774285Y-72513809D01*
X131774285Y-72370952D01*
X131821904Y-72180476D01*
X131869523Y-72085238D01*
X131964761Y-71990000D01*
X132107619Y-71942380D01*
X132202857Y-71942380D01*
X132345714Y-71990000D01*
X132393333Y-72037619D01*
X133345714Y-72942380D02*
X132774285Y-72942380D01*
X133060000Y-72942380D02*
X133060000Y-71942380D01*
X132964761Y-72085238D01*
X132869523Y-72180476D01*
X132774285Y-72228095D01*
X117046905Y-79617381D02*
X117046905Y-78617381D01*
X117285001Y-78617381D01*
X117427858Y-78665001D01*
X117523096Y-78760239D01*
X117570715Y-78855477D01*
X117618334Y-79045953D01*
X117618334Y-79188810D01*
X117570715Y-79379286D01*
X117523096Y-79474524D01*
X117427858Y-79569762D01*
X117285001Y-79617381D01*
X117046905Y-79617381D01*
X118570715Y-79617381D02*
X117999286Y-79617381D01*
X118285001Y-79617381D02*
X118285001Y-78617381D01*
X118189762Y-78760239D01*
X118094524Y-78855477D01*
X117999286Y-78903096D01*
X112443096Y-80187381D02*
X112443096Y-79187381D01*
X113014524Y-80187381D02*
X112585953Y-79615953D01*
X113014524Y-79187381D02*
X112443096Y-79758810D01*
X101706666Y-95372380D02*
X101706666Y-96086666D01*
X101659047Y-96229523D01*
X101563809Y-96324761D01*
X101420952Y-96372380D01*
X101325714Y-96372380D01*
X102706666Y-96372380D02*
X102135238Y-96372380D01*
X102420952Y-96372380D02*
X102420952Y-95372380D01*
X102325714Y-95515238D01*
X102230476Y-95610476D01*
X102135238Y-95658095D01*
X123094761Y-87437619D02*
X122999523Y-87390000D01*
X122904285Y-87294761D01*
X122761428Y-87151904D01*
X122666190Y-87104285D01*
X122570952Y-87104285D01*
X122618571Y-87342380D02*
X122523333Y-87294761D01*
X122428095Y-87199523D01*
X122380476Y-87009047D01*
X122380476Y-86675714D01*
X122428095Y-86485238D01*
X122523333Y-86390000D01*
X122618571Y-86342380D01*
X122809047Y-86342380D01*
X122904285Y-86390000D01*
X122999523Y-86485238D01*
X123047142Y-86675714D01*
X123047142Y-87009047D01*
X122999523Y-87199523D01*
X122904285Y-87294761D01*
X122809047Y-87342380D01*
X122618571Y-87342380D01*
X123999523Y-87342380D02*
X123428095Y-87342380D01*
X123713809Y-87342380D02*
X123713809Y-86342380D01*
X123618571Y-86485238D01*
X123523333Y-86580476D01*
X123428095Y-86628095D01*
X114133333Y-72462380D02*
X113800000Y-71986190D01*
X113561904Y-72462380D02*
X113561904Y-71462380D01*
X113942857Y-71462380D01*
X114038095Y-71510000D01*
X114085714Y-71557619D01*
X114133333Y-71652857D01*
X114133333Y-71795714D01*
X114085714Y-71890952D01*
X114038095Y-71938571D01*
X113942857Y-71986190D01*
X113561904Y-71986190D01*
X115085714Y-72462380D02*
X114514285Y-72462380D01*
X114800000Y-72462380D02*
X114800000Y-71462380D01*
X114704761Y-71605238D01*
X114609523Y-71700476D01*
X114514285Y-71748095D01*
X88304761Y-86022380D02*
X87971428Y-85546190D01*
X87733333Y-86022380D02*
X87733333Y-85022380D01*
X88114285Y-85022380D01*
X88209523Y-85070000D01*
X88257142Y-85117619D01*
X88304761Y-85212857D01*
X88304761Y-85355714D01*
X88257142Y-85450952D01*
X88209523Y-85498571D01*
X88114285Y-85546190D01*
X87733333Y-85546190D01*
X88590476Y-85022380D02*
X88923809Y-86022380D01*
X89257142Y-85022380D01*
X90114285Y-86022380D02*
X89542857Y-86022380D01*
X89828571Y-86022380D02*
X89828571Y-85022380D01*
X89733333Y-85165238D01*
X89638095Y-85260476D01*
X89542857Y-85308095D01*
M02*
