G04 #@! TF.GenerationSoftware,KiCad,Pcbnew,(5.1.5)-3*
G04 #@! TF.CreationDate,2020-02-12T17:51:35+05:30*
G04 #@! TF.ProjectId,copy_UT,636f7079-5f55-4542-9e6b-696361645f70,rev?*
G04 #@! TF.SameCoordinates,Original*
G04 #@! TF.FileFunction,Copper,L2,Bot*
G04 #@! TF.FilePolarity,Positive*
%FSLAX46Y46*%
G04 Gerber Fmt 4.6, Leading zero omitted, Abs format (unit mm)*
G04 Created by KiCad (PCBNEW (5.1.5)-3) date 2020-02-12 17:51:35*
%MOMM*%
%LPD*%
G04 APERTURE LIST*
%ADD10R,2.000000X2.000000*%
%ADD11C,2.000000*%
%ADD12R,2.800000X2.800000*%
%ADD13O,2.800000X2.800000*%
%ADD14R,3.500000X3.500000*%
%ADD15C,0.100000*%
%ADD16O,1.200000X1.200000*%
%ADD17O,1.600000X1.200000*%
%ADD18C,2.400000*%
%ADD19O,2.400000X2.400000*%
%ADD20C,1.620000*%
%ADD21C,0.500000*%
%ADD22C,0.254000*%
G04 APERTURE END LIST*
D10*
X92710000Y-76200000D03*
D11*
X100310000Y-76200000D03*
D10*
X130810000Y-78740000D03*
D11*
X134310000Y-78740000D03*
D12*
X112705001Y-82135001D03*
D13*
X122865001Y-82135001D03*
D14*
X110490000Y-90170000D03*
G04 #@! TA.AperFunction,ComponentPad*
D15*
G36*
X105313513Y-88423611D02*
G01*
X105386318Y-88434411D01*
X105457714Y-88452295D01*
X105527013Y-88477090D01*
X105593548Y-88508559D01*
X105656678Y-88546398D01*
X105715795Y-88590242D01*
X105770330Y-88639670D01*
X105819758Y-88694205D01*
X105863602Y-88753322D01*
X105901441Y-88816452D01*
X105932910Y-88882987D01*
X105957705Y-88952286D01*
X105975589Y-89023682D01*
X105986389Y-89096487D01*
X105990000Y-89170000D01*
X105990000Y-91170000D01*
X105986389Y-91243513D01*
X105975589Y-91316318D01*
X105957705Y-91387714D01*
X105932910Y-91457013D01*
X105901441Y-91523548D01*
X105863602Y-91586678D01*
X105819758Y-91645795D01*
X105770330Y-91700330D01*
X105715795Y-91749758D01*
X105656678Y-91793602D01*
X105593548Y-91831441D01*
X105527013Y-91862910D01*
X105457714Y-91887705D01*
X105386318Y-91905589D01*
X105313513Y-91916389D01*
X105240000Y-91920000D01*
X103740000Y-91920000D01*
X103666487Y-91916389D01*
X103593682Y-91905589D01*
X103522286Y-91887705D01*
X103452987Y-91862910D01*
X103386452Y-91831441D01*
X103323322Y-91793602D01*
X103264205Y-91749758D01*
X103209670Y-91700330D01*
X103160242Y-91645795D01*
X103116398Y-91586678D01*
X103078559Y-91523548D01*
X103047090Y-91457013D01*
X103022295Y-91387714D01*
X103004411Y-91316318D01*
X102993611Y-91243513D01*
X102990000Y-91170000D01*
X102990000Y-89170000D01*
X102993611Y-89096487D01*
X103004411Y-89023682D01*
X103022295Y-88952286D01*
X103047090Y-88882987D01*
X103078559Y-88816452D01*
X103116398Y-88753322D01*
X103160242Y-88694205D01*
X103209670Y-88639670D01*
X103264205Y-88590242D01*
X103323322Y-88546398D01*
X103386452Y-88508559D01*
X103452987Y-88477090D01*
X103522286Y-88452295D01*
X103593682Y-88434411D01*
X103666487Y-88423611D01*
X103740000Y-88420000D01*
X105240000Y-88420000D01*
X105313513Y-88423611D01*
G37*
G04 #@! TD.AperFunction*
G04 #@! TA.AperFunction,ComponentPad*
G36*
X108450765Y-93124213D02*
G01*
X108535704Y-93136813D01*
X108618999Y-93157677D01*
X108699848Y-93186605D01*
X108777472Y-93223319D01*
X108851124Y-93267464D01*
X108920094Y-93318616D01*
X108983718Y-93376282D01*
X109041384Y-93439906D01*
X109092536Y-93508876D01*
X109136681Y-93582528D01*
X109173395Y-93660152D01*
X109202323Y-93741001D01*
X109223187Y-93824296D01*
X109235787Y-93909235D01*
X109240000Y-93995000D01*
X109240000Y-95745000D01*
X109235787Y-95830765D01*
X109223187Y-95915704D01*
X109202323Y-95998999D01*
X109173395Y-96079848D01*
X109136681Y-96157472D01*
X109092536Y-96231124D01*
X109041384Y-96300094D01*
X108983718Y-96363718D01*
X108920094Y-96421384D01*
X108851124Y-96472536D01*
X108777472Y-96516681D01*
X108699848Y-96553395D01*
X108618999Y-96582323D01*
X108535704Y-96603187D01*
X108450765Y-96615787D01*
X108365000Y-96620000D01*
X106615000Y-96620000D01*
X106529235Y-96615787D01*
X106444296Y-96603187D01*
X106361001Y-96582323D01*
X106280152Y-96553395D01*
X106202528Y-96516681D01*
X106128876Y-96472536D01*
X106059906Y-96421384D01*
X105996282Y-96363718D01*
X105938616Y-96300094D01*
X105887464Y-96231124D01*
X105843319Y-96157472D01*
X105806605Y-96079848D01*
X105777677Y-95998999D01*
X105756813Y-95915704D01*
X105744213Y-95830765D01*
X105740000Y-95745000D01*
X105740000Y-93995000D01*
X105744213Y-93909235D01*
X105756813Y-93824296D01*
X105777677Y-93741001D01*
X105806605Y-93660152D01*
X105843319Y-93582528D01*
X105887464Y-93508876D01*
X105938616Y-93439906D01*
X105996282Y-93376282D01*
X106059906Y-93318616D01*
X106128876Y-93267464D01*
X106202528Y-93223319D01*
X106280152Y-93186605D01*
X106361001Y-93157677D01*
X106444296Y-93136813D01*
X106529235Y-93124213D01*
X106615000Y-93120000D01*
X108365000Y-93120000D01*
X108450765Y-93124213D01*
G37*
G04 #@! TD.AperFunction*
D16*
X125730000Y-92710000D03*
X123190000Y-95250000D03*
D17*
X120650000Y-92710000D03*
D18*
X107950000Y-74930000D03*
D19*
X120650000Y-74930000D03*
D20*
X88900000Y-92630000D03*
X91400000Y-90130000D03*
X88900000Y-87630000D03*
D21*
X88900000Y-78510000D02*
X91210000Y-76200000D01*
X91210000Y-76200000D02*
X92710000Y-76200000D01*
X88900000Y-87630000D02*
X88900000Y-78510000D01*
X100145001Y-82135001D02*
X110805001Y-82135001D01*
X110805001Y-82135001D02*
X112705001Y-82135001D01*
X94210000Y-76200000D02*
X100145001Y-82135001D01*
X92710000Y-76200000D02*
X94210000Y-76200000D01*
X120650000Y-79920000D02*
X120650000Y-74930000D01*
X122865001Y-82135001D02*
X120650000Y-79920000D01*
X130810000Y-80240000D02*
X130810000Y-78740000D01*
X128914999Y-82135001D02*
X130810000Y-80240000D01*
X122865001Y-82135001D02*
X128914999Y-82135001D01*
X88900000Y-92630000D02*
X91400000Y-90130000D01*
X104450000Y-90130000D02*
X104490000Y-90170000D01*
X91400000Y-90130000D02*
X104450000Y-90130000D01*
X119350000Y-92710000D02*
X120650000Y-92710000D01*
X119010001Y-92370001D02*
X119350000Y-92710000D01*
X108190001Y-92370001D02*
X119010001Y-92370001D01*
X105990000Y-90170000D02*
X108190001Y-92370001D01*
X104490000Y-90170000D02*
X105990000Y-90170000D01*
X121900010Y-87182954D02*
X109647056Y-74930000D01*
X109647056Y-74930000D02*
X107950000Y-74930000D01*
X123190000Y-95250000D02*
X121900010Y-93960010D01*
X121900010Y-93960010D02*
X121900010Y-87182954D01*
D22*
G36*
X139319000Y-64894702D02*
G01*
X139319000Y-101219000D01*
X83947000Y-101219000D01*
X83947000Y-93629843D01*
X88079762Y-93629843D01*
X88152556Y-93874832D01*
X88409773Y-93996733D01*
X88685829Y-94066110D01*
X88970115Y-94080298D01*
X89251706Y-94038752D01*
X89374285Y-93995000D01*
X105101928Y-93995000D01*
X105101928Y-95745000D01*
X105131001Y-96040186D01*
X105217104Y-96324028D01*
X105356927Y-96585618D01*
X105545097Y-96814903D01*
X105774382Y-97003073D01*
X106035972Y-97142896D01*
X106319814Y-97228999D01*
X106615000Y-97258072D01*
X108365000Y-97258072D01*
X108660186Y-97228999D01*
X108944028Y-97142896D01*
X109205618Y-97003073D01*
X109434903Y-96814903D01*
X109623073Y-96585618D01*
X109762896Y-96324028D01*
X109848999Y-96040186D01*
X109878072Y-95745000D01*
X109878072Y-93995000D01*
X109848999Y-93699814D01*
X109762896Y-93415972D01*
X109623073Y-93154382D01*
X109519033Y-93027609D01*
X119256538Y-93027609D01*
X119262523Y-93070162D01*
X119355604Y-93294907D01*
X119490742Y-93497174D01*
X119662744Y-93669191D01*
X119865000Y-93804346D01*
X120089737Y-93897446D01*
X120328319Y-93944913D01*
X120523000Y-93789994D01*
X120523000Y-92837000D01*
X119381269Y-92837000D01*
X119256538Y-93027609D01*
X109519033Y-93027609D01*
X109434903Y-92925097D01*
X109205618Y-92736927D01*
X108944028Y-92597104D01*
X108815357Y-92558072D01*
X112240000Y-92558072D01*
X112364482Y-92545812D01*
X112484180Y-92509502D01*
X112594494Y-92450537D01*
X112665345Y-92392391D01*
X119256538Y-92392391D01*
X119381269Y-92583000D01*
X120523000Y-92583000D01*
X120523000Y-91630006D01*
X120328319Y-91475087D01*
X120089737Y-91522554D01*
X119865000Y-91615654D01*
X119662744Y-91750809D01*
X119490742Y-91922826D01*
X119355604Y-92125093D01*
X119262523Y-92349838D01*
X119256538Y-92392391D01*
X112665345Y-92392391D01*
X112691185Y-92371185D01*
X112770537Y-92274494D01*
X112829502Y-92164180D01*
X112865812Y-92044482D01*
X112878072Y-91920000D01*
X112878072Y-88420000D01*
X112865812Y-88295518D01*
X112829502Y-88175820D01*
X112770537Y-88065506D01*
X112691185Y-87968815D01*
X112594494Y-87889463D01*
X112484180Y-87830498D01*
X112364482Y-87794188D01*
X112240000Y-87781928D01*
X108740000Y-87781928D01*
X108615518Y-87794188D01*
X108495820Y-87830498D01*
X108385506Y-87889463D01*
X108288815Y-87968815D01*
X108209463Y-88065506D01*
X108150498Y-88175820D01*
X108114188Y-88295518D01*
X108101928Y-88420000D01*
X108101928Y-91920000D01*
X108114188Y-92044482D01*
X108150498Y-92164180D01*
X108209463Y-92274494D01*
X108288815Y-92371185D01*
X108385506Y-92450537D01*
X108462131Y-92491494D01*
X108365000Y-92481928D01*
X106615000Y-92481928D01*
X106319814Y-92511001D01*
X106035972Y-92597104D01*
X105774382Y-92736927D01*
X105545097Y-92925097D01*
X105356927Y-93154382D01*
X105217104Y-93415972D01*
X105131001Y-93699814D01*
X105101928Y-93995000D01*
X89374285Y-93995000D01*
X89519783Y-93943068D01*
X89647444Y-93874832D01*
X89720238Y-93629843D01*
X88900000Y-92809605D01*
X88079762Y-93629843D01*
X83947000Y-93629843D01*
X83947000Y-92700115D01*
X87449702Y-92700115D01*
X87491248Y-92981706D01*
X87586932Y-93249783D01*
X87655168Y-93377444D01*
X87900157Y-93450238D01*
X88720395Y-92630000D01*
X89079605Y-92630000D01*
X89899843Y-93450238D01*
X90144832Y-93377444D01*
X90266733Y-93120227D01*
X90336110Y-92844171D01*
X90350298Y-92559885D01*
X90308752Y-92278294D01*
X90213068Y-92010217D01*
X90164847Y-91920000D01*
X102351928Y-91920000D01*
X102364188Y-92044482D01*
X102400498Y-92164180D01*
X102459463Y-92274494D01*
X102538815Y-92371185D01*
X102635506Y-92450537D01*
X102745820Y-92509502D01*
X102865518Y-92545812D01*
X102990000Y-92558072D01*
X104204250Y-92555000D01*
X104363000Y-92396250D01*
X104363000Y-90297000D01*
X104617000Y-90297000D01*
X104617000Y-92396250D01*
X104775750Y-92555000D01*
X105990000Y-92558072D01*
X106114482Y-92545812D01*
X106234180Y-92509502D01*
X106344494Y-92450537D01*
X106441185Y-92371185D01*
X106520537Y-92274494D01*
X106579502Y-92164180D01*
X106615812Y-92044482D01*
X106628072Y-91920000D01*
X106625000Y-90455750D01*
X106466250Y-90297000D01*
X104617000Y-90297000D01*
X104363000Y-90297000D01*
X102513750Y-90297000D01*
X102355000Y-90455750D01*
X102351928Y-91920000D01*
X90164847Y-91920000D01*
X90144832Y-91882556D01*
X89899843Y-91809762D01*
X89079605Y-92630000D01*
X88720395Y-92630000D01*
X87900157Y-91809762D01*
X87655168Y-91882556D01*
X87533267Y-92139773D01*
X87463890Y-92415829D01*
X87449702Y-92700115D01*
X83947000Y-92700115D01*
X83947000Y-91630157D01*
X88079762Y-91630157D01*
X88900000Y-92450395D01*
X89720238Y-91630157D01*
X89647444Y-91385168D01*
X89390227Y-91263267D01*
X89114171Y-91193890D01*
X88829885Y-91179702D01*
X88548294Y-91221248D01*
X88280217Y-91316932D01*
X88152556Y-91385168D01*
X88079762Y-91630157D01*
X83947000Y-91630157D01*
X83947000Y-91129843D01*
X90579762Y-91129843D01*
X90652556Y-91374832D01*
X90909773Y-91496733D01*
X91185829Y-91566110D01*
X91470115Y-91580298D01*
X91751706Y-91538752D01*
X92019783Y-91443068D01*
X92147444Y-91374832D01*
X92220238Y-91129843D01*
X91400000Y-90309605D01*
X90579762Y-91129843D01*
X83947000Y-91129843D01*
X83947000Y-90200115D01*
X89949702Y-90200115D01*
X89991248Y-90481706D01*
X90086932Y-90749783D01*
X90155168Y-90877444D01*
X90400157Y-90950238D01*
X91220395Y-90130000D01*
X91579605Y-90130000D01*
X92399843Y-90950238D01*
X92644832Y-90877444D01*
X92766733Y-90620227D01*
X92836110Y-90344171D01*
X92850298Y-90059885D01*
X92808752Y-89778294D01*
X92713068Y-89510217D01*
X92644832Y-89382556D01*
X92399843Y-89309762D01*
X91579605Y-90130000D01*
X91220395Y-90130000D01*
X90400157Y-89309762D01*
X90155168Y-89382556D01*
X90033267Y-89639773D01*
X89963890Y-89915829D01*
X89949702Y-90200115D01*
X83947000Y-90200115D01*
X83947000Y-89130157D01*
X90579762Y-89130157D01*
X91400000Y-89950395D01*
X92220238Y-89130157D01*
X92147444Y-88885168D01*
X91890227Y-88763267D01*
X91614171Y-88693890D01*
X91329885Y-88679702D01*
X91048294Y-88721248D01*
X90780217Y-88816932D01*
X90652556Y-88885168D01*
X90579762Y-89130157D01*
X83947000Y-89130157D01*
X83947000Y-87487680D01*
X87455000Y-87487680D01*
X87455000Y-87772320D01*
X87510530Y-88051491D01*
X87619457Y-88314464D01*
X87777595Y-88551134D01*
X87978866Y-88752405D01*
X88215536Y-88910543D01*
X88478509Y-89019470D01*
X88757680Y-89075000D01*
X89042320Y-89075000D01*
X89321491Y-89019470D01*
X89584464Y-88910543D01*
X89821134Y-88752405D01*
X90022405Y-88551134D01*
X90110026Y-88420000D01*
X102351928Y-88420000D01*
X102355000Y-89884250D01*
X102513750Y-90043000D01*
X104363000Y-90043000D01*
X104363000Y-87943750D01*
X104617000Y-87943750D01*
X104617000Y-90043000D01*
X106466250Y-90043000D01*
X106625000Y-89884250D01*
X106628072Y-88420000D01*
X106615812Y-88295518D01*
X106579502Y-88175820D01*
X106520537Y-88065506D01*
X106441185Y-87968815D01*
X106344494Y-87889463D01*
X106234180Y-87830498D01*
X106114482Y-87794188D01*
X105990000Y-87781928D01*
X104775750Y-87785000D01*
X104617000Y-87943750D01*
X104363000Y-87943750D01*
X104204250Y-87785000D01*
X102990000Y-87781928D01*
X102865518Y-87794188D01*
X102745820Y-87830498D01*
X102635506Y-87889463D01*
X102538815Y-87968815D01*
X102459463Y-88065506D01*
X102400498Y-88175820D01*
X102364188Y-88295518D01*
X102351928Y-88420000D01*
X90110026Y-88420000D01*
X90180543Y-88314464D01*
X90289470Y-88051491D01*
X90345000Y-87772320D01*
X90345000Y-87487680D01*
X90289470Y-87208509D01*
X90180543Y-86945536D01*
X90022405Y-86708866D01*
X89821134Y-86507595D01*
X89785000Y-86483451D01*
X89785000Y-78876578D01*
X91154251Y-77507327D01*
X91179463Y-77554494D01*
X91258815Y-77651185D01*
X91355506Y-77730537D01*
X91465820Y-77789502D01*
X91585518Y-77825812D01*
X91710000Y-77838072D01*
X93710000Y-77838072D01*
X93834482Y-77825812D01*
X93954180Y-77789502D01*
X94064494Y-77730537D01*
X94161185Y-77651185D01*
X94240537Y-77554494D01*
X94265749Y-77507327D01*
X99488471Y-82730050D01*
X99516184Y-82763818D01*
X99549952Y-82791531D01*
X99549954Y-82791533D01*
X99650941Y-82874411D01*
X99650942Y-82874412D01*
X99804688Y-82956590D01*
X99971511Y-83007196D01*
X100101524Y-83020001D01*
X100101532Y-83020001D01*
X100145001Y-83024282D01*
X100188470Y-83020001D01*
X110666929Y-83020001D01*
X110666929Y-83535001D01*
X110679189Y-83659483D01*
X110715499Y-83779181D01*
X110774464Y-83889495D01*
X110853816Y-83986186D01*
X110950507Y-84065538D01*
X111060821Y-84124503D01*
X111180519Y-84160813D01*
X111305001Y-84173073D01*
X114105001Y-84173073D01*
X114229483Y-84160813D01*
X114349181Y-84124503D01*
X114459495Y-84065538D01*
X114556186Y-83986186D01*
X114635538Y-83889495D01*
X114694503Y-83779181D01*
X114730813Y-83659483D01*
X114743073Y-83535001D01*
X114743073Y-81277595D01*
X121015011Y-87549534D01*
X121015010Y-91483708D01*
X120971681Y-91475087D01*
X120777000Y-91630006D01*
X120777000Y-92583000D01*
X120797000Y-92583000D01*
X120797000Y-92837000D01*
X120777000Y-92837000D01*
X120777000Y-93789994D01*
X120971681Y-93944913D01*
X121013026Y-93936687D01*
X121010729Y-93960010D01*
X121015010Y-94003479D01*
X121015010Y-94003486D01*
X121027815Y-94133499D01*
X121078421Y-94300322D01*
X121160599Y-94454068D01*
X121271193Y-94588827D01*
X121304966Y-94616544D01*
X121955000Y-95266579D01*
X121955000Y-95371637D01*
X122002460Y-95610236D01*
X122095557Y-95834992D01*
X122230713Y-96037267D01*
X122402733Y-96209287D01*
X122605008Y-96344443D01*
X122829764Y-96437540D01*
X123068363Y-96485000D01*
X123311637Y-96485000D01*
X123550236Y-96437540D01*
X123774992Y-96344443D01*
X123841697Y-96299872D01*
X132639000Y-96299872D01*
X132639000Y-96740128D01*
X132724890Y-97171925D01*
X132893369Y-97578669D01*
X133137962Y-97944729D01*
X133449271Y-98256038D01*
X133815331Y-98500631D01*
X134222075Y-98669110D01*
X134653872Y-98755000D01*
X135094128Y-98755000D01*
X135525925Y-98669110D01*
X135932669Y-98500631D01*
X136298729Y-98256038D01*
X136610038Y-97944729D01*
X136854631Y-97578669D01*
X137023110Y-97171925D01*
X137109000Y-96740128D01*
X137109000Y-96299872D01*
X137023110Y-95868075D01*
X136854631Y-95461331D01*
X136610038Y-95095271D01*
X136298729Y-94783962D01*
X135932669Y-94539369D01*
X135525925Y-94370890D01*
X135094128Y-94285000D01*
X134653872Y-94285000D01*
X134222075Y-94370890D01*
X133815331Y-94539369D01*
X133449271Y-94783962D01*
X133137962Y-95095271D01*
X132893369Y-95461331D01*
X132724890Y-95868075D01*
X132639000Y-96299872D01*
X123841697Y-96299872D01*
X123977267Y-96209287D01*
X124149287Y-96037267D01*
X124284443Y-95834992D01*
X124377540Y-95610236D01*
X124425000Y-95371637D01*
X124425000Y-95128363D01*
X124377540Y-94889764D01*
X124284443Y-94665008D01*
X124149287Y-94462733D01*
X123977267Y-94290713D01*
X123774992Y-94155557D01*
X123550236Y-94062460D01*
X123311637Y-94015000D01*
X123206579Y-94015000D01*
X122785010Y-93593432D01*
X122785010Y-92588363D01*
X124495000Y-92588363D01*
X124495000Y-92831637D01*
X124542460Y-93070236D01*
X124635557Y-93294992D01*
X124770713Y-93497267D01*
X124942733Y-93669287D01*
X125145008Y-93804443D01*
X125369764Y-93897540D01*
X125608363Y-93945000D01*
X125851637Y-93945000D01*
X126090236Y-93897540D01*
X126314992Y-93804443D01*
X126517267Y-93669287D01*
X126689287Y-93497267D01*
X126824443Y-93294992D01*
X126917540Y-93070236D01*
X126965000Y-92831637D01*
X126965000Y-92588363D01*
X126917540Y-92349764D01*
X126824443Y-92125008D01*
X126689287Y-91922733D01*
X126517267Y-91750713D01*
X126314992Y-91615557D01*
X126090236Y-91522460D01*
X125851637Y-91475000D01*
X125608363Y-91475000D01*
X125369764Y-91522460D01*
X125145008Y-91615557D01*
X124942733Y-91750713D01*
X124770713Y-91922733D01*
X124635557Y-92125008D01*
X124542460Y-92349764D01*
X124495000Y-92588363D01*
X122785010Y-92588363D01*
X122785010Y-87226423D01*
X122789291Y-87182954D01*
X122785010Y-87139485D01*
X122785010Y-87139477D01*
X122772205Y-87009464D01*
X122721599Y-86842641D01*
X122639421Y-86688895D01*
X122528827Y-86554137D01*
X122495059Y-86526424D01*
X110717903Y-74749268D01*
X118815000Y-74749268D01*
X118815000Y-75110732D01*
X118885518Y-75465250D01*
X119023844Y-75799199D01*
X119224662Y-76099744D01*
X119480256Y-76355338D01*
X119765001Y-76545599D01*
X119765000Y-79876531D01*
X119760719Y-79920000D01*
X119765000Y-79963469D01*
X119765000Y-79963476D01*
X119775148Y-80066511D01*
X119777805Y-80093490D01*
X119791858Y-80139814D01*
X119828411Y-80260312D01*
X119910589Y-80414058D01*
X120021183Y-80548817D01*
X120054956Y-80576534D01*
X120940901Y-81462479D01*
X120908205Y-81541414D01*
X120830001Y-81934571D01*
X120830001Y-82335431D01*
X120908205Y-82728588D01*
X121061608Y-83098935D01*
X121284314Y-83432238D01*
X121567764Y-83715688D01*
X121901067Y-83938394D01*
X122271414Y-84091797D01*
X122664571Y-84170001D01*
X123065431Y-84170001D01*
X123458588Y-84091797D01*
X123828935Y-83938394D01*
X124162238Y-83715688D01*
X124445688Y-83432238D01*
X124668394Y-83098935D01*
X124701090Y-83020001D01*
X128871530Y-83020001D01*
X128914999Y-83024282D01*
X128958468Y-83020001D01*
X128958476Y-83020001D01*
X129088489Y-83007196D01*
X129255312Y-82956590D01*
X129409058Y-82874412D01*
X129543816Y-82763818D01*
X129571533Y-82730045D01*
X131405050Y-80896529D01*
X131438817Y-80868817D01*
X131549411Y-80734059D01*
X131631589Y-80580313D01*
X131682195Y-80413490D01*
X131685683Y-80378072D01*
X131810000Y-80378072D01*
X131934482Y-80365812D01*
X132054180Y-80329502D01*
X132164494Y-80270537D01*
X132261185Y-80191185D01*
X132340537Y-80094494D01*
X132399502Y-79984180D01*
X132432496Y-79875413D01*
X133354192Y-79875413D01*
X133449956Y-80139814D01*
X133739571Y-80280704D01*
X134051108Y-80362384D01*
X134372595Y-80381718D01*
X134691675Y-80337961D01*
X134996088Y-80232795D01*
X135170044Y-80139814D01*
X135265808Y-79875413D01*
X134310000Y-78919605D01*
X133354192Y-79875413D01*
X132432496Y-79875413D01*
X132435812Y-79864482D01*
X132448072Y-79740000D01*
X132448072Y-78802595D01*
X132668282Y-78802595D01*
X132712039Y-79121675D01*
X132817205Y-79426088D01*
X132910186Y-79600044D01*
X133174587Y-79695808D01*
X134130395Y-78740000D01*
X134489605Y-78740000D01*
X135445413Y-79695808D01*
X135709814Y-79600044D01*
X135850704Y-79310429D01*
X135932384Y-78998892D01*
X135951718Y-78677405D01*
X135907961Y-78358325D01*
X135802795Y-78053912D01*
X135709814Y-77879956D01*
X135445413Y-77784192D01*
X134489605Y-78740000D01*
X134130395Y-78740000D01*
X133174587Y-77784192D01*
X132910186Y-77879956D01*
X132769296Y-78169571D01*
X132687616Y-78481108D01*
X132668282Y-78802595D01*
X132448072Y-78802595D01*
X132448072Y-77740000D01*
X132435812Y-77615518D01*
X132432497Y-77604587D01*
X133354192Y-77604587D01*
X134310000Y-78560395D01*
X135265808Y-77604587D01*
X135170044Y-77340186D01*
X134880429Y-77199296D01*
X134568892Y-77117616D01*
X134247405Y-77098282D01*
X133928325Y-77142039D01*
X133623912Y-77247205D01*
X133449956Y-77340186D01*
X133354192Y-77604587D01*
X132432497Y-77604587D01*
X132399502Y-77495820D01*
X132340537Y-77385506D01*
X132261185Y-77288815D01*
X132164494Y-77209463D01*
X132054180Y-77150498D01*
X131934482Y-77114188D01*
X131810000Y-77101928D01*
X129810000Y-77101928D01*
X129685518Y-77114188D01*
X129565820Y-77150498D01*
X129455506Y-77209463D01*
X129358815Y-77288815D01*
X129279463Y-77385506D01*
X129220498Y-77495820D01*
X129184188Y-77615518D01*
X129171928Y-77740000D01*
X129171928Y-79740000D01*
X129184188Y-79864482D01*
X129220498Y-79984180D01*
X129279463Y-80094494D01*
X129358815Y-80191185D01*
X129455506Y-80270537D01*
X129502673Y-80295749D01*
X128548421Y-81250001D01*
X124701090Y-81250001D01*
X124668394Y-81171067D01*
X124445688Y-80837764D01*
X124162238Y-80554314D01*
X123828935Y-80331608D01*
X123458588Y-80178205D01*
X123065431Y-80100001D01*
X122664571Y-80100001D01*
X122271414Y-80178205D01*
X122192479Y-80210901D01*
X121535000Y-79553422D01*
X121535000Y-76545598D01*
X121819744Y-76355338D01*
X122075338Y-76099744D01*
X122276156Y-75799199D01*
X122414482Y-75465250D01*
X122485000Y-75110732D01*
X122485000Y-74749268D01*
X122414482Y-74394750D01*
X122276156Y-74060801D01*
X122075338Y-73760256D01*
X121819744Y-73504662D01*
X121519199Y-73303844D01*
X121185250Y-73165518D01*
X120830732Y-73095000D01*
X120469268Y-73095000D01*
X120114750Y-73165518D01*
X119780801Y-73303844D01*
X119480256Y-73504662D01*
X119224662Y-73760256D01*
X119023844Y-74060801D01*
X118885518Y-74394750D01*
X118815000Y-74749268D01*
X110717903Y-74749268D01*
X110303590Y-74334956D01*
X110275873Y-74301183D01*
X110141115Y-74190589D01*
X109987369Y-74108411D01*
X109820546Y-74057805D01*
X109690533Y-74045000D01*
X109690525Y-74045000D01*
X109647056Y-74040719D01*
X109603587Y-74045000D01*
X109565598Y-74045000D01*
X109375338Y-73760256D01*
X109119744Y-73504662D01*
X108819199Y-73303844D01*
X108485250Y-73165518D01*
X108130732Y-73095000D01*
X107769268Y-73095000D01*
X107414750Y-73165518D01*
X107080801Y-73303844D01*
X106780256Y-73504662D01*
X106524662Y-73760256D01*
X106323844Y-74060801D01*
X106185518Y-74394750D01*
X106115000Y-74749268D01*
X106115000Y-75110732D01*
X106185518Y-75465250D01*
X106323844Y-75799199D01*
X106524662Y-76099744D01*
X106780256Y-76355338D01*
X107080801Y-76556156D01*
X107414750Y-76694482D01*
X107769268Y-76765000D01*
X108130732Y-76765000D01*
X108485250Y-76694482D01*
X108819199Y-76556156D01*
X109119744Y-76355338D01*
X109375338Y-76099744D01*
X109451395Y-75985917D01*
X113562407Y-80096929D01*
X111305001Y-80096929D01*
X111180519Y-80109189D01*
X111060821Y-80145499D01*
X110950507Y-80204464D01*
X110853816Y-80283816D01*
X110774464Y-80380507D01*
X110715499Y-80490821D01*
X110679189Y-80610519D01*
X110666929Y-80735001D01*
X110666929Y-81250001D01*
X100511580Y-81250001D01*
X95300546Y-76038967D01*
X98675000Y-76038967D01*
X98675000Y-76361033D01*
X98737832Y-76676912D01*
X98861082Y-76974463D01*
X99040013Y-77242252D01*
X99267748Y-77469987D01*
X99535537Y-77648918D01*
X99833088Y-77772168D01*
X100148967Y-77835000D01*
X100471033Y-77835000D01*
X100786912Y-77772168D01*
X101084463Y-77648918D01*
X101352252Y-77469987D01*
X101579987Y-77242252D01*
X101758918Y-76974463D01*
X101882168Y-76676912D01*
X101945000Y-76361033D01*
X101945000Y-76038967D01*
X101882168Y-75723088D01*
X101758918Y-75425537D01*
X101579987Y-75157748D01*
X101352252Y-74930013D01*
X101084463Y-74751082D01*
X100786912Y-74627832D01*
X100471033Y-74565000D01*
X100148967Y-74565000D01*
X99833088Y-74627832D01*
X99535537Y-74751082D01*
X99267748Y-74930013D01*
X99040013Y-75157748D01*
X98861082Y-75425537D01*
X98737832Y-75723088D01*
X98675000Y-76038967D01*
X95300546Y-76038967D01*
X94866534Y-75604956D01*
X94838817Y-75571183D01*
X94704059Y-75460589D01*
X94550313Y-75378411D01*
X94383490Y-75327805D01*
X94348072Y-75324317D01*
X94348072Y-75200000D01*
X94335812Y-75075518D01*
X94299502Y-74955820D01*
X94240537Y-74845506D01*
X94161185Y-74748815D01*
X94064494Y-74669463D01*
X93954180Y-74610498D01*
X93834482Y-74574188D01*
X93710000Y-74561928D01*
X91710000Y-74561928D01*
X91585518Y-74574188D01*
X91465820Y-74610498D01*
X91355506Y-74669463D01*
X91258815Y-74748815D01*
X91179463Y-74845506D01*
X91120498Y-74955820D01*
X91084188Y-75075518D01*
X91071928Y-75200000D01*
X91071928Y-75324317D01*
X91036510Y-75327805D01*
X90869687Y-75378411D01*
X90715941Y-75460589D01*
X90715939Y-75460590D01*
X90715940Y-75460590D01*
X90614953Y-75543468D01*
X90614951Y-75543470D01*
X90581183Y-75571183D01*
X90553470Y-75604951D01*
X88304951Y-77853471D01*
X88271184Y-77881183D01*
X88243471Y-77914951D01*
X88243468Y-77914954D01*
X88160590Y-78015941D01*
X88078412Y-78169687D01*
X88027805Y-78336510D01*
X88010719Y-78510000D01*
X88015001Y-78553479D01*
X88015000Y-86483451D01*
X87978866Y-86507595D01*
X87777595Y-86708866D01*
X87619457Y-86945536D01*
X87510530Y-87208509D01*
X87455000Y-87487680D01*
X83947000Y-87487680D01*
X83947000Y-67851872D01*
X85903000Y-67851872D01*
X85903000Y-68292128D01*
X85988890Y-68723925D01*
X86157369Y-69130669D01*
X86401962Y-69496729D01*
X86713271Y-69808038D01*
X87079331Y-70052631D01*
X87486075Y-70221110D01*
X87917872Y-70307000D01*
X88358128Y-70307000D01*
X88789925Y-70221110D01*
X89196669Y-70052631D01*
X89562729Y-69808038D01*
X89874038Y-69496729D01*
X90118631Y-69130669D01*
X90287110Y-68723925D01*
X90309000Y-68613872D01*
X133401000Y-68613872D01*
X133401000Y-69054128D01*
X133486890Y-69485925D01*
X133655369Y-69892669D01*
X133899962Y-70258729D01*
X134211271Y-70570038D01*
X134577331Y-70814631D01*
X134984075Y-70983110D01*
X135415872Y-71069000D01*
X135856128Y-71069000D01*
X136287925Y-70983110D01*
X136694669Y-70814631D01*
X137060729Y-70570038D01*
X137372038Y-70258729D01*
X137616631Y-69892669D01*
X137785110Y-69485925D01*
X137871000Y-69054128D01*
X137871000Y-68613872D01*
X137785110Y-68182075D01*
X137616631Y-67775331D01*
X137372038Y-67409271D01*
X137060729Y-67097962D01*
X136694669Y-66853369D01*
X136287925Y-66684890D01*
X135856128Y-66599000D01*
X135415872Y-66599000D01*
X134984075Y-66684890D01*
X134577331Y-66853369D01*
X134211271Y-67097962D01*
X133899962Y-67409271D01*
X133655369Y-67775331D01*
X133486890Y-68182075D01*
X133401000Y-68613872D01*
X90309000Y-68613872D01*
X90373000Y-68292128D01*
X90373000Y-67851872D01*
X90287110Y-67420075D01*
X90118631Y-67013331D01*
X89874038Y-66647271D01*
X89562729Y-66335962D01*
X89196669Y-66091369D01*
X88789925Y-65922890D01*
X88358128Y-65837000D01*
X87917872Y-65837000D01*
X87486075Y-65922890D01*
X87079331Y-66091369D01*
X86713271Y-66335962D01*
X86401962Y-66647271D01*
X86157369Y-67013331D01*
X85988890Y-67420075D01*
X85903000Y-67851872D01*
X83947000Y-67851872D01*
X83947000Y-63883341D01*
X139319000Y-64894702D01*
G37*
X139319000Y-64894702D02*
X139319000Y-101219000D01*
X83947000Y-101219000D01*
X83947000Y-93629843D01*
X88079762Y-93629843D01*
X88152556Y-93874832D01*
X88409773Y-93996733D01*
X88685829Y-94066110D01*
X88970115Y-94080298D01*
X89251706Y-94038752D01*
X89374285Y-93995000D01*
X105101928Y-93995000D01*
X105101928Y-95745000D01*
X105131001Y-96040186D01*
X105217104Y-96324028D01*
X105356927Y-96585618D01*
X105545097Y-96814903D01*
X105774382Y-97003073D01*
X106035972Y-97142896D01*
X106319814Y-97228999D01*
X106615000Y-97258072D01*
X108365000Y-97258072D01*
X108660186Y-97228999D01*
X108944028Y-97142896D01*
X109205618Y-97003073D01*
X109434903Y-96814903D01*
X109623073Y-96585618D01*
X109762896Y-96324028D01*
X109848999Y-96040186D01*
X109878072Y-95745000D01*
X109878072Y-93995000D01*
X109848999Y-93699814D01*
X109762896Y-93415972D01*
X109623073Y-93154382D01*
X109519033Y-93027609D01*
X119256538Y-93027609D01*
X119262523Y-93070162D01*
X119355604Y-93294907D01*
X119490742Y-93497174D01*
X119662744Y-93669191D01*
X119865000Y-93804346D01*
X120089737Y-93897446D01*
X120328319Y-93944913D01*
X120523000Y-93789994D01*
X120523000Y-92837000D01*
X119381269Y-92837000D01*
X119256538Y-93027609D01*
X109519033Y-93027609D01*
X109434903Y-92925097D01*
X109205618Y-92736927D01*
X108944028Y-92597104D01*
X108815357Y-92558072D01*
X112240000Y-92558072D01*
X112364482Y-92545812D01*
X112484180Y-92509502D01*
X112594494Y-92450537D01*
X112665345Y-92392391D01*
X119256538Y-92392391D01*
X119381269Y-92583000D01*
X120523000Y-92583000D01*
X120523000Y-91630006D01*
X120328319Y-91475087D01*
X120089737Y-91522554D01*
X119865000Y-91615654D01*
X119662744Y-91750809D01*
X119490742Y-91922826D01*
X119355604Y-92125093D01*
X119262523Y-92349838D01*
X119256538Y-92392391D01*
X112665345Y-92392391D01*
X112691185Y-92371185D01*
X112770537Y-92274494D01*
X112829502Y-92164180D01*
X112865812Y-92044482D01*
X112878072Y-91920000D01*
X112878072Y-88420000D01*
X112865812Y-88295518D01*
X112829502Y-88175820D01*
X112770537Y-88065506D01*
X112691185Y-87968815D01*
X112594494Y-87889463D01*
X112484180Y-87830498D01*
X112364482Y-87794188D01*
X112240000Y-87781928D01*
X108740000Y-87781928D01*
X108615518Y-87794188D01*
X108495820Y-87830498D01*
X108385506Y-87889463D01*
X108288815Y-87968815D01*
X108209463Y-88065506D01*
X108150498Y-88175820D01*
X108114188Y-88295518D01*
X108101928Y-88420000D01*
X108101928Y-91920000D01*
X108114188Y-92044482D01*
X108150498Y-92164180D01*
X108209463Y-92274494D01*
X108288815Y-92371185D01*
X108385506Y-92450537D01*
X108462131Y-92491494D01*
X108365000Y-92481928D01*
X106615000Y-92481928D01*
X106319814Y-92511001D01*
X106035972Y-92597104D01*
X105774382Y-92736927D01*
X105545097Y-92925097D01*
X105356927Y-93154382D01*
X105217104Y-93415972D01*
X105131001Y-93699814D01*
X105101928Y-93995000D01*
X89374285Y-93995000D01*
X89519783Y-93943068D01*
X89647444Y-93874832D01*
X89720238Y-93629843D01*
X88900000Y-92809605D01*
X88079762Y-93629843D01*
X83947000Y-93629843D01*
X83947000Y-92700115D01*
X87449702Y-92700115D01*
X87491248Y-92981706D01*
X87586932Y-93249783D01*
X87655168Y-93377444D01*
X87900157Y-93450238D01*
X88720395Y-92630000D01*
X89079605Y-92630000D01*
X89899843Y-93450238D01*
X90144832Y-93377444D01*
X90266733Y-93120227D01*
X90336110Y-92844171D01*
X90350298Y-92559885D01*
X90308752Y-92278294D01*
X90213068Y-92010217D01*
X90164847Y-91920000D01*
X102351928Y-91920000D01*
X102364188Y-92044482D01*
X102400498Y-92164180D01*
X102459463Y-92274494D01*
X102538815Y-92371185D01*
X102635506Y-92450537D01*
X102745820Y-92509502D01*
X102865518Y-92545812D01*
X102990000Y-92558072D01*
X104204250Y-92555000D01*
X104363000Y-92396250D01*
X104363000Y-90297000D01*
X104617000Y-90297000D01*
X104617000Y-92396250D01*
X104775750Y-92555000D01*
X105990000Y-92558072D01*
X106114482Y-92545812D01*
X106234180Y-92509502D01*
X106344494Y-92450537D01*
X106441185Y-92371185D01*
X106520537Y-92274494D01*
X106579502Y-92164180D01*
X106615812Y-92044482D01*
X106628072Y-91920000D01*
X106625000Y-90455750D01*
X106466250Y-90297000D01*
X104617000Y-90297000D01*
X104363000Y-90297000D01*
X102513750Y-90297000D01*
X102355000Y-90455750D01*
X102351928Y-91920000D01*
X90164847Y-91920000D01*
X90144832Y-91882556D01*
X89899843Y-91809762D01*
X89079605Y-92630000D01*
X88720395Y-92630000D01*
X87900157Y-91809762D01*
X87655168Y-91882556D01*
X87533267Y-92139773D01*
X87463890Y-92415829D01*
X87449702Y-92700115D01*
X83947000Y-92700115D01*
X83947000Y-91630157D01*
X88079762Y-91630157D01*
X88900000Y-92450395D01*
X89720238Y-91630157D01*
X89647444Y-91385168D01*
X89390227Y-91263267D01*
X89114171Y-91193890D01*
X88829885Y-91179702D01*
X88548294Y-91221248D01*
X88280217Y-91316932D01*
X88152556Y-91385168D01*
X88079762Y-91630157D01*
X83947000Y-91630157D01*
X83947000Y-91129843D01*
X90579762Y-91129843D01*
X90652556Y-91374832D01*
X90909773Y-91496733D01*
X91185829Y-91566110D01*
X91470115Y-91580298D01*
X91751706Y-91538752D01*
X92019783Y-91443068D01*
X92147444Y-91374832D01*
X92220238Y-91129843D01*
X91400000Y-90309605D01*
X90579762Y-91129843D01*
X83947000Y-91129843D01*
X83947000Y-90200115D01*
X89949702Y-90200115D01*
X89991248Y-90481706D01*
X90086932Y-90749783D01*
X90155168Y-90877444D01*
X90400157Y-90950238D01*
X91220395Y-90130000D01*
X91579605Y-90130000D01*
X92399843Y-90950238D01*
X92644832Y-90877444D01*
X92766733Y-90620227D01*
X92836110Y-90344171D01*
X92850298Y-90059885D01*
X92808752Y-89778294D01*
X92713068Y-89510217D01*
X92644832Y-89382556D01*
X92399843Y-89309762D01*
X91579605Y-90130000D01*
X91220395Y-90130000D01*
X90400157Y-89309762D01*
X90155168Y-89382556D01*
X90033267Y-89639773D01*
X89963890Y-89915829D01*
X89949702Y-90200115D01*
X83947000Y-90200115D01*
X83947000Y-89130157D01*
X90579762Y-89130157D01*
X91400000Y-89950395D01*
X92220238Y-89130157D01*
X92147444Y-88885168D01*
X91890227Y-88763267D01*
X91614171Y-88693890D01*
X91329885Y-88679702D01*
X91048294Y-88721248D01*
X90780217Y-88816932D01*
X90652556Y-88885168D01*
X90579762Y-89130157D01*
X83947000Y-89130157D01*
X83947000Y-87487680D01*
X87455000Y-87487680D01*
X87455000Y-87772320D01*
X87510530Y-88051491D01*
X87619457Y-88314464D01*
X87777595Y-88551134D01*
X87978866Y-88752405D01*
X88215536Y-88910543D01*
X88478509Y-89019470D01*
X88757680Y-89075000D01*
X89042320Y-89075000D01*
X89321491Y-89019470D01*
X89584464Y-88910543D01*
X89821134Y-88752405D01*
X90022405Y-88551134D01*
X90110026Y-88420000D01*
X102351928Y-88420000D01*
X102355000Y-89884250D01*
X102513750Y-90043000D01*
X104363000Y-90043000D01*
X104363000Y-87943750D01*
X104617000Y-87943750D01*
X104617000Y-90043000D01*
X106466250Y-90043000D01*
X106625000Y-89884250D01*
X106628072Y-88420000D01*
X106615812Y-88295518D01*
X106579502Y-88175820D01*
X106520537Y-88065506D01*
X106441185Y-87968815D01*
X106344494Y-87889463D01*
X106234180Y-87830498D01*
X106114482Y-87794188D01*
X105990000Y-87781928D01*
X104775750Y-87785000D01*
X104617000Y-87943750D01*
X104363000Y-87943750D01*
X104204250Y-87785000D01*
X102990000Y-87781928D01*
X102865518Y-87794188D01*
X102745820Y-87830498D01*
X102635506Y-87889463D01*
X102538815Y-87968815D01*
X102459463Y-88065506D01*
X102400498Y-88175820D01*
X102364188Y-88295518D01*
X102351928Y-88420000D01*
X90110026Y-88420000D01*
X90180543Y-88314464D01*
X90289470Y-88051491D01*
X90345000Y-87772320D01*
X90345000Y-87487680D01*
X90289470Y-87208509D01*
X90180543Y-86945536D01*
X90022405Y-86708866D01*
X89821134Y-86507595D01*
X89785000Y-86483451D01*
X89785000Y-78876578D01*
X91154251Y-77507327D01*
X91179463Y-77554494D01*
X91258815Y-77651185D01*
X91355506Y-77730537D01*
X91465820Y-77789502D01*
X91585518Y-77825812D01*
X91710000Y-77838072D01*
X93710000Y-77838072D01*
X93834482Y-77825812D01*
X93954180Y-77789502D01*
X94064494Y-77730537D01*
X94161185Y-77651185D01*
X94240537Y-77554494D01*
X94265749Y-77507327D01*
X99488471Y-82730050D01*
X99516184Y-82763818D01*
X99549952Y-82791531D01*
X99549954Y-82791533D01*
X99650941Y-82874411D01*
X99650942Y-82874412D01*
X99804688Y-82956590D01*
X99971511Y-83007196D01*
X100101524Y-83020001D01*
X100101532Y-83020001D01*
X100145001Y-83024282D01*
X100188470Y-83020001D01*
X110666929Y-83020001D01*
X110666929Y-83535001D01*
X110679189Y-83659483D01*
X110715499Y-83779181D01*
X110774464Y-83889495D01*
X110853816Y-83986186D01*
X110950507Y-84065538D01*
X111060821Y-84124503D01*
X111180519Y-84160813D01*
X111305001Y-84173073D01*
X114105001Y-84173073D01*
X114229483Y-84160813D01*
X114349181Y-84124503D01*
X114459495Y-84065538D01*
X114556186Y-83986186D01*
X114635538Y-83889495D01*
X114694503Y-83779181D01*
X114730813Y-83659483D01*
X114743073Y-83535001D01*
X114743073Y-81277595D01*
X121015011Y-87549534D01*
X121015010Y-91483708D01*
X120971681Y-91475087D01*
X120777000Y-91630006D01*
X120777000Y-92583000D01*
X120797000Y-92583000D01*
X120797000Y-92837000D01*
X120777000Y-92837000D01*
X120777000Y-93789994D01*
X120971681Y-93944913D01*
X121013026Y-93936687D01*
X121010729Y-93960010D01*
X121015010Y-94003479D01*
X121015010Y-94003486D01*
X121027815Y-94133499D01*
X121078421Y-94300322D01*
X121160599Y-94454068D01*
X121271193Y-94588827D01*
X121304966Y-94616544D01*
X121955000Y-95266579D01*
X121955000Y-95371637D01*
X122002460Y-95610236D01*
X122095557Y-95834992D01*
X122230713Y-96037267D01*
X122402733Y-96209287D01*
X122605008Y-96344443D01*
X122829764Y-96437540D01*
X123068363Y-96485000D01*
X123311637Y-96485000D01*
X123550236Y-96437540D01*
X123774992Y-96344443D01*
X123841697Y-96299872D01*
X132639000Y-96299872D01*
X132639000Y-96740128D01*
X132724890Y-97171925D01*
X132893369Y-97578669D01*
X133137962Y-97944729D01*
X133449271Y-98256038D01*
X133815331Y-98500631D01*
X134222075Y-98669110D01*
X134653872Y-98755000D01*
X135094128Y-98755000D01*
X135525925Y-98669110D01*
X135932669Y-98500631D01*
X136298729Y-98256038D01*
X136610038Y-97944729D01*
X136854631Y-97578669D01*
X137023110Y-97171925D01*
X137109000Y-96740128D01*
X137109000Y-96299872D01*
X137023110Y-95868075D01*
X136854631Y-95461331D01*
X136610038Y-95095271D01*
X136298729Y-94783962D01*
X135932669Y-94539369D01*
X135525925Y-94370890D01*
X135094128Y-94285000D01*
X134653872Y-94285000D01*
X134222075Y-94370890D01*
X133815331Y-94539369D01*
X133449271Y-94783962D01*
X133137962Y-95095271D01*
X132893369Y-95461331D01*
X132724890Y-95868075D01*
X132639000Y-96299872D01*
X123841697Y-96299872D01*
X123977267Y-96209287D01*
X124149287Y-96037267D01*
X124284443Y-95834992D01*
X124377540Y-95610236D01*
X124425000Y-95371637D01*
X124425000Y-95128363D01*
X124377540Y-94889764D01*
X124284443Y-94665008D01*
X124149287Y-94462733D01*
X123977267Y-94290713D01*
X123774992Y-94155557D01*
X123550236Y-94062460D01*
X123311637Y-94015000D01*
X123206579Y-94015000D01*
X122785010Y-93593432D01*
X122785010Y-92588363D01*
X124495000Y-92588363D01*
X124495000Y-92831637D01*
X124542460Y-93070236D01*
X124635557Y-93294992D01*
X124770713Y-93497267D01*
X124942733Y-93669287D01*
X125145008Y-93804443D01*
X125369764Y-93897540D01*
X125608363Y-93945000D01*
X125851637Y-93945000D01*
X126090236Y-93897540D01*
X126314992Y-93804443D01*
X126517267Y-93669287D01*
X126689287Y-93497267D01*
X126824443Y-93294992D01*
X126917540Y-93070236D01*
X126965000Y-92831637D01*
X126965000Y-92588363D01*
X126917540Y-92349764D01*
X126824443Y-92125008D01*
X126689287Y-91922733D01*
X126517267Y-91750713D01*
X126314992Y-91615557D01*
X126090236Y-91522460D01*
X125851637Y-91475000D01*
X125608363Y-91475000D01*
X125369764Y-91522460D01*
X125145008Y-91615557D01*
X124942733Y-91750713D01*
X124770713Y-91922733D01*
X124635557Y-92125008D01*
X124542460Y-92349764D01*
X124495000Y-92588363D01*
X122785010Y-92588363D01*
X122785010Y-87226423D01*
X122789291Y-87182954D01*
X122785010Y-87139485D01*
X122785010Y-87139477D01*
X122772205Y-87009464D01*
X122721599Y-86842641D01*
X122639421Y-86688895D01*
X122528827Y-86554137D01*
X122495059Y-86526424D01*
X110717903Y-74749268D01*
X118815000Y-74749268D01*
X118815000Y-75110732D01*
X118885518Y-75465250D01*
X119023844Y-75799199D01*
X119224662Y-76099744D01*
X119480256Y-76355338D01*
X119765001Y-76545599D01*
X119765000Y-79876531D01*
X119760719Y-79920000D01*
X119765000Y-79963469D01*
X119765000Y-79963476D01*
X119775148Y-80066511D01*
X119777805Y-80093490D01*
X119791858Y-80139814D01*
X119828411Y-80260312D01*
X119910589Y-80414058D01*
X120021183Y-80548817D01*
X120054956Y-80576534D01*
X120940901Y-81462479D01*
X120908205Y-81541414D01*
X120830001Y-81934571D01*
X120830001Y-82335431D01*
X120908205Y-82728588D01*
X121061608Y-83098935D01*
X121284314Y-83432238D01*
X121567764Y-83715688D01*
X121901067Y-83938394D01*
X122271414Y-84091797D01*
X122664571Y-84170001D01*
X123065431Y-84170001D01*
X123458588Y-84091797D01*
X123828935Y-83938394D01*
X124162238Y-83715688D01*
X124445688Y-83432238D01*
X124668394Y-83098935D01*
X124701090Y-83020001D01*
X128871530Y-83020001D01*
X128914999Y-83024282D01*
X128958468Y-83020001D01*
X128958476Y-83020001D01*
X129088489Y-83007196D01*
X129255312Y-82956590D01*
X129409058Y-82874412D01*
X129543816Y-82763818D01*
X129571533Y-82730045D01*
X131405050Y-80896529D01*
X131438817Y-80868817D01*
X131549411Y-80734059D01*
X131631589Y-80580313D01*
X131682195Y-80413490D01*
X131685683Y-80378072D01*
X131810000Y-80378072D01*
X131934482Y-80365812D01*
X132054180Y-80329502D01*
X132164494Y-80270537D01*
X132261185Y-80191185D01*
X132340537Y-80094494D01*
X132399502Y-79984180D01*
X132432496Y-79875413D01*
X133354192Y-79875413D01*
X133449956Y-80139814D01*
X133739571Y-80280704D01*
X134051108Y-80362384D01*
X134372595Y-80381718D01*
X134691675Y-80337961D01*
X134996088Y-80232795D01*
X135170044Y-80139814D01*
X135265808Y-79875413D01*
X134310000Y-78919605D01*
X133354192Y-79875413D01*
X132432496Y-79875413D01*
X132435812Y-79864482D01*
X132448072Y-79740000D01*
X132448072Y-78802595D01*
X132668282Y-78802595D01*
X132712039Y-79121675D01*
X132817205Y-79426088D01*
X132910186Y-79600044D01*
X133174587Y-79695808D01*
X134130395Y-78740000D01*
X134489605Y-78740000D01*
X135445413Y-79695808D01*
X135709814Y-79600044D01*
X135850704Y-79310429D01*
X135932384Y-78998892D01*
X135951718Y-78677405D01*
X135907961Y-78358325D01*
X135802795Y-78053912D01*
X135709814Y-77879956D01*
X135445413Y-77784192D01*
X134489605Y-78740000D01*
X134130395Y-78740000D01*
X133174587Y-77784192D01*
X132910186Y-77879956D01*
X132769296Y-78169571D01*
X132687616Y-78481108D01*
X132668282Y-78802595D01*
X132448072Y-78802595D01*
X132448072Y-77740000D01*
X132435812Y-77615518D01*
X132432497Y-77604587D01*
X133354192Y-77604587D01*
X134310000Y-78560395D01*
X135265808Y-77604587D01*
X135170044Y-77340186D01*
X134880429Y-77199296D01*
X134568892Y-77117616D01*
X134247405Y-77098282D01*
X133928325Y-77142039D01*
X133623912Y-77247205D01*
X133449956Y-77340186D01*
X133354192Y-77604587D01*
X132432497Y-77604587D01*
X132399502Y-77495820D01*
X132340537Y-77385506D01*
X132261185Y-77288815D01*
X132164494Y-77209463D01*
X132054180Y-77150498D01*
X131934482Y-77114188D01*
X131810000Y-77101928D01*
X129810000Y-77101928D01*
X129685518Y-77114188D01*
X129565820Y-77150498D01*
X129455506Y-77209463D01*
X129358815Y-77288815D01*
X129279463Y-77385506D01*
X129220498Y-77495820D01*
X129184188Y-77615518D01*
X129171928Y-77740000D01*
X129171928Y-79740000D01*
X129184188Y-79864482D01*
X129220498Y-79984180D01*
X129279463Y-80094494D01*
X129358815Y-80191185D01*
X129455506Y-80270537D01*
X129502673Y-80295749D01*
X128548421Y-81250001D01*
X124701090Y-81250001D01*
X124668394Y-81171067D01*
X124445688Y-80837764D01*
X124162238Y-80554314D01*
X123828935Y-80331608D01*
X123458588Y-80178205D01*
X123065431Y-80100001D01*
X122664571Y-80100001D01*
X122271414Y-80178205D01*
X122192479Y-80210901D01*
X121535000Y-79553422D01*
X121535000Y-76545598D01*
X121819744Y-76355338D01*
X122075338Y-76099744D01*
X122276156Y-75799199D01*
X122414482Y-75465250D01*
X122485000Y-75110732D01*
X122485000Y-74749268D01*
X122414482Y-74394750D01*
X122276156Y-74060801D01*
X122075338Y-73760256D01*
X121819744Y-73504662D01*
X121519199Y-73303844D01*
X121185250Y-73165518D01*
X120830732Y-73095000D01*
X120469268Y-73095000D01*
X120114750Y-73165518D01*
X119780801Y-73303844D01*
X119480256Y-73504662D01*
X119224662Y-73760256D01*
X119023844Y-74060801D01*
X118885518Y-74394750D01*
X118815000Y-74749268D01*
X110717903Y-74749268D01*
X110303590Y-74334956D01*
X110275873Y-74301183D01*
X110141115Y-74190589D01*
X109987369Y-74108411D01*
X109820546Y-74057805D01*
X109690533Y-74045000D01*
X109690525Y-74045000D01*
X109647056Y-74040719D01*
X109603587Y-74045000D01*
X109565598Y-74045000D01*
X109375338Y-73760256D01*
X109119744Y-73504662D01*
X108819199Y-73303844D01*
X108485250Y-73165518D01*
X108130732Y-73095000D01*
X107769268Y-73095000D01*
X107414750Y-73165518D01*
X107080801Y-73303844D01*
X106780256Y-73504662D01*
X106524662Y-73760256D01*
X106323844Y-74060801D01*
X106185518Y-74394750D01*
X106115000Y-74749268D01*
X106115000Y-75110732D01*
X106185518Y-75465250D01*
X106323844Y-75799199D01*
X106524662Y-76099744D01*
X106780256Y-76355338D01*
X107080801Y-76556156D01*
X107414750Y-76694482D01*
X107769268Y-76765000D01*
X108130732Y-76765000D01*
X108485250Y-76694482D01*
X108819199Y-76556156D01*
X109119744Y-76355338D01*
X109375338Y-76099744D01*
X109451395Y-75985917D01*
X113562407Y-80096929D01*
X111305001Y-80096929D01*
X111180519Y-80109189D01*
X111060821Y-80145499D01*
X110950507Y-80204464D01*
X110853816Y-80283816D01*
X110774464Y-80380507D01*
X110715499Y-80490821D01*
X110679189Y-80610519D01*
X110666929Y-80735001D01*
X110666929Y-81250001D01*
X100511580Y-81250001D01*
X95300546Y-76038967D01*
X98675000Y-76038967D01*
X98675000Y-76361033D01*
X98737832Y-76676912D01*
X98861082Y-76974463D01*
X99040013Y-77242252D01*
X99267748Y-77469987D01*
X99535537Y-77648918D01*
X99833088Y-77772168D01*
X100148967Y-77835000D01*
X100471033Y-77835000D01*
X100786912Y-77772168D01*
X101084463Y-77648918D01*
X101352252Y-77469987D01*
X101579987Y-77242252D01*
X101758918Y-76974463D01*
X101882168Y-76676912D01*
X101945000Y-76361033D01*
X101945000Y-76038967D01*
X101882168Y-75723088D01*
X101758918Y-75425537D01*
X101579987Y-75157748D01*
X101352252Y-74930013D01*
X101084463Y-74751082D01*
X100786912Y-74627832D01*
X100471033Y-74565000D01*
X100148967Y-74565000D01*
X99833088Y-74627832D01*
X99535537Y-74751082D01*
X99267748Y-74930013D01*
X99040013Y-75157748D01*
X98861082Y-75425537D01*
X98737832Y-75723088D01*
X98675000Y-76038967D01*
X95300546Y-76038967D01*
X94866534Y-75604956D01*
X94838817Y-75571183D01*
X94704059Y-75460589D01*
X94550313Y-75378411D01*
X94383490Y-75327805D01*
X94348072Y-75324317D01*
X94348072Y-75200000D01*
X94335812Y-75075518D01*
X94299502Y-74955820D01*
X94240537Y-74845506D01*
X94161185Y-74748815D01*
X94064494Y-74669463D01*
X93954180Y-74610498D01*
X93834482Y-74574188D01*
X93710000Y-74561928D01*
X91710000Y-74561928D01*
X91585518Y-74574188D01*
X91465820Y-74610498D01*
X91355506Y-74669463D01*
X91258815Y-74748815D01*
X91179463Y-74845506D01*
X91120498Y-74955820D01*
X91084188Y-75075518D01*
X91071928Y-75200000D01*
X91071928Y-75324317D01*
X91036510Y-75327805D01*
X90869687Y-75378411D01*
X90715941Y-75460589D01*
X90715939Y-75460590D01*
X90715940Y-75460590D01*
X90614953Y-75543468D01*
X90614951Y-75543470D01*
X90581183Y-75571183D01*
X90553470Y-75604951D01*
X88304951Y-77853471D01*
X88271184Y-77881183D01*
X88243471Y-77914951D01*
X88243468Y-77914954D01*
X88160590Y-78015941D01*
X88078412Y-78169687D01*
X88027805Y-78336510D01*
X88010719Y-78510000D01*
X88015001Y-78553479D01*
X88015000Y-86483451D01*
X87978866Y-86507595D01*
X87777595Y-86708866D01*
X87619457Y-86945536D01*
X87510530Y-87208509D01*
X87455000Y-87487680D01*
X83947000Y-87487680D01*
X83947000Y-67851872D01*
X85903000Y-67851872D01*
X85903000Y-68292128D01*
X85988890Y-68723925D01*
X86157369Y-69130669D01*
X86401962Y-69496729D01*
X86713271Y-69808038D01*
X87079331Y-70052631D01*
X87486075Y-70221110D01*
X87917872Y-70307000D01*
X88358128Y-70307000D01*
X88789925Y-70221110D01*
X89196669Y-70052631D01*
X89562729Y-69808038D01*
X89874038Y-69496729D01*
X90118631Y-69130669D01*
X90287110Y-68723925D01*
X90309000Y-68613872D01*
X133401000Y-68613872D01*
X133401000Y-69054128D01*
X133486890Y-69485925D01*
X133655369Y-69892669D01*
X133899962Y-70258729D01*
X134211271Y-70570038D01*
X134577331Y-70814631D01*
X134984075Y-70983110D01*
X135415872Y-71069000D01*
X135856128Y-71069000D01*
X136287925Y-70983110D01*
X136694669Y-70814631D01*
X137060729Y-70570038D01*
X137372038Y-70258729D01*
X137616631Y-69892669D01*
X137785110Y-69485925D01*
X137871000Y-69054128D01*
X137871000Y-68613872D01*
X137785110Y-68182075D01*
X137616631Y-67775331D01*
X137372038Y-67409271D01*
X137060729Y-67097962D01*
X136694669Y-66853369D01*
X136287925Y-66684890D01*
X135856128Y-66599000D01*
X135415872Y-66599000D01*
X134984075Y-66684890D01*
X134577331Y-66853369D01*
X134211271Y-67097962D01*
X133899962Y-67409271D01*
X133655369Y-67775331D01*
X133486890Y-68182075D01*
X133401000Y-68613872D01*
X90309000Y-68613872D01*
X90373000Y-68292128D01*
X90373000Y-67851872D01*
X90287110Y-67420075D01*
X90118631Y-67013331D01*
X89874038Y-66647271D01*
X89562729Y-66335962D01*
X89196669Y-66091369D01*
X88789925Y-65922890D01*
X88358128Y-65837000D01*
X87917872Y-65837000D01*
X87486075Y-65922890D01*
X87079331Y-66091369D01*
X86713271Y-66335962D01*
X86401962Y-66647271D01*
X86157369Y-67013331D01*
X85988890Y-67420075D01*
X85903000Y-67851872D01*
X83947000Y-67851872D01*
X83947000Y-63883341D01*
X139319000Y-64894702D01*
M02*
